<ttFont>
    <TTGlyph name=".notdef" xMin="68" yMin="0" xMax="612" yMax="1365">
      <contour>
        <pt x="68" y="0" on="1"/>
        <pt x="68" y="1365" on="1"/>
        <pt x="612" y="1365" on="1"/>
        <pt x="612" y="0" on="1"/>
      </contour>
      <contour>
        <pt x="136" y="68" on="1"/>
        <pt x="544" y="68" on="1"/>
        <pt x="544" y="1297" on="1"/>
        <pt x="136" y="1297" on="1"/>
      </contour>
    </TTGlyph>
    <TTGlyph name="A" xMin="130" yMin="0" xMax="1333" yMax="1421">
      <contour>
        <pt x="1042" y="1421" on="1"/>
        <pt x="1235" y="1421" on="1"/>
        <pt x="1333" y="0" on="1"/>
        <pt x="1161" y="0" on="1"/>
        <pt x="1135" y="413" on="1"/>
        <pt x="549" y="413" on="1"/>
        <pt x="287" y="0" on="1"/>
        <pt x="130" y="0" on="1"/>
      </contour>
      <contour>
        <pt x="1084" y="1255" on="1"/>
        <pt x="643" y="562" on="1"/>
        <pt x="1126" y="562" on="1"/>
      </contour>
    </TTGlyph>
    <TTGlyph name="AE" xMin="130" yMin="0" xMax="2162" yMax="1421">
      <contour>
        <pt x="671" y="562" on="1"/>
        <pt x="1128" y="562" on="1"/>
        <pt x="1331" y="1271" on="1"/>
        <pt x="1148" y="1271" on="1"/>
      </contour>
      <contour>
        <pt x="1092" y="1421" on="1"/>
        <pt x="2162" y="1421" on="1"/>
        <pt x="2119" y="1271" on="1"/>
        <pt x="1501" y="1271" on="1"/>
        <pt x="1368" y="807" on="1"/>
        <pt x="1931" y="807" on="1"/>
        <pt x="1888" y="657" on="1"/>
        <pt x="1325" y="657" on="1"/>
        <pt x="1180" y="150" on="1"/>
        <pt x="1798" y="150" on="1"/>
        <pt x="1755" y="0" on="1"/>
        <pt x="967" y="0" on="1"/>
        <pt x="1086" y="414" on="1"/>
        <pt x="571" y="414" on="1"/>
        <pt x="292" y="0" on="1"/>
        <pt x="130" y="0" on="1"/>
      </contour>
    </TTGlyph>
    <TTGlyph name="Aacute" xMin="130" yMin="0" xMax="1522" yMax="1929">
      <contour>
        <pt x="1042" y="1421" on="1"/>
        <pt x="1235" y="1421" on="1"/>
        <pt x="1333" y="0" on="1"/>
        <pt x="1161" y="0" on="1"/>
        <pt x="1135" y="413" on="1"/>
        <pt x="549" y="413" on="1"/>
        <pt x="287" y="0" on="1"/>
        <pt x="130" y="0" on="1"/>
      </contour>
      <contour>
        <pt x="1084" y="1255" on="1"/>
        <pt x="643" y="562" on="1"/>
        <pt x="1126" y="562" on="1"/>
      </contour>
      <contour>
        <pt x="1487" y="1929" on="1"/>
        <pt x="1522" y="1806" on="1"/>
        <pt x="925" y="1511" on="1"/>
        <pt x="894" y="1619" on="1"/>
      </contour>
    </TTGlyph>
    <TTGlyph name="Abreve" xMin="130" yMin="0" xMax="1660" yMax="1882">
      <contour>
        <pt x="879" y="1816" on="1"/>
        <pt x="1022" y="1882" on="1"/>
        <pt x="1029" y="1848" on="0"/>
        <pt x="1055" y="1788" on="0"/>
        <pt x="1100" y="1730" on="0"/>
        <pt x="1174" y="1695" on="0"/>
        <pt x="1220" y="1695" on="1"/>
        <pt x="1301" y="1695" on="0"/>
        <pt x="1487" y="1804" on="0"/>
        <pt x="1569" y="1882" on="1"/>
        <pt x="1660" y="1805" on="1"/>
        <pt x="1550" y="1699" on="0"/>
        <pt x="1283" y="1557" on="0"/>
        <pt x="1164" y="1557" on="1"/>
        <pt x="1096" y="1557" on="0"/>
        <pt x="988" y="1602" on="0"/>
        <pt x="921" y="1677" on="0"/>
        <pt x="883" y="1767" on="0"/>
      </contour>
      <contour>
        <pt x="1084" y="1255" on="1"/>
        <pt x="643" y="562" on="1"/>
        <pt x="1126" y="562" on="1"/>
      </contour>
      <contour>
        <pt x="1042" y="1421" on="1"/>
        <pt x="1235" y="1421" on="1"/>
        <pt x="1333" y="0" on="1"/>
        <pt x="1161" y="0" on="1"/>
        <pt x="1135" y="413" on="1"/>
        <pt x="549" y="413" on="1"/>
        <pt x="287" y="0" on="1"/>
        <pt x="130" y="0" on="1"/>
      </contour>
    </TTGlyph>
    <TTGlyph name="Acircumflex" xMin="130" yMin="0" xMax="1477" yMax="1924">
      <contour>
        <pt x="1042" y="1421" on="1"/>
        <pt x="1235" y="1421" on="1"/>
        <pt x="1333" y="0" on="1"/>
        <pt x="1161" y="0" on="1"/>
        <pt x="1135" y="413" on="1"/>
        <pt x="549" y="413" on="1"/>
        <pt x="287" y="0" on="1"/>
        <pt x="130" y="0" on="1"/>
      </contour>
      <contour>
        <pt x="1084" y="1255" on="1"/>
        <pt x="643" y="562" on="1"/>
        <pt x="1126" y="562" on="1"/>
      </contour>
      <contour>
        <pt x="1303" y="1924" on="1"/>
        <pt x="1477" y="1638" on="1"/>
        <pt x="1358" y="1550" on="1"/>
        <pt x="1239" y="1746" on="1"/>
        <pt x="1002" y="1551" on="1"/>
        <pt x="936" y="1629" on="1"/>
      </contour>
    </TTGlyph>
    <TTGlyph name="Adieresis" xMin="130" yMin="0" xMax="1593" yMax="1897">
      <contour>
        <pt x="1042" y="1421" on="1"/>
        <pt x="1235" y="1421" on="1"/>
        <pt x="1333" y="0" on="1"/>
        <pt x="1161" y="0" on="1"/>
        <pt x="1135" y="413" on="1"/>
        <pt x="549" y="413" on="1"/>
        <pt x="287" y="0" on="1"/>
        <pt x="130" y="0" on="1"/>
      </contour>
      <contour>
        <pt x="1084" y="1255" on="1"/>
        <pt x="643" y="562" on="1"/>
        <pt x="1126" y="562" on="1"/>
      </contour>
      <contour>
        <pt x="960" y="1897" on="1"/>
        <pt x="1145" y="1897" on="1"/>
        <pt x="1092" y="1712" on="1"/>
        <pt x="907" y="1712" on="1"/>
      </contour>
      <contour>
        <pt x="1408" y="1897" on="1"/>
        <pt x="1593" y="1897" on="1"/>
        <pt x="1540" y="1712" on="1"/>
        <pt x="1355" y="1712" on="1"/>
      </contour>
    </TTGlyph>
    <TTGlyph name="Agrave" xMin="130" yMin="0" xMax="1494" yMax="1929">
      <contour>
        <pt x="1042" y="1421" on="1"/>
        <pt x="1235" y="1421" on="1"/>
        <pt x="1333" y="0" on="1"/>
        <pt x="1161" y="0" on="1"/>
        <pt x="1135" y="413" on="1"/>
        <pt x="549" y="413" on="1"/>
        <pt x="287" y="0" on="1"/>
        <pt x="130" y="0" on="1"/>
      </contour>
      <contour>
        <pt x="1084" y="1255" on="1"/>
        <pt x="643" y="562" on="1"/>
        <pt x="1126" y="562" on="1"/>
      </contour>
      <contour>
        <pt x="1079" y="1929" on="1"/>
        <pt x="1494" y="1619" on="1"/>
        <pt x="1401" y="1511" on="1"/>
        <pt x="974" y="1806" on="1"/>
      </contour>
    </TTGlyph>
    <TTGlyph name="Amacron" xMin="130" yMin="0" xMax="1591" yMax="1697">
      <contour>
        <pt x="1042" y="1421" on="1"/>
        <pt x="1235" y="1421" on="1"/>
        <pt x="1333" y="0" on="1"/>
        <pt x="1161" y="0" on="1"/>
        <pt x="1135" y="413" on="1"/>
        <pt x="549" y="413" on="1"/>
        <pt x="287" y="0" on="1"/>
        <pt x="130" y="0" on="1"/>
      </contour>
      <contour>
        <pt x="1084" y="1255" on="1"/>
        <pt x="643" y="562" on="1"/>
        <pt x="1126" y="562" on="1"/>
      </contour>
      <contour>
        <pt x="851" y="1697" on="1"/>
        <pt x="1591" y="1697" on="1"/>
        <pt x="1554" y="1568" on="1"/>
        <pt x="814" y="1568" on="1"/>
      </contour>
    </TTGlyph>
    <TTGlyph name="Aogonek" xMin="130" yMin="-544" xMax="1333" yMax="1421">
      <contour>
        <pt x="1042" y="1421" on="1"/>
        <pt x="1235" y="1421" on="1"/>
        <pt x="1333" y="0" on="1"/>
        <pt x="1233" y="0" on="0"/>
        <pt x="1060" y="-60" on="0"/>
        <pt x="955" y="-141" on="0"/>
        <pt x="875" y="-235" on="0"/>
        <pt x="844" y="-292" on="0"/>
        <pt x="841" y="-304" on="1"/>
        <pt x="836" y="-324" on="0"/>
        <pt x="836" y="-339" on="1"/>
        <pt x="836" y="-370" on="0"/>
        <pt x="873" y="-410" on="0"/>
        <pt x="914" y="-410" on="1"/>
        <pt x="982" y="-410" on="0"/>
        <pt x="1097" y="-352" on="1"/>
        <pt x="1119" y="-442" on="1"/>
        <pt x="950" y="-544" on="0"/>
        <pt x="830" y="-544" on="1"/>
        <pt x="759" y="-544" on="0"/>
        <pt x="675" y="-468" on="0"/>
        <pt x="675" y="-404" on="1"/>
        <pt x="675" y="-379" on="0"/>
        <pt x="685" y="-341" on="1"/>
        <pt x="721" y="-215" on="0"/>
        <pt x="1013" y="35" on="0"/>
        <pt x="1156" y="78" on="1"/>
        <pt x="1135" y="413" on="1"/>
        <pt x="549" y="413" on="1"/>
        <pt x="287" y="0" on="1"/>
        <pt x="130" y="0" on="1"/>
      </contour>
      <contour>
        <pt x="1084" y="1255" on="1"/>
        <pt x="643" y="562" on="1"/>
        <pt x="1126" y="562" on="1"/>
      </contour>
    </TTGlyph>
    <TTGlyph name="Aring" xMin="130" yMin="0" xMax="1472" yMax="1873">
      <contour>
        <pt x="1270" y="1873" on="1"/>
        <pt x="1359" y="1873" on="0"/>
        <pt x="1472" y="1768" on="0"/>
        <pt x="1472" y="1686" on="1"/>
        <pt x="1472" y="1652" on="0"/>
        <pt x="1462" y="1618" on="1"/>
        <pt x="1440" y="1541" on="0"/>
        <pt x="1317" y="1414" on="0"/>
        <pt x="1238" y="1383" on="1"/>
        <pt x="1333" y="0" on="1"/>
        <pt x="1161" y="0" on="1"/>
        <pt x="1135" y="413" on="1"/>
        <pt x="549" y="413" on="1"/>
        <pt x="287" y="0" on="1"/>
        <pt x="130" y="0" on="1"/>
        <pt x="1019" y="1385" on="1"/>
        <pt x="924" y="1435" on="0"/>
        <pt x="924" y="1545" on="1"/>
        <pt x="924" y="1601" on="0"/>
        <pt x="978" y="1717" on="0"/>
        <pt x="1068" y="1812" on="0"/>
        <pt x="1199" y="1873" on="0"/>
      </contour>
      <contour>
        <pt x="1242" y="1769" on="1"/>
        <pt x="1175" y="1769" on="0"/>
        <pt x="1060" y="1680" on="0"/>
        <pt x="1042" y="1618" on="1"/>
        <pt x="1036" y="1597" on="0"/>
        <pt x="1036" y="1576" on="1"/>
        <pt x="1036" y="1528" on="0"/>
        <pt x="1099" y="1465" on="0"/>
        <pt x="1155" y="1465" on="1"/>
        <pt x="1220" y="1465" on="0"/>
        <pt x="1333" y="1557" on="0"/>
        <pt x="1351" y="1618" on="1"/>
        <pt x="1357" y="1639" on="0"/>
        <pt x="1357" y="1659" on="1"/>
        <pt x="1357" y="1706" on="0"/>
        <pt x="1295" y="1769" on="0"/>
      </contour>
      <contour>
        <pt x="1084" y="1255" on="1"/>
        <pt x="643" y="562" on="1"/>
        <pt x="1126" y="562" on="1"/>
      </contour>
    </TTGlyph>
    <TTGlyph name="Atilde" xMin="130" yMin="0" xMax="1650" yMax="1878">
      <contour>
        <pt x="1547" y="1878" on="1"/>
        <pt x="1650" y="1861" on="1"/>
        <pt x="1646" y="1852" on="0"/>
        <pt x="1619" y="1797" on="0"/>
        <pt x="1608" y="1772" on="0"/>
        <pt x="1580" y="1721" on="0"/>
        <pt x="1563" y="1695" on="0"/>
        <pt x="1532" y="1651" on="0"/>
        <pt x="1506" y="1629" on="0"/>
        <pt x="1470" y="1599" on="0"/>
        <pt x="1434" y="1585" on="0"/>
        <pt x="1390" y="1574" on="0"/>
        <pt x="1366" y="1574" on="1"/>
        <pt x="1322" y="1574" on="0"/>
        <pt x="1250" y="1611" on="0"/>
        <pt x="1204" y="1664" on="0"/>
        <pt x="1165" y="1717" on="0"/>
        <pt x="1123" y="1754" on="0"/>
        <pt x="1100" y="1754" on="1"/>
        <pt x="1086" y="1754" on="0"/>
        <pt x="1060" y="1744" on="0"/>
        <pt x="1040" y="1732" on="0"/>
        <pt x="1017" y="1704" on="0"/>
        <pt x="1004" y="1686" on="0"/>
        <pt x="982" y="1647" on="0"/>
        <pt x="973" y="1628" on="0"/>
        <pt x="951" y="1581" on="0"/>
        <pt x="947" y="1574" on="1"/>
        <pt x="844" y="1589" on="1"/>
        <pt x="848" y="1598" on="0"/>
        <pt x="875" y="1653" on="0"/>
        <pt x="886" y="1678" on="0"/>
        <pt x="914" y="1729" on="0"/>
        <pt x="931" y="1755" on="0"/>
        <pt x="962" y="1799" on="0"/>
        <pt x="988" y="1821" on="0"/>
        <pt x="1024" y="1851" on="0"/>
        <pt x="1060" y="1865" on="0"/>
        <pt x="1104" y="1876" on="0"/>
        <pt x="1128" y="1876" on="1"/>
        <pt x="1172" y="1876" on="0"/>
        <pt x="1244" y="1839" on="0"/>
        <pt x="1290" y="1786" on="0"/>
        <pt x="1329" y="1733" on="0"/>
        <pt x="1371" y="1696" on="0"/>
        <pt x="1394" y="1696" on="1"/>
        <pt x="1410" y="1696" on="0"/>
        <pt x="1437" y="1706" on="0"/>
        <pt x="1464" y="1732" on="0"/>
        <pt x="1482" y="1750" on="0"/>
        <pt x="1507" y="1795" on="0"/>
        <pt x="1517" y="1815" on="0"/>
        <pt x="1544" y="1871" on="0"/>
      </contour>
      <contour>
        <pt x="1084" y="1255" on="1"/>
        <pt x="643" y="562" on="1"/>
        <pt x="1126" y="562" on="1"/>
      </contour>
      <contour>
        <pt x="1042" y="1421" on="1"/>
        <pt x="1235" y="1421" on="1"/>
        <pt x="1333" y="0" on="1"/>
        <pt x="1161" y="0" on="1"/>
        <pt x="1135" y="413" on="1"/>
        <pt x="549" y="413" on="1"/>
        <pt x="287" y="0" on="1"/>
        <pt x="130" y="0" on="1"/>
      </contour>
    </TTGlyph>
    <TTGlyph name="B" xMin="290" yMin="0" xMax="1505" yMax="1421">
      <contour>
        <pt x="830" y="1291" on="1"/>
        <pt x="693" y="814" on="1"/>
        <pt x="712" y="815" on="0"/>
        <pt x="806" y="816" on="0"/>
        <pt x="859" y="817" on="0"/>
        <pt x="955" y="824" on="0"/>
        <pt x="1015" y="833" on="0"/>
        <pt x="1101" y="852" on="0"/>
        <pt x="1159" y="877" on="0"/>
        <pt x="1227" y="916" on="0"/>
        <pt x="1273" y="964" on="0"/>
        <pt x="1314" y="1031" on="0"/>
        <pt x="1325" y="1071" on="1"/>
        <pt x="1335" y="1104" on="0"/>
        <pt x="1335" y="1137" on="1"/>
        <pt x="1335" y="1204" on="0"/>
        <pt x="1231" y="1291" on="0"/>
        <pt x="1104" y="1291" on="1"/>
      </contour>
      <contour>
        <pt x="656" y="682" on="1"/>
        <pt x="503" y="150" on="1"/>
        <pt x="768" y="150" on="1"/>
        <pt x="804" y="150" on="0"/>
        <pt x="853" y="151" on="0"/>
        <pt x="949" y="162" on="0"/>
        <pt x="1019" y="181" on="0"/>
        <pt x="1109" y="220" on="0"/>
        <pt x="1174" y="274" on="0"/>
        <pt x="1233" y="359" on="0"/>
        <pt x="1248" y="413" on="1"/>
        <pt x="1260" y="455" on="0"/>
        <pt x="1260" y="491" on="1"/>
        <pt x="1260" y="589" on="0"/>
        <pt x="1096" y="696" on="0"/>
        <pt x="950" y="696" on="1"/>
        <pt x="930" y="696" on="0"/>
      </contour>
      <contour>
        <pt x="697" y="1421" on="1"/>
        <pt x="1198" y="1421" on="1"/>
        <pt x="1272" y="1421" on="0"/>
        <pt x="1385" y="1390" on="0"/>
        <pt x="1450" y="1342" on="0"/>
        <pt x="1491" y="1274" on="0"/>
        <pt x="1505" y="1212" on="0"/>
        <pt x="1505" y="1177" on="1"/>
        <pt x="1505" y="1128" on="0"/>
        <pt x="1491" y="1079" on="1"/>
        <pt x="1466" y="992" on="0"/>
        <pt x="1299" y="819" on="0"/>
        <pt x="1226" y="794" on="1"/>
        <pt x="1325" y="775" on="0"/>
        <pt x="1438" y="633" on="0"/>
        <pt x="1438" y="533" on="1"/>
        <pt x="1438" y="484" on="0"/>
        <pt x="1423" y="431" on="1"/>
        <pt x="1414" y="400" on="0"/>
        <pt x="1384" y="332" on="0"/>
        <pt x="1327" y="246" on="0"/>
        <pt x="1254" y="168" on="0"/>
        <pt x="1146" y="91" on="0"/>
        <pt x="1019" y="35" on="0"/>
        <pt x="848" y="0" on="0"/>
        <pt x="752" y="0" on="1"/>
        <pt x="290" y="0" on="1"/>
      </contour>
    </TTGlyph>
    <TTGlyph name="C" xMin="442" yMin="-20" xMax="1761" yMax="1431">
      <contour>
        <pt x="1396" y="1431" on="1"/>
        <pt x="1590" y="1431" on="0"/>
        <pt x="1761" y="1355" on="1"/>
        <pt x="1668" y="1214" on="1"/>
        <pt x="1493" y="1281" on="0"/>
        <pt x="1348" y="1281" on="1"/>
        <pt x="1228" y="1281" on="0"/>
        <pt x="996" y="1186" on="0"/>
        <pt x="815" y="1027" on="0"/>
        <pt x="681" y="822" on="0"/>
        <pt x="649" y="710" on="1"/>
        <pt x="623" y="618" on="0"/>
        <pt x="623" y="537" on="1"/>
        <pt x="623" y="358" on="0"/>
        <pt x="850" y="136" on="0"/>
        <pt x="1057" y="136" on="1"/>
        <pt x="1211" y="136" on="0"/>
        <pt x="1395" y="196" on="1"/>
        <pt x="1411" y="70" on="1"/>
        <pt x="1176" y="-20" on="0"/>
        <pt x="969" y="-20" on="1"/>
        <pt x="835" y="-20" on="0"/>
        <pt x="630" y="59" on="0"/>
        <pt x="505" y="198" on="0"/>
        <pt x="442" y="376" on="0"/>
        <pt x="442" y="586" on="0"/>
        <pt x="504" y="808" on="0"/>
        <pt x="617" y="1020" on="0"/>
        <pt x="788" y="1207" on="0"/>
        <pt x="994" y="1349" on="0"/>
        <pt x="1256" y="1431" on="0"/>
      </contour>
    </TTGlyph>
    <TTGlyph name="Cacute" xMin="442" yMin="-20" xMax="1761" yMax="1976">
      <contour>
        <pt x="1640" y="1976" on="1"/>
        <pt x="1674" y="1853" on="1"/>
        <pt x="1078" y="1558" on="1"/>
        <pt x="1047" y="1666" on="1"/>
      </contour>
      <contour>
        <pt x="969" y="-20" on="1"/>
        <pt x="835" y="-20" on="0"/>
        <pt x="630" y="59" on="0"/>
        <pt x="505" y="198" on="0"/>
        <pt x="442" y="376" on="0"/>
        <pt x="442" y="586" on="0"/>
        <pt x="504" y="808" on="0"/>
        <pt x="617" y="1020" on="0"/>
        <pt x="788" y="1207" on="0"/>
        <pt x="994" y="1349" on="0"/>
        <pt x="1256" y="1431" on="0"/>
        <pt x="1396" y="1431" on="1"/>
        <pt x="1590" y="1431" on="0"/>
        <pt x="1761" y="1355" on="1"/>
        <pt x="1668" y="1214" on="1"/>
        <pt x="1493" y="1281" on="0"/>
        <pt x="1348" y="1281" on="1"/>
        <pt x="1228" y="1281" on="0"/>
        <pt x="996" y="1186" on="0"/>
        <pt x="815" y="1027" on="0"/>
        <pt x="681" y="822" on="0"/>
        <pt x="649" y="710" on="1"/>
        <pt x="623" y="618" on="0"/>
        <pt x="623" y="537" on="1"/>
        <pt x="623" y="358" on="0"/>
        <pt x="850" y="136" on="0"/>
        <pt x="1057" y="136" on="1"/>
        <pt x="1211" y="136" on="0"/>
        <pt x="1395" y="196" on="1"/>
        <pt x="1411" y="70" on="1"/>
        <pt x="1176" y="-20" on="0"/>
      </contour>
    </TTGlyph>
    <TTGlyph name="Ccaron" xMin="442" yMin="-20" xMax="1761" yMax="1932">
      <contour>
        <pt x="969" y="-20" on="1"/>
        <pt x="835" y="-20" on="0"/>
        <pt x="630" y="59" on="0"/>
        <pt x="505" y="198" on="0"/>
        <pt x="442" y="376" on="0"/>
        <pt x="442" y="586" on="0"/>
        <pt x="504" y="808" on="0"/>
        <pt x="617" y="1020" on="0"/>
        <pt x="788" y="1207" on="0"/>
        <pt x="994" y="1349" on="0"/>
        <pt x="1256" y="1431" on="0"/>
        <pt x="1396" y="1431" on="1"/>
        <pt x="1590" y="1431" on="0"/>
        <pt x="1761" y="1355" on="1"/>
        <pt x="1668" y="1214" on="1"/>
        <pt x="1493" y="1281" on="0"/>
        <pt x="1348" y="1281" on="1"/>
        <pt x="1228" y="1281" on="0"/>
        <pt x="996" y="1186" on="0"/>
        <pt x="815" y="1027" on="0"/>
        <pt x="681" y="822" on="0"/>
        <pt x="649" y="710" on="1"/>
        <pt x="623" y="618" on="0"/>
        <pt x="623" y="537" on="1"/>
        <pt x="623" y="358" on="0"/>
        <pt x="850" y="136" on="0"/>
        <pt x="1057" y="136" on="1"/>
        <pt x="1211" y="136" on="0"/>
        <pt x="1395" y="196" on="1"/>
        <pt x="1411" y="70" on="1"/>
        <pt x="1176" y="-20" on="0"/>
      </contour>
      <contour>
        <pt x="1337" y="1558" on="1"/>
        <pt x="1163" y="1844" on="1"/>
        <pt x="1281" y="1932" on="1"/>
        <pt x="1401" y="1736" on="1"/>
        <pt x="1638" y="1931" on="1"/>
        <pt x="1703" y="1853" on="1"/>
      </contour>
    </TTGlyph>
    <TTGlyph name="Ccedilla" xMin="442" yMin="-506" xMax="1761" yMax="1431">
      <contour>
        <pt x="1007" y="-316" on="1"/>
        <pt x="985" y="-393" on="0"/>
        <pt x="835" y="-506" on="0"/>
        <pt x="741" y="-506" on="1"/>
        <pt x="704" y="-506" on="0"/>
        <pt x="632" y="-490" on="0"/>
        <pt x="518" y="-453" on="1"/>
        <pt x="578" y="-349" on="1"/>
        <pt x="728" y="-399" on="0"/>
        <pt x="779" y="-399" on="1"/>
        <pt x="822" y="-399" on="0"/>
        <pt x="883" y="-357" on="0"/>
        <pt x="891" y="-328" on="1"/>
        <pt x="894" y="-316" on="0"/>
        <pt x="894" y="-307" on="1"/>
        <pt x="894" y="-299" on="0"/>
        <pt x="889" y="-285" on="0"/>
        <pt x="878" y="-272" on="0"/>
        <pt x="865" y="-262" on="0"/>
        <pt x="842" y="-251" on="0"/>
        <pt x="821" y="-243" on="0"/>
        <pt x="786" y="-231" on="0"/>
        <pt x="758" y="-222" on="0"/>
        <pt x="710" y="-207" on="0"/>
        <pt x="692" y="-201" on="1"/>
        <pt x="804" y="-2" on="1"/>
        <pt x="624" y="40" on="0"/>
        <pt x="442" y="300" on="0"/>
        <pt x="442" y="481" on="1"/>
        <pt x="442" y="607" on="0"/>
        <pt x="528" y="874" on="0"/>
        <pt x="696" y="1120" on="0"/>
        <pt x="922" y="1314" on="0"/>
        <pt x="1228" y="1431" on="0"/>
        <pt x="1396" y="1431" on="1"/>
        <pt x="1590" y="1431" on="0"/>
        <pt x="1761" y="1355" on="1"/>
        <pt x="1668" y="1214" on="1"/>
        <pt x="1493" y="1281" on="0"/>
        <pt x="1348" y="1281" on="1"/>
        <pt x="1228" y="1281" on="0"/>
        <pt x="996" y="1186" on="0"/>
        <pt x="815" y="1027" on="0"/>
        <pt x="681" y="822" on="0"/>
        <pt x="649" y="710" on="1"/>
        <pt x="623" y="618" on="0"/>
        <pt x="623" y="537" on="1"/>
        <pt x="623" y="358" on="0"/>
        <pt x="850" y="136" on="0"/>
        <pt x="1057" y="136" on="1"/>
        <pt x="1211" y="136" on="0"/>
        <pt x="1395" y="196" on="1"/>
        <pt x="1411" y="70" on="1"/>
        <pt x="1176" y="-20" on="0"/>
        <pt x="969" y="-20" on="1"/>
        <pt x="941" y="-20" on="1"/>
        <pt x="879" y="-135" on="1"/>
        <pt x="888" y="-138" on="1"/>
        <pt x="896" y="-140" on="0"/>
        <pt x="909" y="-144" on="0"/>
        <pt x="933" y="-153" on="0"/>
        <pt x="951" y="-164" on="0"/>
        <pt x="974" y="-179" on="0"/>
        <pt x="991" y="-198" on="0"/>
        <pt x="1006" y="-221" on="0"/>
        <pt x="1014" y="-251" on="0"/>
        <pt x="1014" y="-268" on="1"/>
        <pt x="1014" y="-292" on="0"/>
      </contour>
    </TTGlyph>
    <TTGlyph name="Ccircumflex" xMin="442" yMin="-20" xMax="1761" yMax="1932">
      <contour>
        <pt x="969" y="-20" on="1"/>
        <pt x="835" y="-20" on="0"/>
        <pt x="630" y="59" on="0"/>
        <pt x="505" y="198" on="0"/>
        <pt x="442" y="376" on="0"/>
        <pt x="442" y="586" on="0"/>
        <pt x="504" y="808" on="0"/>
        <pt x="617" y="1020" on="0"/>
        <pt x="788" y="1207" on="0"/>
        <pt x="994" y="1349" on="0"/>
        <pt x="1256" y="1431" on="0"/>
        <pt x="1396" y="1431" on="1"/>
        <pt x="1590" y="1431" on="0"/>
        <pt x="1761" y="1355" on="1"/>
        <pt x="1668" y="1214" on="1"/>
        <pt x="1493" y="1281" on="0"/>
        <pt x="1348" y="1281" on="1"/>
        <pt x="1228" y="1281" on="0"/>
        <pt x="996" y="1186" on="0"/>
        <pt x="815" y="1027" on="0"/>
        <pt x="681" y="822" on="0"/>
        <pt x="649" y="710" on="1"/>
        <pt x="623" y="618" on="0"/>
        <pt x="623" y="537" on="1"/>
        <pt x="623" y="358" on="0"/>
        <pt x="850" y="136" on="0"/>
        <pt x="1057" y="136" on="1"/>
        <pt x="1211" y="136" on="0"/>
        <pt x="1395" y="196" on="1"/>
        <pt x="1411" y="70" on="1"/>
        <pt x="1176" y="-20" on="0"/>
      </contour>
      <contour>
        <pt x="1400" y="1932" on="1"/>
        <pt x="1574" y="1646" on="1"/>
        <pt x="1456" y="1558" on="1"/>
        <pt x="1336" y="1754" on="1"/>
        <pt x="1099" y="1559" on="1"/>
        <pt x="1033" y="1637" on="1"/>
      </contour>
    </TTGlyph>
    <TTGlyph name="Cdotaccent" xMin="442" yMin="-20" xMax="1761" yMax="1829">
      <contour>
        <pt x="1278" y="1829" on="1"/>
        <pt x="1488" y="1829" on="1"/>
        <pt x="1428" y="1619" on="1"/>
        <pt x="1218" y="1619" on="1"/>
      </contour>
      <contour>
        <pt x="969" y="-20" on="1"/>
        <pt x="835" y="-20" on="0"/>
        <pt x="630" y="59" on="0"/>
        <pt x="505" y="198" on="0"/>
        <pt x="442" y="376" on="0"/>
        <pt x="442" y="586" on="0"/>
        <pt x="504" y="808" on="0"/>
        <pt x="617" y="1020" on="0"/>
        <pt x="788" y="1207" on="0"/>
        <pt x="994" y="1349" on="0"/>
        <pt x="1256" y="1431" on="0"/>
        <pt x="1396" y="1431" on="1"/>
        <pt x="1590" y="1431" on="0"/>
        <pt x="1761" y="1355" on="1"/>
        <pt x="1668" y="1214" on="1"/>
        <pt x="1493" y="1281" on="0"/>
        <pt x="1348" y="1281" on="1"/>
        <pt x="1228" y="1281" on="0"/>
        <pt x="996" y="1186" on="0"/>
        <pt x="815" y="1027" on="0"/>
        <pt x="681" y="822" on="0"/>
        <pt x="649" y="710" on="1"/>
        <pt x="623" y="618" on="0"/>
        <pt x="623" y="537" on="1"/>
        <pt x="623" y="358" on="0"/>
        <pt x="850" y="136" on="0"/>
        <pt x="1057" y="136" on="1"/>
        <pt x="1211" y="136" on="0"/>
        <pt x="1395" y="196" on="1"/>
        <pt x="1411" y="70" on="1"/>
        <pt x="1176" y="-20" on="0"/>
      </contour>
    </TTGlyph>
    <TTGlyph name="D" xMin="290" yMin="0" xMax="1698" yMax="1421">
      <contour>
        <pt x="824" y="1271" on="1"/>
        <pt x="503" y="150" on="1"/>
        <pt x="710" y="150" on="1"/>
        <pt x="755" y="150" on="0"/>
        <pt x="815" y="152" on="0"/>
        <pt x="918" y="162" on="0"/>
        <pt x="997" y="182" on="0"/>
        <pt x="1102" y="220" on="0"/>
        <pt x="1189" y="274" on="0"/>
        <pt x="1285" y="358" on="0"/>
        <pt x="1327" y="411" on="1"/>
        <pt x="1429" y="540" on="0"/>
        <pt x="1481" y="720" on="1"/>
        <pt x="1511" y="823" on="0"/>
        <pt x="1511" y="913" on="1"/>
        <pt x="1511" y="992" on="0"/>
        <pt x="1464" y="1120" on="0"/>
        <pt x="1384" y="1203" on="0"/>
        <pt x="1287" y="1253" on="0"/>
        <pt x="1231" y="1263" on="1"/>
        <pt x="1189" y="1271" on="0"/>
        <pt x="1100" y="1271" on="1"/>
      </contour>
      <contour>
        <pt x="1137" y="1421" on="1"/>
        <pt x="1263" y="1421" on="0"/>
        <pt x="1458" y="1374" on="0"/>
        <pt x="1584" y="1295" on="0"/>
        <pt x="1665" y="1181" on="0"/>
        <pt x="1698" y="1057" on="0"/>
        <pt x="1698" y="984" on="1"/>
        <pt x="1698" y="877" on="0"/>
        <pt x="1662" y="754" on="1"/>
        <pt x="1635" y="661" on="0"/>
        <pt x="1558" y="489" on="0"/>
        <pt x="1438" y="311" on="0"/>
        <pt x="1291" y="170" on="0"/>
        <pt x="1089" y="57" on="0"/>
        <pt x="973" y="30" on="1"/>
        <pt x="913" y="16" on="0"/>
        <pt x="771" y="2" on="0"/>
        <pt x="680" y="0" on="0"/>
        <pt x="598" y="0" on="1"/>
        <pt x="290" y="0" on="1"/>
        <pt x="697" y="1421" on="1"/>
      </contour>
    </TTGlyph>
    <TTGlyph name="Dcaron" xMin="290" yMin="0" xMax="1698" yMax="1932">
      <contour>
        <pt x="1138" y="1421" on="1"/>
        <pt x="1264" y="1421" on="0"/>
        <pt x="1459" y="1374" on="0"/>
        <pt x="1584" y="1295" on="0"/>
        <pt x="1665" y="1182" on="0"/>
        <pt x="1698" y="1058" on="0"/>
        <pt x="1698" y="985" on="1"/>
        <pt x="1698" y="878" on="0"/>
        <pt x="1662" y="754" on="1"/>
        <pt x="1635" y="661" on="0"/>
        <pt x="1558" y="489" on="0"/>
        <pt x="1438" y="311" on="0"/>
        <pt x="1291" y="170" on="0"/>
        <pt x="1089" y="57" on="0"/>
        <pt x="973" y="30" on="1"/>
        <pt x="913" y="16" on="0"/>
        <pt x="771" y="2" on="0"/>
        <pt x="680" y="0" on="0"/>
        <pt x="598" y="0" on="1"/>
        <pt x="290" y="0" on="1"/>
        <pt x="697" y="1421" on="1"/>
      </contour>
      <contour>
        <pt x="824" y="1271" on="1"/>
        <pt x="503" y="150" on="1"/>
        <pt x="710" y="150" on="1"/>
        <pt x="755" y="150" on="0"/>
        <pt x="815" y="152" on="0"/>
        <pt x="918" y="162" on="0"/>
        <pt x="997" y="182" on="0"/>
        <pt x="1102" y="220" on="0"/>
        <pt x="1189" y="274" on="0"/>
        <pt x="1285" y="358" on="0"/>
        <pt x="1327" y="411" on="1"/>
        <pt x="1429" y="540" on="0"/>
        <pt x="1481" y="720" on="1"/>
        <pt x="1511" y="823" on="0"/>
        <pt x="1511" y="913" on="1"/>
        <pt x="1511" y="992" on="0"/>
        <pt x="1464" y="1120" on="0"/>
        <pt x="1384" y="1203" on="0"/>
        <pt x="1287" y="1253" on="0"/>
        <pt x="1231" y="1263" on="1"/>
        <pt x="1189" y="1271" on="0"/>
        <pt x="1100" y="1271" on="1"/>
      </contour>
      <contour>
        <pt x="1291" y="1558" on="1"/>
        <pt x="1117" y="1844" on="1"/>
        <pt x="1235" y="1932" on="1"/>
        <pt x="1355" y="1736" on="1"/>
        <pt x="1592" y="1931" on="1"/>
        <pt x="1657" y="1853" on="1"/>
      </contour>
    </TTGlyph>
    <TTGlyph name="Dcroat" xMin="306" yMin="0" xMax="1743" yMax="1421">
      <contour>
        <pt x="1183" y="1421" on="1"/>
        <pt x="1309" y="1421" on="0"/>
        <pt x="1504" y="1374" on="0"/>
        <pt x="1629" y="1295" on="0"/>
        <pt x="1710" y="1182" on="0"/>
        <pt x="1743" y="1058" on="0"/>
        <pt x="1743" y="985" on="1"/>
        <pt x="1743" y="878" on="0"/>
        <pt x="1707" y="754" on="1"/>
        <pt x="1680" y="661" on="0"/>
        <pt x="1603" y="489" on="0"/>
        <pt x="1483" y="311" on="0"/>
        <pt x="1336" y="170" on="0"/>
        <pt x="1134" y="57" on="0"/>
        <pt x="1018" y="30" on="1"/>
        <pt x="958" y="16" on="0"/>
        <pt x="816" y="2" on="0"/>
        <pt x="725" y="0" on="0"/>
        <pt x="643" y="0" on="1"/>
        <pt x="335" y="0" on="1"/>
        <pt x="524" y="658" on="1"/>
        <pt x="306" y="658" on="1"/>
        <pt x="349" y="808" on="1"/>
        <pt x="567" y="808" on="1"/>
        <pt x="742" y="1421" on="1"/>
      </contour>
      <contour>
        <pt x="694" y="658" on="1"/>
        <pt x="548" y="150" on="1"/>
        <pt x="755" y="150" on="1"/>
        <pt x="800" y="150" on="0"/>
        <pt x="860" y="152" on="0"/>
        <pt x="963" y="162" on="0"/>
        <pt x="1042" y="182" on="0"/>
        <pt x="1147" y="220" on="0"/>
        <pt x="1234" y="274" on="0"/>
        <pt x="1330" y="358" on="0"/>
        <pt x="1372" y="411" on="1"/>
        <pt x="1474" y="540" on="0"/>
        <pt x="1526" y="720" on="1"/>
        <pt x="1556" y="823" on="0"/>
        <pt x="1556" y="913" on="1"/>
        <pt x="1556" y="992" on="0"/>
        <pt x="1509" y="1120" on="0"/>
        <pt x="1429" y="1203" on="0"/>
        <pt x="1332" y="1253" on="0"/>
        <pt x="1276" y="1263" on="1"/>
        <pt x="1234" y="1271" on="0"/>
        <pt x="1145" y="1271" on="1"/>
        <pt x="869" y="1271" on="1"/>
        <pt x="737" y="808" on="1"/>
        <pt x="993" y="808" on="1"/>
        <pt x="950" y="658" on="1"/>
      </contour>
    </TTGlyph>
    <TTGlyph name="E" xMin="290" yMin="0" xMax="1530" yMax="1421">
      <contour>
        <pt x="290" y="0" on="1"/>
        <pt x="697" y="1421" on="1"/>
        <pt x="1530" y="1421" on="1"/>
        <pt x="1487" y="1271" on="1"/>
        <pt x="824" y="1271" on="1"/>
        <pt x="691" y="807" on="1"/>
        <pt x="1299" y="807" on="1"/>
        <pt x="1256" y="657" on="1"/>
        <pt x="648" y="657" on="1"/>
        <pt x="503" y="150" on="1"/>
        <pt x="1166" y="150" on="1"/>
        <pt x="1123" y="0" on="1"/>
      </contour>
    </TTGlyph>
    <TTGlyph name="Eacute" xMin="290" yMin="0" xMax="1540" yMax="1929">
      <contour>
        <pt x="697" y="1421" on="1"/>
        <pt x="1530" y="1421" on="1"/>
        <pt x="1487" y="1271" on="1"/>
        <pt x="824" y="1271" on="1"/>
        <pt x="691" y="807" on="1"/>
        <pt x="1299" y="807" on="1"/>
        <pt x="1256" y="657" on="1"/>
        <pt x="648" y="657" on="1"/>
        <pt x="503" y="150" on="1"/>
        <pt x="1166" y="150" on="1"/>
        <pt x="1123" y="0" on="1"/>
        <pt x="290" y="0" on="1"/>
      </contour>
      <contour>
        <pt x="1505" y="1929" on="1"/>
        <pt x="1540" y="1806" on="1"/>
        <pt x="943" y="1511" on="1"/>
        <pt x="912" y="1619" on="1"/>
      </contour>
    </TTGlyph>
    <TTGlyph name="Ebreve" xMin="290" yMin="0" xMax="1634" yMax="1882">
      <contour>
        <pt x="1543" y="1882" on="1"/>
        <pt x="1634" y="1805" on="1"/>
        <pt x="1505" y="1681" on="0"/>
        <pt x="1247" y="1559" on="0"/>
        <pt x="1137" y="1559" on="1"/>
        <pt x="1016" y="1559" on="0"/>
        <pt x="862" y="1697" on="0"/>
        <pt x="853" y="1816" on="1"/>
        <pt x="996" y="1882" on="1"/>
        <pt x="1012" y="1796" on="0"/>
        <pt x="1116" y="1695" on="0"/>
        <pt x="1195" y="1695" on="1"/>
        <pt x="1349" y="1695" on="0"/>
      </contour>
      <contour>
        <pt x="290" y="0" on="1"/>
        <pt x="697" y="1421" on="1"/>
        <pt x="1530" y="1421" on="1"/>
        <pt x="1487" y="1271" on="1"/>
        <pt x="824" y="1271" on="1"/>
        <pt x="691" y="807" on="1"/>
        <pt x="1299" y="807" on="1"/>
        <pt x="1256" y="657" on="1"/>
        <pt x="648" y="657" on="1"/>
        <pt x="503" y="150" on="1"/>
        <pt x="1166" y="150" on="1"/>
        <pt x="1123" y="0" on="1"/>
      </contour>
    </TTGlyph>
    <TTGlyph name="Ecaron" xMin="290" yMin="0" xMax="1530" yMax="1932">
      <contour>
        <pt x="290" y="0" on="1"/>
        <pt x="697" y="1421" on="1"/>
        <pt x="1530" y="1421" on="1"/>
        <pt x="1487" y="1271" on="1"/>
        <pt x="824" y="1271" on="1"/>
        <pt x="691" y="807" on="1"/>
        <pt x="1299" y="807" on="1"/>
        <pt x="1256" y="657" on="1"/>
        <pt x="648" y="657" on="1"/>
        <pt x="503" y="150" on="1"/>
        <pt x="1166" y="150" on="1"/>
        <pt x="1123" y="0" on="1"/>
      </contour>
      <contour>
        <pt x="1141" y="1558" on="1"/>
        <pt x="967" y="1844" on="1"/>
        <pt x="1084" y="1932" on="1"/>
        <pt x="1204" y="1736" on="1"/>
        <pt x="1442" y="1931" on="1"/>
        <pt x="1507" y="1853" on="1"/>
      </contour>
    </TTGlyph>
    <TTGlyph name="Ecircumflex" xMin="290" yMin="0" xMax="1530" yMax="1932">
      <contour>
        <pt x="697" y="1421" on="1"/>
        <pt x="1530" y="1421" on="1"/>
        <pt x="1487" y="1271" on="1"/>
        <pt x="824" y="1271" on="1"/>
        <pt x="691" y="807" on="1"/>
        <pt x="1299" y="807" on="1"/>
        <pt x="1256" y="657" on="1"/>
        <pt x="648" y="657" on="1"/>
        <pt x="503" y="150" on="1"/>
        <pt x="1166" y="150" on="1"/>
        <pt x="1123" y="0" on="1"/>
        <pt x="290" y="0" on="1"/>
      </contour>
      <contour>
        <pt x="1274" y="1932" on="1"/>
        <pt x="1448" y="1646" on="1"/>
        <pt x="1329" y="1558" on="1"/>
        <pt x="1210" y="1754" on="1"/>
        <pt x="973" y="1559" on="1"/>
        <pt x="907" y="1637" on="1"/>
      </contour>
    </TTGlyph>
    <TTGlyph name="Edieresis" xMin="290" yMin="0" xMax="1567" yMax="1898">
      <contour>
        <pt x="697" y="1421" on="1"/>
        <pt x="1530" y="1421" on="1"/>
        <pt x="1487" y="1271" on="1"/>
        <pt x="824" y="1271" on="1"/>
        <pt x="691" y="807" on="1"/>
        <pt x="1299" y="807" on="1"/>
        <pt x="1256" y="657" on="1"/>
        <pt x="648" y="657" on="1"/>
        <pt x="503" y="150" on="1"/>
        <pt x="1166" y="150" on="1"/>
        <pt x="1123" y="0" on="1"/>
        <pt x="290" y="0" on="1"/>
      </contour>
      <contour>
        <pt x="934" y="1898" on="1"/>
        <pt x="1119" y="1898" on="1"/>
        <pt x="1066" y="1713" on="1"/>
        <pt x="881" y="1713" on="1"/>
      </contour>
      <contour>
        <pt x="1382" y="1898" on="1"/>
        <pt x="1567" y="1898" on="1"/>
        <pt x="1514" y="1713" on="1"/>
        <pt x="1329" y="1713" on="1"/>
      </contour>
    </TTGlyph>
    <TTGlyph name="Edotaccent" xMin="290" yMin="0" xMax="1530" yMax="1829">
      <contour>
        <pt x="290" y="0" on="1"/>
        <pt x="697" y="1421" on="1"/>
        <pt x="1530" y="1421" on="1"/>
        <pt x="1487" y="1271" on="1"/>
        <pt x="824" y="1271" on="1"/>
        <pt x="691" y="807" on="1"/>
        <pt x="1299" y="807" on="1"/>
        <pt x="1256" y="657" on="1"/>
        <pt x="648" y="657" on="1"/>
        <pt x="503" y="150" on="1"/>
        <pt x="1166" y="150" on="1"/>
        <pt x="1123" y="0" on="1"/>
      </contour>
      <contour>
        <pt x="1116" y="1829" on="1"/>
        <pt x="1326" y="1829" on="1"/>
        <pt x="1266" y="1619" on="1"/>
        <pt x="1056" y="1619" on="1"/>
      </contour>
    </TTGlyph>
    <TTGlyph name="Egrave" xMin="290" yMin="0" xMax="1530" yMax="1929">
      <contour>
        <pt x="697" y="1421" on="1"/>
        <pt x="1530" y="1421" on="1"/>
        <pt x="1487" y="1271" on="1"/>
        <pt x="824" y="1271" on="1"/>
        <pt x="691" y="807" on="1"/>
        <pt x="1299" y="807" on="1"/>
        <pt x="1256" y="657" on="1"/>
        <pt x="648" y="657" on="1"/>
        <pt x="503" y="150" on="1"/>
        <pt x="1166" y="150" on="1"/>
        <pt x="1123" y="0" on="1"/>
        <pt x="290" y="0" on="1"/>
      </contour>
      <contour>
        <pt x="1032" y="1929" on="1"/>
        <pt x="1447" y="1619" on="1"/>
        <pt x="1353" y="1511" on="1"/>
        <pt x="926" y="1806" on="1"/>
      </contour>
    </TTGlyph>
    <TTGlyph name="Emacron" xMin="290" yMin="0" xMax="1580" yMax="1697">
      <contour>
        <pt x="290" y="0" on="1"/>
        <pt x="697" y="1421" on="1"/>
        <pt x="1530" y="1421" on="1"/>
        <pt x="1487" y="1271" on="1"/>
        <pt x="824" y="1271" on="1"/>
        <pt x="691" y="807" on="1"/>
        <pt x="1299" y="807" on="1"/>
        <pt x="1256" y="657" on="1"/>
        <pt x="648" y="657" on="1"/>
        <pt x="503" y="150" on="1"/>
        <pt x="1166" y="150" on="1"/>
        <pt x="1123" y="0" on="1"/>
      </contour>
      <contour>
        <pt x="847" y="1697" on="1"/>
        <pt x="1580" y="1697" on="1"/>
        <pt x="1543" y="1568" on="1"/>
        <pt x="810" y="1568" on="1"/>
      </contour>
    </TTGlyph>
    <TTGlyph name="Eng" xMin="290" yMin="-365" xMax="1749" yMax="1483">
      <contour>
        <pt x="1428" y="-35" on="1"/>
        <pt x="1406" y="-111" on="0"/>
        <pt x="1334" y="-230" on="0"/>
        <pt x="1251" y="-302" on="0"/>
        <pt x="1152" y="-348" on="0"/>
        <pt x="1061" y="-365" on="0"/>
        <pt x="1013" y="-365" on="1"/>
        <pt x="919" y="-365" on="0"/>
        <pt x="796" y="-330" on="1"/>
        <pt x="856" y="-208" on="1"/>
        <pt x="952" y="-228" on="0"/>
        <pt x="1006" y="-228" on="1"/>
        <pt x="1205" y="-228" on="0"/>
        <pt x="1265" y="-10" on="1"/>
        <pt x="1514" y="857" on="1"/>
        <pt x="1554" y="998" on="0"/>
        <pt x="1554" y="1077" on="1"/>
        <pt x="1554" y="1239" on="0"/>
        <pt x="1420" y="1293" on="1"/>
        <pt x="1367" y="1314" on="0"/>
        <pt x="1293" y="1314" on="1"/>
        <pt x="1122" y="1314" on="0"/>
        <pt x="798" y="1178" on="1"/>
        <pt x="460" y="0" on="1"/>
        <pt x="290" y="0" on="1"/>
        <pt x="697" y="1421" on="1"/>
        <pt x="808" y="1421" on="1"/>
        <pt x="827" y="1328" on="1"/>
        <pt x="1213" y="1483" on="0"/>
        <pt x="1409" y="1483" on="1"/>
        <pt x="1577" y="1483" on="0"/>
        <pt x="1749" y="1313" on="0"/>
        <pt x="1749" y="1169" on="1"/>
        <pt x="1749" y="1126" on="0"/>
        <pt x="1742" y="1085" on="1"/>
        <pt x="1732" y="1021" on="0"/>
        <pt x="1700" y="912" on="1"/>
      </contour>
    </TTGlyph>
    <TTGlyph name="Eogonek" xMin="290" yMin="-543" xMax="1530" yMax="1421">
      <contour>
        <pt x="697" y="1421" on="1"/>
        <pt x="1530" y="1421" on="1"/>
        <pt x="1487" y="1271" on="1"/>
        <pt x="824" y="1271" on="1"/>
        <pt x="691" y="807" on="1"/>
        <pt x="1299" y="807" on="1"/>
        <pt x="1256" y="657" on="1"/>
        <pt x="648" y="657" on="1"/>
        <pt x="503" y="150" on="1"/>
        <pt x="1166" y="150" on="1"/>
        <pt x="1131" y="28" on="1"/>
        <pt x="1104" y="12" on="0"/>
        <pt x="1002" y="-47" on="0"/>
        <pt x="954" y="-76" on="0"/>
        <pt x="874" y="-125" on="0"/>
        <pt x="834" y="-155" on="0"/>
        <pt x="779" y="-200" on="0"/>
        <pt x="750" y="-237" on="0"/>
        <pt x="723" y="-281" on="0"/>
        <pt x="716" y="-304" on="1"/>
        <pt x="711" y="-324" on="0"/>
        <pt x="711" y="-338" on="1"/>
        <pt x="711" y="-371" on="0"/>
        <pt x="754" y="-410" on="0"/>
        <pt x="792" y="-410" on="1"/>
        <pt x="862" y="-410" on="0"/>
        <pt x="972" y="-351" on="1"/>
        <pt x="995" y="-441" on="1"/>
        <pt x="829" y="-543" on="0"/>
        <pt x="706" y="-543" on="1"/>
        <pt x="633" y="-543" on="0"/>
        <pt x="552" y="-468" on="0"/>
        <pt x="552" y="-405" on="1"/>
        <pt x="552" y="-373" on="0"/>
        <pt x="562" y="-340" on="1"/>
        <pt x="579" y="-281" on="0"/>
        <pt x="650" y="-176" on="0"/>
        <pt x="751" y="-90" on="0"/>
        <pt x="834" y="-33" on="0"/>
        <pt x="890" y="0" on="1"/>
        <pt x="290" y="0" on="1"/>
      </contour>
    </TTGlyph>
    <TTGlyph name="Eth" xMin="306" yMin="0" xMax="1745" yMax="1421">
      <contour>
        <pt x="742" y="1421" on="1"/>
        <pt x="1177" y="1421" on="1"/>
        <pt x="1219" y="1421" on="0"/>
        <pt x="1294" y="1417" on="0"/>
        <pt x="1415" y="1398" on="0"/>
        <pt x="1514" y="1365" on="0"/>
        <pt x="1622" y="1300" on="0"/>
        <pt x="1696" y="1212" on="0"/>
        <pt x="1745" y="1076" on="0"/>
        <pt x="1745" y="992" on="1"/>
        <pt x="1745" y="887" on="0"/>
        <pt x="1707" y="754" on="1"/>
        <pt x="1664" y="605" on="0"/>
        <pt x="1532" y="366" on="0"/>
        <pt x="1390" y="212" on="0"/>
        <pt x="1211" y="98" on="0"/>
        <pt x="1062" y="40" on="0"/>
        <pt x="883" y="7" on="0"/>
        <pt x="772" y="0" on="0"/>
        <pt x="706" y="0" on="1"/>
        <pt x="335" y="0" on="1"/>
        <pt x="524" y="658" on="1"/>
        <pt x="306" y="658" on="1"/>
        <pt x="349" y="808" on="1"/>
        <pt x="567" y="808" on="1"/>
      </contour>
      <contour>
        <pt x="869" y="1271" on="1"/>
        <pt x="737" y="808" on="1"/>
        <pt x="993" y="808" on="1"/>
        <pt x="950" y="658" on="1"/>
        <pt x="694" y="658" on="1"/>
        <pt x="548" y="150" on="1"/>
        <pt x="755" y="150" on="1"/>
        <pt x="800" y="150" on="0"/>
        <pt x="876" y="154" on="0"/>
        <pt x="980" y="168" on="0"/>
        <pt x="1069" y="191" on="0"/>
        <pt x="1174" y="234" on="0"/>
        <pt x="1263" y="292" on="0"/>
        <pt x="1356" y="379" on="0"/>
        <pt x="1432" y="487" on="0"/>
        <pt x="1501" y="634" on="0"/>
        <pt x="1526" y="720" on="1"/>
        <pt x="1556" y="823" on="0"/>
        <pt x="1556" y="916" on="1"/>
        <pt x="1556" y="974" on="0"/>
        <pt x="1532" y="1074" on="0"/>
        <pt x="1473" y="1167" on="0"/>
        <pt x="1382" y="1232" on="0"/>
        <pt x="1237" y="1271" on="0"/>
        <pt x="1145" y="1271" on="1"/>
      </contour>
    </TTGlyph>
    <TTGlyph name="Euro" xMin="195" yMin="-20" xMax="1627" yMax="1431">
      <contour>
        <pt x="417" y="504" on="1"/>
        <pt x="195" y="504" on="1"/>
        <pt x="232" y="634" on="1"/>
        <pt x="436" y="634" on="1"/>
        <pt x="437" y="636" on="0"/>
        <pt x="448" y="686" on="0"/>
        <pt x="460" y="733" on="0"/>
        <pt x="487" y="811" on="0"/>
        <pt x="504" y="848" on="1"/>
        <pt x="357" y="848" on="1"/>
        <pt x="394" y="978" on="1"/>
        <pt x="570" y="978" on="1"/>
        <pt x="695" y="1187" on="0"/>
        <pt x="1082" y="1431" on="0"/>
        <pt x="1300" y="1431" on="1"/>
        <pt x="1473" y="1431" on="0"/>
        <pt x="1627" y="1355" on="1"/>
        <pt x="1539" y="1214" on="1"/>
        <pt x="1383" y="1281" on="0"/>
        <pt x="1254" y="1281" on="1"/>
        <pt x="1108" y="1281" on="0"/>
        <pt x="835" y="1116" on="0"/>
        <pt x="737" y="978" on="1"/>
        <pt x="1188" y="978" on="1"/>
        <pt x="1151" y="848" on="1"/>
        <pt x="660" y="848" on="1"/>
        <pt x="609" y="746" on="0"/>
        <pt x="590" y="634" on="1"/>
        <pt x="1026" y="634" on="1"/>
        <pt x="989" y="504" on="1"/>
        <pt x="581" y="504" on="1"/>
        <pt x="587" y="341" on="0"/>
        <pt x="779" y="136" on="0"/>
        <pt x="957" y="136" on="1"/>
        <pt x="1095" y="136" on="0"/>
        <pt x="1264" y="196" on="1"/>
        <pt x="1275" y="70" on="1"/>
        <pt x="1063" y="-20" on="0"/>
        <pt x="874" y="-20" on="1"/>
        <pt x="656" y="-20" on="0"/>
        <pt x="415" y="237" on="0"/>
        <pt x="415" y="452" on="1"/>
        <pt x="415" y="468" on="0"/>
      </contour>
    </TTGlyph>
    <TTGlyph name="F" xMin="290" yMin="0" xMax="1520" yMax="1421">
      <contour>
        <pt x="824" y="1271" on="1"/>
        <pt x="691" y="807" on="1"/>
        <pt x="1284" y="807" on="1"/>
        <pt x="1241" y="657" on="1"/>
        <pt x="648" y="657" on="1"/>
        <pt x="460" y="0" on="1"/>
        <pt x="290" y="0" on="1"/>
        <pt x="697" y="1421" on="1"/>
        <pt x="1520" y="1421" on="1"/>
        <pt x="1477" y="1271" on="1"/>
      </contour>
    </TTGlyph>
    <TTGlyph name="G" xMin="383" yMin="-20" xMax="1752" yMax="1432">
      <contour>
        <pt x="1330" y="1432" on="1"/>
        <pt x="1569" y="1432" on="0"/>
        <pt x="1752" y="1311" on="1"/>
        <pt x="1649" y="1184" on="1"/>
        <pt x="1585" y="1224" on="0"/>
        <pt x="1399" y="1282" on="0"/>
        <pt x="1296" y="1282" on="1"/>
        <pt x="1191" y="1282" on="0"/>
        <pt x="974" y="1204" on="0"/>
        <pt x="781" y="1063" on="0"/>
        <pt x="628" y="848" on="0"/>
        <pt x="591" y="720" on="1"/>
        <pt x="564" y="624" on="0"/>
        <pt x="564" y="540" on="1"/>
        <pt x="564" y="354" on="0"/>
        <pt x="799" y="131" on="0"/>
        <pt x="1000" y="131" on="1"/>
        <pt x="1193" y="131" on="0"/>
        <pt x="1347" y="247" on="1"/>
        <pt x="1451" y="610" on="1"/>
        <pt x="1047" y="610" on="1"/>
        <pt x="1087" y="750" on="1"/>
        <pt x="1656" y="750" on="1"/>
        <pt x="1496" y="192" on="1"/>
        <pt x="1460" y="161" on="0"/>
        <pt x="1372" y="103" on="0"/>
        <pt x="1224" y="27" on="0"/>
        <pt x="1024" y="-20" on="0"/>
        <pt x="916" y="-20" on="1"/>
        <pt x="780" y="-20" on="0"/>
        <pt x="572" y="58" on="0"/>
        <pt x="446" y="197" on="0"/>
        <pt x="383" y="374" on="0"/>
        <pt x="383" y="584" on="0"/>
        <pt x="445" y="807" on="0"/>
        <pt x="558" y="1019" on="0"/>
        <pt x="729" y="1207" on="0"/>
        <pt x="934" y="1349" on="0"/>
        <pt x="1192" y="1432" on="0"/>
      </contour>
    </TTGlyph>
    <TTGlyph name="Gbreve" xMin="383" yMin="-20" xMax="1808" yMax="1882">
      <contour>
        <pt x="1028" y="1816" on="1"/>
        <pt x="1170" y="1882" on="1"/>
        <pt x="1177" y="1848" on="0"/>
        <pt x="1204" y="1788" on="0"/>
        <pt x="1249" y="1730" on="0"/>
        <pt x="1323" y="1695" on="0"/>
        <pt x="1369" y="1695" on="1"/>
        <pt x="1450" y="1695" on="0"/>
        <pt x="1636" y="1804" on="0"/>
        <pt x="1718" y="1882" on="1"/>
        <pt x="1808" y="1805" on="1"/>
        <pt x="1697" y="1698" on="0"/>
        <pt x="1432" y="1557" on="0"/>
        <pt x="1313" y="1557" on="1"/>
        <pt x="1245" y="1557" on="0"/>
        <pt x="1137" y="1602" on="0"/>
        <pt x="1070" y="1677" on="0"/>
        <pt x="1032" y="1767" on="0"/>
      </contour>
      <contour>
        <pt x="1330" y="1432" on="1"/>
        <pt x="1569" y="1432" on="0"/>
        <pt x="1752" y="1311" on="1"/>
        <pt x="1649" y="1184" on="1"/>
        <pt x="1585" y="1224" on="0"/>
        <pt x="1399" y="1282" on="0"/>
        <pt x="1296" y="1282" on="1"/>
        <pt x="1191" y="1282" on="0"/>
        <pt x="974" y="1204" on="0"/>
        <pt x="781" y="1063" on="0"/>
        <pt x="628" y="848" on="0"/>
        <pt x="591" y="720" on="1"/>
        <pt x="564" y="624" on="0"/>
        <pt x="564" y="540" on="1"/>
        <pt x="564" y="354" on="0"/>
        <pt x="799" y="131" on="0"/>
        <pt x="1000" y="131" on="1"/>
        <pt x="1193" y="131" on="0"/>
        <pt x="1347" y="247" on="1"/>
        <pt x="1451" y="610" on="1"/>
        <pt x="1047" y="610" on="1"/>
        <pt x="1087" y="750" on="1"/>
        <pt x="1656" y="750" on="1"/>
        <pt x="1496" y="192" on="1"/>
        <pt x="1460" y="161" on="0"/>
        <pt x="1372" y="103" on="0"/>
        <pt x="1224" y="27" on="0"/>
        <pt x="1024" y="-20" on="0"/>
        <pt x="916" y="-20" on="1"/>
        <pt x="780" y="-20" on="0"/>
        <pt x="571" y="57" on="0"/>
        <pt x="446" y="193" on="0"/>
        <pt x="383" y="368" on="0"/>
        <pt x="383" y="472" on="1"/>
        <pt x="383" y="577" on="0"/>
        <pt x="446" y="802" on="0"/>
        <pt x="561" y="1015" on="0"/>
        <pt x="732" y="1205" on="0"/>
        <pt x="937" y="1348" on="0"/>
        <pt x="1194" y="1432" on="0"/>
      </contour>
    </TTGlyph>
    <TTGlyph name="Gcircumflex" xMin="383" yMin="-20" xMax="1752" yMax="1932">
      <contour>
        <pt x="916" y="-20" on="1"/>
        <pt x="780" y="-20" on="0"/>
        <pt x="572" y="58" on="0"/>
        <pt x="446" y="196" on="0"/>
        <pt x="383" y="373" on="0"/>
        <pt x="383" y="478" on="1"/>
        <pt x="383" y="604" on="0"/>
        <pt x="469" y="872" on="0"/>
        <pt x="638" y="1119" on="0"/>
        <pt x="863" y="1315" on="0"/>
        <pt x="1166" y="1432" on="0"/>
        <pt x="1330" y="1432" on="1"/>
        <pt x="1569" y="1432" on="0"/>
        <pt x="1752" y="1311" on="1"/>
        <pt x="1649" y="1184" on="1"/>
        <pt x="1585" y="1224" on="0"/>
        <pt x="1399" y="1282" on="0"/>
        <pt x="1296" y="1282" on="1"/>
        <pt x="1191" y="1282" on="0"/>
        <pt x="974" y="1204" on="0"/>
        <pt x="781" y="1063" on="0"/>
        <pt x="628" y="848" on="0"/>
        <pt x="591" y="720" on="1"/>
        <pt x="564" y="624" on="0"/>
        <pt x="564" y="540" on="1"/>
        <pt x="564" y="354" on="0"/>
        <pt x="799" y="131" on="0"/>
        <pt x="1000" y="131" on="1"/>
        <pt x="1193" y="131" on="0"/>
        <pt x="1347" y="247" on="1"/>
        <pt x="1451" y="610" on="1"/>
        <pt x="1047" y="610" on="1"/>
        <pt x="1087" y="750" on="1"/>
        <pt x="1656" y="750" on="1"/>
        <pt x="1496" y="192" on="1"/>
        <pt x="1460" y="161" on="0"/>
        <pt x="1372" y="103" on="0"/>
        <pt x="1224" y="27" on="0"/>
        <pt x="1024" y="-20" on="0"/>
      </contour>
      <contour>
        <pt x="1428" y="1932" on="1"/>
        <pt x="1602" y="1646" on="1"/>
        <pt x="1484" y="1558" on="1"/>
        <pt x="1365" y="1754" on="1"/>
        <pt x="1127" y="1559" on="1"/>
        <pt x="1061" y="1637" on="1"/>
      </contour>
    </TTGlyph>
    <TTGlyph name="Gcommaaccent" xMin="383" yMin="-531" xMax="1752" yMax="1432">
      <contour>
        <pt x="916" y="-20" on="1"/>
        <pt x="780" y="-20" on="0"/>
        <pt x="572" y="58" on="0"/>
        <pt x="446" y="197" on="0"/>
        <pt x="383" y="374" on="0"/>
        <pt x="383" y="584" on="0"/>
        <pt x="445" y="807" on="0"/>
        <pt x="558" y="1019" on="0"/>
        <pt x="729" y="1207" on="0"/>
        <pt x="934" y="1349" on="0"/>
        <pt x="1192" y="1432" on="0"/>
        <pt x="1330" y="1432" on="1"/>
        <pt x="1569" y="1432" on="0"/>
        <pt x="1752" y="1311" on="1"/>
        <pt x="1649" y="1184" on="1"/>
        <pt x="1585" y="1224" on="0"/>
        <pt x="1399" y="1282" on="0"/>
        <pt x="1296" y="1282" on="1"/>
        <pt x="1191" y="1282" on="0"/>
        <pt x="974" y="1204" on="0"/>
        <pt x="781" y="1063" on="0"/>
        <pt x="628" y="848" on="0"/>
        <pt x="591" y="720" on="1"/>
        <pt x="564" y="624" on="0"/>
        <pt x="564" y="540" on="1"/>
        <pt x="564" y="354" on="0"/>
        <pt x="799" y="131" on="0"/>
        <pt x="1000" y="131" on="1"/>
        <pt x="1193" y="131" on="0"/>
        <pt x="1347" y="247" on="1"/>
        <pt x="1451" y="610" on="1"/>
        <pt x="1047" y="610" on="1"/>
        <pt x="1087" y="750" on="1"/>
        <pt x="1656" y="750" on="1"/>
        <pt x="1496" y="192" on="1"/>
        <pt x="1460" y="161" on="0"/>
        <pt x="1372" y="103" on="0"/>
        <pt x="1224" y="27" on="0"/>
        <pt x="1024" y="-20" on="0"/>
      </contour>
      <contour>
        <pt x="846" y="-141" on="1"/>
        <pt x="1026" y="-141" on="1"/>
        <pt x="756" y="-531" on="1"/>
        <pt x="576" y="-531" on="1"/>
      </contour>
    </TTGlyph>
    <TTGlyph name="Gdotaccent" xMin="383" yMin="-20" xMax="1752" yMax="1829">
      <contour>
        <pt x="1321" y="1829" on="1"/>
        <pt x="1531" y="1829" on="1"/>
        <pt x="1471" y="1619" on="1"/>
        <pt x="1261" y="1619" on="1"/>
      </contour>
      <contour>
        <pt x="916" y="-20" on="1"/>
        <pt x="780" y="-20" on="0"/>
        <pt x="572" y="58" on="0"/>
        <pt x="446" y="196" on="0"/>
        <pt x="383" y="373" on="0"/>
        <pt x="383" y="478" on="1"/>
        <pt x="383" y="604" on="0"/>
        <pt x="469" y="872" on="0"/>
        <pt x="638" y="1119" on="0"/>
        <pt x="863" y="1315" on="0"/>
        <pt x="1166" y="1432" on="0"/>
        <pt x="1330" y="1432" on="1"/>
        <pt x="1569" y="1432" on="0"/>
        <pt x="1752" y="1311" on="1"/>
        <pt x="1649" y="1184" on="1"/>
        <pt x="1585" y="1224" on="0"/>
        <pt x="1399" y="1282" on="0"/>
        <pt x="1296" y="1282" on="1"/>
        <pt x="1191" y="1282" on="0"/>
        <pt x="974" y="1204" on="0"/>
        <pt x="781" y="1063" on="0"/>
        <pt x="628" y="848" on="0"/>
        <pt x="591" y="720" on="1"/>
        <pt x="564" y="624" on="0"/>
        <pt x="564" y="540" on="1"/>
        <pt x="564" y="354" on="0"/>
        <pt x="799" y="131" on="0"/>
        <pt x="1000" y="131" on="1"/>
        <pt x="1193" y="131" on="0"/>
        <pt x="1347" y="247" on="1"/>
        <pt x="1451" y="610" on="1"/>
        <pt x="1047" y="610" on="1"/>
        <pt x="1087" y="750" on="1"/>
        <pt x="1656" y="750" on="1"/>
        <pt x="1496" y="192" on="1"/>
        <pt x="1460" y="161" on="0"/>
        <pt x="1372" y="103" on="0"/>
        <pt x="1224" y="27" on="0"/>
        <pt x="1024" y="-20" on="0"/>
      </contour>
    </TTGlyph>
    <TTGlyph name="H" xMin="290" yMin="0" xMax="1797" yMax="1421">
      <contour>
        <pt x="1627" y="1421" on="1"/>
        <pt x="1797" y="1421" on="1"/>
        <pt x="1390" y="0" on="1"/>
        <pt x="1220" y="0" on="1"/>
        <pt x="1409" y="658" on="1"/>
        <pt x="649" y="658" on="1"/>
        <pt x="460" y="0" on="1"/>
        <pt x="290" y="0" on="1"/>
        <pt x="697" y="1421" on="1"/>
        <pt x="867" y="1421" on="1"/>
        <pt x="692" y="808" on="1"/>
        <pt x="1452" y="808" on="1"/>
      </contour>
    </TTGlyph>
    <TTGlyph name="Hbar" xMin="290" yMin="0" xMax="1904" yMax="1421">
      <contour>
        <pt x="1627" y="1421" on="1"/>
        <pt x="1797" y="1421" on="1"/>
        <pt x="1754" y="1271" on="1"/>
        <pt x="1904" y="1271" on="1"/>
        <pt x="1865" y="1133" on="1"/>
        <pt x="1715" y="1133" on="1"/>
        <pt x="1390" y="0" on="1"/>
        <pt x="1220" y="0" on="1"/>
        <pt x="1409" y="658" on="1"/>
        <pt x="649" y="658" on="1"/>
        <pt x="460" y="0" on="1"/>
        <pt x="290" y="0" on="1"/>
        <pt x="615" y="1133" on="1"/>
        <pt x="465" y="1133" on="1"/>
        <pt x="504" y="1271" on="1"/>
        <pt x="654" y="1271" on="1"/>
        <pt x="697" y="1421" on="1"/>
        <pt x="867" y="1421" on="1"/>
        <pt x="824" y="1271" on="1"/>
        <pt x="1584" y="1271" on="1"/>
      </contour>
      <contour>
        <pt x="1545" y="1133" on="1"/>
        <pt x="785" y="1133" on="1"/>
        <pt x="692" y="808" on="1"/>
        <pt x="1452" y="808" on="1"/>
      </contour>
    </TTGlyph>
    <TTGlyph name="Hcircumflex" xMin="290" yMin="0" xMax="1797" yMax="1937">
      <contour>
        <pt x="1627" y="1421" on="1"/>
        <pt x="1797" y="1421" on="1"/>
        <pt x="1390" y="0" on="1"/>
        <pt x="1220" y="0" on="1"/>
        <pt x="1409" y="658" on="1"/>
        <pt x="649" y="658" on="1"/>
        <pt x="460" y="0" on="1"/>
        <pt x="290" y="0" on="1"/>
        <pt x="697" y="1421" on="1"/>
        <pt x="867" y="1421" on="1"/>
        <pt x="692" y="808" on="1"/>
        <pt x="1452" y="808" on="1"/>
      </contour>
      <contour>
        <pt x="1388" y="1937" on="1"/>
        <pt x="1562" y="1651" on="1"/>
        <pt x="1444" y="1563" on="1"/>
        <pt x="1324" y="1759" on="1"/>
        <pt x="1087" y="1564" on="1"/>
        <pt x="1022" y="1642" on="1"/>
      </contour>
    </TTGlyph>
    <TTGlyph name="I" xMin="320" yMin="0" xMax="897" yMax="1421">
      <contour>
        <pt x="727" y="1421" on="1"/>
        <pt x="897" y="1421" on="1"/>
        <pt x="490" y="0" on="1"/>
        <pt x="320" y="0" on="1"/>
      </contour>
    </TTGlyph>
    <TTGlyph name="IJ" xMin="320" yMin="-17" xMax="1880" yMax="1421">
      <contour>
        <pt x="1710" y="1421" on="1"/>
        <pt x="1880" y="1421" on="1"/>
        <pt x="1595" y="426" on="1"/>
        <pt x="1564" y="315" on="0"/>
        <pt x="1481" y="167" on="0"/>
        <pt x="1405" y="106" on="1"/>
        <pt x="1252" y="-17" on="0"/>
        <pt x="1031" y="-17" on="1"/>
        <pt x="930" y="-17" on="0"/>
        <pt x="842" y="7" on="1"/>
        <pt x="910" y="149" on="1"/>
        <pt x="973" y="133" on="0"/>
        <pt x="1046" y="133" on="1"/>
        <pt x="1107" y="133" on="0"/>
        <pt x="1210" y="158" on="0"/>
        <pt x="1281" y="193" on="0"/>
        <pt x="1341" y="249" on="0"/>
        <pt x="1375" y="295" on="0"/>
        <pt x="1405" y="360" on="0"/>
        <pt x="1416" y="393" on="0"/>
        <pt x="1423" y="417" on="1"/>
      </contour>
      <contour>
        <pt x="727" y="1421" on="1"/>
        <pt x="897" y="1421" on="1"/>
        <pt x="490" y="0" on="1"/>
        <pt x="320" y="0" on="1"/>
      </contour>
    </TTGlyph>
    <TTGlyph name="Iacute" xMin="320" yMin="0" xMax="1143" yMax="1930">
      <contour>
        <pt x="727" y="1421" on="1"/>
        <pt x="897" y="1421" on="1"/>
        <pt x="490" y="0" on="1"/>
        <pt x="320" y="0" on="1"/>
      </contour>
      <contour>
        <pt x="1108" y="1930" on="1"/>
        <pt x="1143" y="1807" on="1"/>
        <pt x="546" y="1511" on="1"/>
        <pt x="516" y="1620" on="1"/>
      </contour>
    </TTGlyph>
    <TTGlyph name="Ibreve" xMin="320" yMin="0" xMax="1241" yMax="1874">
      <contour>
        <pt x="601" y="1808" on="1"/>
        <pt x="743" y="1874" on="1"/>
        <pt x="750" y="1795" on="0"/>
        <pt x="830" y="1705" on="0"/>
        <pt x="890" y="1705" on="1"/>
        <pt x="954" y="1705" on="0"/>
        <pt x="1088" y="1792" on="0"/>
        <pt x="1170" y="1872" on="1"/>
        <pt x="1241" y="1795" on="1"/>
        <pt x="1147" y="1688" on="0"/>
        <pt x="920" y="1557" on="0"/>
        <pt x="816" y="1557" on="1"/>
        <pt x="756" y="1557" on="0"/>
        <pt x="669" y="1602" on="0"/>
        <pt x="623" y="1679" on="0"/>
        <pt x="602" y="1761" on="0"/>
      </contour>
      <contour>
        <pt x="727" y="1421" on="1"/>
        <pt x="897" y="1421" on="1"/>
        <pt x="490" y="0" on="1"/>
        <pt x="320" y="0" on="1"/>
      </contour>
    </TTGlyph>
    <TTGlyph name="Icircumflex" xMin="320" yMin="0" xMax="1118" yMax="1924">
      <contour>
        <pt x="727" y="1421" on="1"/>
        <pt x="897" y="1421" on="1"/>
        <pt x="490" y="0" on="1"/>
        <pt x="320" y="0" on="1"/>
      </contour>
      <contour>
        <pt x="944" y="1924" on="1"/>
        <pt x="1118" y="1638" on="1"/>
        <pt x="998" y="1550" on="1"/>
        <pt x="880" y="1746" on="1"/>
        <pt x="643" y="1551" on="1"/>
        <pt x="577" y="1629" on="1"/>
      </contour>
    </TTGlyph>
    <TTGlyph name="Idieresis" xMin="290" yMin="0" xMax="1185" yMax="1824">
      <contour>
        <pt x="697" y="1421" on="1"/>
        <pt x="867" y="1421" on="1"/>
        <pt x="460" y="0" on="1"/>
        <pt x="290" y="0" on="1"/>
      </contour>
      <contour>
        <pt x="611" y="1824" on="1"/>
        <pt x="796" y="1824" on="1"/>
        <pt x="743" y="1639" on="1"/>
        <pt x="558" y="1639" on="1"/>
      </contour>
      <contour>
        <pt x="1000" y="1824" on="1"/>
        <pt x="1185" y="1824" on="1"/>
        <pt x="1132" y="1639" on="1"/>
        <pt x="947" y="1639" on="1"/>
      </contour>
    </TTGlyph>
    <TTGlyph name="Idotaccent" xMin="320" yMin="0" xMax="1032" yMax="1829">
      <contour>
        <pt x="822" y="1829" on="1"/>
        <pt x="1032" y="1829" on="1"/>
        <pt x="972" y="1619" on="1"/>
        <pt x="762" y="1619" on="1"/>
      </contour>
      <contour>
        <pt x="727" y="1421" on="1"/>
        <pt x="897" y="1421" on="1"/>
        <pt x="490" y="0" on="1"/>
        <pt x="320" y="0" on="1"/>
      </contour>
    </TTGlyph>
    <TTGlyph name="Igrave" xMin="320" yMin="0" xMax="1175" yMax="1927">
      <contour>
        <pt x="727" y="1421" on="1"/>
        <pt x="897" y="1421" on="1"/>
        <pt x="490" y="0" on="1"/>
        <pt x="320" y="0" on="1"/>
      </contour>
      <contour>
        <pt x="760" y="1927" on="1"/>
        <pt x="1175" y="1617" on="1"/>
        <pt x="1081" y="1511" on="1"/>
        <pt x="653" y="1804" on="1"/>
      </contour>
    </TTGlyph>
    <TTGlyph name="Imacron" xMin="320" yMin="0" xMax="1097" yMax="1697">
      <contour>
        <pt x="687" y="1697" on="1"/>
        <pt x="1097" y="1697" on="1"/>
        <pt x="1060" y="1568" on="1"/>
        <pt x="650" y="1568" on="1"/>
      </contour>
      <contour>
        <pt x="727" y="1421" on="1"/>
        <pt x="897" y="1421" on="1"/>
        <pt x="490" y="0" on="1"/>
        <pt x="320" y="0" on="1"/>
      </contour>
    </TTGlyph>
    <TTGlyph name="Iogonek" xMin="-76" yMin="-544" xMax="897" yMax="1421">
      <contour>
        <pt x="77" y="-544" on="1"/>
        <pt x="3" y="-544" on="0"/>
        <pt x="-76" y="-469" on="0"/>
        <pt x="-76" y="-406" on="1"/>
        <pt x="-76" y="-297" on="0"/>
        <pt x="142" y="-37" on="0"/>
        <pt x="334" y="49" on="1"/>
        <pt x="727" y="1421" on="1"/>
        <pt x="897" y="1421" on="1"/>
        <pt x="499" y="30" on="1"/>
        <pt x="390" y="-21" on="0"/>
        <pt x="228" y="-124" on="0"/>
        <pt x="140" y="-210" on="0"/>
        <pt x="96" y="-274" on="0"/>
        <pt x="88" y="-303" on="1"/>
        <pt x="83" y="-323" on="0"/>
        <pt x="83" y="-337" on="1"/>
        <pt x="83" y="-371" on="0"/>
        <pt x="126" y="-412" on="0"/>
        <pt x="165" y="-412" on="1"/>
        <pt x="225" y="-412" on="0"/>
        <pt x="344" y="-352" on="1"/>
        <pt x="366" y="-442" on="1"/>
        <pt x="194" y="-544" on="0"/>
      </contour>
    </TTGlyph>
    <TTGlyph name="Itilde" xMin="320" yMin="0" xMax="1252" yMax="1866">
      <contour>
        <pt x="727" y="1421" on="1"/>
        <pt x="897" y="1421" on="1"/>
        <pt x="490" y="0" on="1"/>
        <pt x="320" y="0" on="1"/>
      </contour>
      <contour>
        <pt x="642" y="1584" on="1"/>
        <pt x="546" y="1612" on="1"/>
        <pt x="600" y="1710" on="1"/>
        <pt x="687" y="1866" on="0"/>
        <pt x="824" y="1866" on="1"/>
        <pt x="851" y="1866" on="0"/>
        <pt x="891" y="1851" on="0"/>
        <pt x="916" y="1821" on="0"/>
        <pt x="924" y="1807" on="0"/>
        <pt x="931" y="1792" on="1"/>
        <pt x="960" y="1728" on="1"/>
        <pt x="983" y="1677" on="0"/>
        <pt x="1014" y="1677" on="1"/>
        <pt x="1034" y="1677" on="0"/>
        <pt x="1078" y="1722" on="0"/>
        <pt x="1098" y="1757" on="0"/>
        <pt x="1101" y="1766" on="1"/>
        <pt x="1156" y="1864" on="1"/>
        <pt x="1252" y="1835" on="1"/>
        <pt x="1198" y="1738" on="1"/>
        <pt x="1097" y="1550" on="0"/>
        <pt x="962" y="1550" on="1"/>
        <pt x="950" y="1550" on="0"/>
        <pt x="928" y="1554" on="0"/>
        <pt x="911" y="1561" on="0"/>
        <pt x="897" y="1569" on="0"/>
        <pt x="885" y="1582" on="0"/>
        <pt x="877" y="1591" on="0"/>
        <pt x="869" y="1605" on="0"/>
        <pt x="865" y="1612" on="0"/>
        <pt x="859" y="1625" on="0"/>
        <pt x="859" y="1626" on="1"/>
        <pt x="830" y="1690" on="1"/>
        <pt x="806" y="1744" on="0"/>
        <pt x="768" y="1744" on="1"/>
        <pt x="731" y="1744" on="0"/>
        <pt x="697" y="1682" on="1"/>
      </contour>
    </TTGlyph>
    <TTGlyph name="J" xMin="112" yMin="-17" xMax="1150" yMax="1421">
      <contour>
        <pt x="980" y="1421" on="1"/>
        <pt x="1150" y="1421" on="1"/>
        <pt x="865" y="426" on="1"/>
        <pt x="834" y="315" on="0"/>
        <pt x="751" y="167" on="0"/>
        <pt x="675" y="106" on="1"/>
        <pt x="522" y="-17" on="0"/>
        <pt x="301" y="-17" on="1"/>
        <pt x="200" y="-17" on="0"/>
        <pt x="112" y="7" on="1"/>
        <pt x="180" y="149" on="1"/>
        <pt x="243" y="133" on="0"/>
        <pt x="316" y="133" on="1"/>
        <pt x="377" y="133" on="0"/>
        <pt x="480" y="158" on="0"/>
        <pt x="551" y="193" on="0"/>
        <pt x="611" y="249" on="0"/>
        <pt x="645" y="295" on="0"/>
        <pt x="675" y="360" on="0"/>
        <pt x="686" y="393" on="0"/>
        <pt x="693" y="417" on="1"/>
      </contour>
    </TTGlyph>
    <TTGlyph name="Jcircumflex" xMin="112" yMin="-17" xMax="1392" yMax="1932">
      <contour>
        <pt x="1218" y="1932" on="1"/>
        <pt x="1392" y="1646" on="1"/>
        <pt x="1274" y="1558" on="1"/>
        <pt x="1154" y="1754" on="1"/>
        <pt x="917" y="1559" on="1"/>
        <pt x="851" y="1637" on="1"/>
      </contour>
      <contour>
        <pt x="980" y="1421" on="1"/>
        <pt x="1150" y="1421" on="1"/>
        <pt x="865" y="426" on="1"/>
        <pt x="834" y="315" on="0"/>
        <pt x="751" y="167" on="0"/>
        <pt x="675" y="106" on="1"/>
        <pt x="522" y="-17" on="0"/>
        <pt x="301" y="-17" on="1"/>
        <pt x="200" y="-17" on="0"/>
        <pt x="112" y="7" on="1"/>
        <pt x="180" y="149" on="1"/>
        <pt x="243" y="133" on="0"/>
        <pt x="316" y="133" on="1"/>
        <pt x="377" y="133" on="0"/>
        <pt x="480" y="158" on="0"/>
        <pt x="551" y="193" on="0"/>
        <pt x="611" y="249" on="0"/>
        <pt x="645" y="295" on="0"/>
        <pt x="675" y="360" on="0"/>
        <pt x="686" y="393" on="0"/>
        <pt x="693" y="417" on="1"/>
      </contour>
    </TTGlyph>
    <TTGlyph name="K" xMin="290" yMin="0" xMax="1706" yMax="1421">
      <contour>
        <pt x="697" y="1421" on="1"/>
        <pt x="867" y="1421" on="1"/>
        <pt x="460" y="0" on="1"/>
        <pt x="290" y="0" on="1"/>
      </contour>
      <contour>
        <pt x="1493" y="1421" on="1"/>
        <pt x="1706" y="1421" on="1"/>
        <pt x="911" y="743" on="1"/>
        <pt x="1337" y="0" on="1"/>
        <pt x="1118" y="0" on="1"/>
        <pt x="693" y="729" on="1"/>
      </contour>
    </TTGlyph>
    <TTGlyph name="Kcommaaccent" xMin="290" yMin="-512" xMax="1706" yMax="1421">
      <contour>
        <pt x="613" y="-122" on="1"/>
        <pt x="793" y="-122" on="1"/>
        <pt x="523" y="-512" on="1"/>
        <pt x="343" y="-512" on="1"/>
      </contour>
      <contour>
        <pt x="1493" y="1421" on="1"/>
        <pt x="1706" y="1421" on="1"/>
        <pt x="911" y="743" on="1"/>
        <pt x="1337" y="0" on="1"/>
        <pt x="1118" y="0" on="1"/>
        <pt x="693" y="729" on="1"/>
      </contour>
      <contour>
        <pt x="697" y="1421" on="1"/>
        <pt x="867" y="1421" on="1"/>
        <pt x="460" y="0" on="1"/>
        <pt x="290" y="0" on="1"/>
      </contour>
    </TTGlyph>
    <TTGlyph name="L" xMin="290" yMin="0" xMax="1141" yMax="1421">
      <contour>
        <pt x="697" y="1421" on="1"/>
        <pt x="867" y="1421" on="1"/>
        <pt x="503" y="149" on="1"/>
        <pt x="1141" y="149" on="1"/>
        <pt x="1098" y="0" on="1"/>
        <pt x="290" y="0" on="1"/>
      </contour>
    </TTGlyph>
    <TTGlyph name="Lacute" xMin="290" yMin="0" xMax="1388" yMax="1976">
      <contour>
        <pt x="697" y="1421" on="1"/>
        <pt x="867" y="1421" on="1"/>
        <pt x="503" y="149" on="1"/>
        <pt x="1141" y="149" on="1"/>
        <pt x="1098" y="0" on="1"/>
        <pt x="290" y="0" on="1"/>
      </contour>
      <contour>
        <pt x="1354" y="1976" on="1"/>
        <pt x="1388" y="1853" on="1"/>
        <pt x="792" y="1558" on="1"/>
        <pt x="761" y="1666" on="1"/>
      </contour>
    </TTGlyph>
    <TTGlyph name="Lcaron" xMin="290" yMin="0" xMax="1421" yMax="1421">
      <contour>
        <pt x="697" y="1421" on="1"/>
        <pt x="867" y="1421" on="1"/>
        <pt x="503" y="149" on="1"/>
        <pt x="1141" y="149" on="1"/>
        <pt x="1098" y="0" on="1"/>
        <pt x="290" y="0" on="1"/>
      </contour>
      <contour>
        <pt x="1241" y="1421" on="1"/>
        <pt x="1421" y="1421" on="1"/>
        <pt x="1152" y="1031" on="1"/>
        <pt x="972" y="1031" on="1"/>
      </contour>
    </TTGlyph>
    <TTGlyph name="Lcommaaccent" xMin="141" yMin="-512" xMax="1141" yMax="1421">
      <contour>
        <pt x="697" y="1421" on="1"/>
        <pt x="867" y="1421" on="1"/>
        <pt x="503" y="149" on="1"/>
        <pt x="1141" y="149" on="1"/>
        <pt x="1098" y="0" on="1"/>
        <pt x="290" y="0" on="1"/>
      </contour>
      <contour>
        <pt x="411" y="-122" on="1"/>
        <pt x="591" y="-122" on="1"/>
        <pt x="321" y="-512" on="1"/>
        <pt x="141" y="-512" on="1"/>
      </contour>
    </TTGlyph>
    <TTGlyph name="Ldot" xMin="290" yMin="0" xMax="1141" yMax="1421">
      <contour>
        <pt x="697" y="1421" on="1"/>
        <pt x="867" y="1421" on="1"/>
        <pt x="503" y="149" on="1"/>
        <pt x="1141" y="149" on="1"/>
        <pt x="1098" y="0" on="1"/>
        <pt x="290" y="0" on="1"/>
      </contour>
      <contour>
        <pt x="915" y="823" on="1"/>
        <pt x="1125" y="823" on="1"/>
        <pt x="1065" y="613" on="1"/>
        <pt x="855" y="613" on="1"/>
      </contour>
    </TTGlyph>
    <TTGlyph name="Lslash" xMin="281" yMin="0" xMax="1141" yMax="1421">
      <contour>
        <pt x="697" y="1421" on="1"/>
        <pt x="867" y="1421" on="1"/>
        <pt x="697" y="826" on="1"/>
        <pt x="1000" y="976" on="1"/>
        <pt x="951" y="804" on="1"/>
        <pt x="648" y="654" on="1"/>
        <pt x="503" y="149" on="1"/>
        <pt x="1141" y="149" on="1"/>
        <pt x="1098" y="0" on="1"/>
        <pt x="290" y="0" on="1"/>
        <pt x="449" y="555" on="1"/>
        <pt x="281" y="472" on="1"/>
        <pt x="331" y="644" on="1"/>
        <pt x="498" y="727" on="1"/>
      </contour>
    </TTGlyph>
    <TTGlyph name="M" xMin="290" yMin="0" xMax="2081" yMax="1421">
      <contour>
        <pt x="697" y="1421" on="1"/>
        <pt x="937" y="1421" on="1"/>
        <pt x="1146" y="559" on="1"/>
        <pt x="1856" y="1421" on="1"/>
        <pt x="2081" y="1421" on="1"/>
        <pt x="1674" y="0" on="1"/>
        <pt x="1504" y="0" on="1"/>
        <pt x="1841" y="1177" on="1"/>
        <pt x="1184" y="407" on="1"/>
        <pt x="1014" y="407" on="1"/>
        <pt x="797" y="1177" on="1"/>
        <pt x="460" y="0" on="1"/>
        <pt x="290" y="0" on="1"/>
      </contour>
    </TTGlyph>
    <TTGlyph name="N" xMin="290" yMin="0" xMax="1856" yMax="1421">
      <contour>
        <pt x="697" y="1421" on="1"/>
        <pt x="912" y="1421" on="1"/>
        <pt x="1346" y="232" on="1"/>
        <pt x="1686" y="1421" on="1"/>
        <pt x="1856" y="1421" on="1"/>
        <pt x="1449" y="0" on="1"/>
        <pt x="1234" y="0" on="1"/>
        <pt x="802" y="1191" on="1"/>
        <pt x="460" y="0" on="1"/>
        <pt x="290" y="0" on="1"/>
      </contour>
    </TTGlyph>
    <TTGlyph name="Nacute" xMin="290" yMin="0" xMax="1856" yMax="1976">
      <contour>
        <pt x="697" y="1421" on="1"/>
        <pt x="912" y="1421" on="1"/>
        <pt x="1346" y="232" on="1"/>
        <pt x="1686" y="1421" on="1"/>
        <pt x="1856" y="1421" on="1"/>
        <pt x="1449" y="0" on="1"/>
        <pt x="1234" y="0" on="1"/>
        <pt x="802" y="1191" on="1"/>
        <pt x="460" y="0" on="1"/>
        <pt x="290" y="0" on="1"/>
      </contour>
      <contour>
        <pt x="1659" y="1976" on="1"/>
        <pt x="1693" y="1853" on="1"/>
        <pt x="1097" y="1558" on="1"/>
        <pt x="1066" y="1666" on="1"/>
      </contour>
    </TTGlyph>
    <TTGlyph name="Ncaron" xMin="290" yMin="0" xMax="1856" yMax="1932">
      <contour>
        <pt x="697" y="1421" on="1"/>
        <pt x="912" y="1421" on="1"/>
        <pt x="1346" y="232" on="1"/>
        <pt x="1686" y="1421" on="1"/>
        <pt x="1856" y="1421" on="1"/>
        <pt x="1449" y="0" on="1"/>
        <pt x="1234" y="0" on="1"/>
        <pt x="802" y="1191" on="1"/>
        <pt x="460" y="0" on="1"/>
        <pt x="290" y="0" on="1"/>
      </contour>
      <contour>
        <pt x="1353" y="1558" on="1"/>
        <pt x="1179" y="1844" on="1"/>
        <pt x="1298" y="1932" on="1"/>
        <pt x="1417" y="1736" on="1"/>
        <pt x="1654" y="1931" on="1"/>
        <pt x="1719" y="1853" on="1"/>
      </contour>
    </TTGlyph>
    <TTGlyph name="Ncommaaccent" xMin="290" yMin="-512" xMax="1856" yMax="1421">
      <contour>
        <pt x="726" y="-122" on="1"/>
        <pt x="906" y="-122" on="1"/>
        <pt x="636" y="-512" on="1"/>
        <pt x="456" y="-512" on="1"/>
      </contour>
      <contour>
        <pt x="697" y="1421" on="1"/>
        <pt x="912" y="1421" on="1"/>
        <pt x="1346" y="232" on="1"/>
        <pt x="1686" y="1421" on="1"/>
        <pt x="1856" y="1421" on="1"/>
        <pt x="1449" y="0" on="1"/>
        <pt x="1234" y="0" on="1"/>
        <pt x="802" y="1191" on="1"/>
        <pt x="460" y="0" on="1"/>
        <pt x="290" y="0" on="1"/>
      </contour>
    </TTGlyph>
    <TTGlyph name="Ntilde" xMin="290" yMin="0" xMax="1856" yMax="1878">
      <contour>
        <pt x="1271" y="1876" on="1"/>
        <pt x="1315" y="1876" on="0"/>
        <pt x="1387" y="1839" on="0"/>
        <pt x="1433" y="1786" on="0"/>
        <pt x="1472" y="1733" on="0"/>
        <pt x="1514" y="1696" on="0"/>
        <pt x="1537" y="1696" on="1"/>
        <pt x="1551" y="1696" on="0"/>
        <pt x="1577" y="1706" on="0"/>
        <pt x="1597" y="1719" on="0"/>
        <pt x="1620" y="1746" on="0"/>
        <pt x="1634" y="1765" on="0"/>
        <pt x="1656" y="1805" on="0"/>
        <pt x="1665" y="1824" on="0"/>
        <pt x="1687" y="1871" on="0"/>
        <pt x="1691" y="1878" on="1"/>
        <pt x="1794" y="1861" on="1"/>
        <pt x="1790" y="1853" on="0"/>
        <pt x="1763" y="1796" on="0"/>
        <pt x="1752" y="1773" on="0"/>
        <pt x="1724" y="1720" on="0"/>
        <pt x="1707" y="1695" on="0"/>
        <pt x="1675" y="1651" on="0"/>
        <pt x="1650" y="1629" on="0"/>
        <pt x="1613" y="1599" on="0"/>
        <pt x="1577" y="1585" on="0"/>
        <pt x="1533" y="1574" on="0"/>
        <pt x="1509" y="1574" on="1"/>
        <pt x="1465" y="1574" on="0"/>
        <pt x="1393" y="1611" on="0"/>
        <pt x="1347" y="1664" on="0"/>
        <pt x="1308" y="1717" on="0"/>
        <pt x="1266" y="1754" on="0"/>
        <pt x="1243" y="1754" on="1"/>
        <pt x="1227" y="1754" on="0"/>
        <pt x="1200" y="1744" on="0"/>
        <pt x="1174" y="1719" on="0"/>
        <pt x="1156" y="1699" on="0"/>
        <pt x="1132" y="1656" on="0"/>
        <pt x="1120" y="1634" on="0"/>
        <pt x="1095" y="1581" on="0"/>
        <pt x="1091" y="1572" on="1"/>
        <pt x="988" y="1589" on="1"/>
        <pt x="990" y="1593" on="0"/>
        <pt x="1029" y="1676" on="0"/>
        <pt x="1040" y="1696" on="0"/>
        <pt x="1080" y="1767" on="0"/>
        <pt x="1102" y="1791" on="0"/>
        <pt x="1148" y="1840" on="0"/>
        <pt x="1187" y="1859" on="0"/>
        <pt x="1241" y="1876" on="0"/>
      </contour>
      <contour>
        <pt x="697" y="1421" on="1"/>
        <pt x="912" y="1421" on="1"/>
        <pt x="1346" y="232" on="1"/>
        <pt x="1686" y="1421" on="1"/>
        <pt x="1856" y="1421" on="1"/>
        <pt x="1449" y="0" on="1"/>
        <pt x="1234" y="0" on="1"/>
        <pt x="802" y="1191" on="1"/>
        <pt x="460" y="0" on="1"/>
        <pt x="290" y="0" on="1"/>
      </contour>
    </TTGlyph>
    <TTGlyph name="O" xMin="380" yMin="-15" xMax="1796" yMax="1436">
      <contour>
        <pt x="1296" y="1436" on="1"/>
        <pt x="1526" y="1436" on="0"/>
        <pt x="1796" y="1186" on="0"/>
        <pt x="1796" y="966" on="1"/>
        <pt x="1796" y="854" on="0"/>
        <pt x="1759" y="727" on="1"/>
        <pt x="1664" y="397" on="0"/>
        <pt x="1168" y="-15" on="0"/>
        <pt x="873" y="-15" on="1"/>
        <pt x="769" y="-15" on="0"/>
        <pt x="592" y="44" on="0"/>
        <pt x="457" y="159" on="0"/>
        <pt x="380" y="342" on="0"/>
        <pt x="380" y="458" on="1"/>
        <pt x="380" y="573" on="0"/>
        <pt x="418" y="707" on="1"/>
        <pt x="513" y="1037" on="0"/>
        <pt x="1004" y="1436" on="0"/>
      </contour>
      <contour>
        <pt x="1244" y="1287" on="1"/>
        <pt x="1153" y="1287" on="0"/>
        <pt x="965" y="1219" on="0"/>
        <pt x="787" y="1088" on="0"/>
        <pt x="639" y="867" on="0"/>
        <pt x="599" y="728" on="1"/>
        <pt x="566" y="611" on="0"/>
        <pt x="566" y="514" on="1"/>
        <pt x="566" y="337" on="0"/>
        <pt x="762" y="134" on="0"/>
        <pt x="928" y="134" on="1"/>
        <pt x="999" y="134" on="0"/>
        <pt x="1148" y="176" on="0"/>
        <pt x="1300" y="267" on="0"/>
        <pt x="1433" y="399" on="0"/>
        <pt x="1546" y="593" on="0"/>
        <pt x="1579" y="709" on="1"/>
        <pt x="1612" y="826" on="0"/>
        <pt x="1612" y="918" on="1"/>
        <pt x="1612" y="993" on="0"/>
        <pt x="1571" y="1117" on="0"/>
        <pt x="1502" y="1202" on="0"/>
        <pt x="1407" y="1260" on="0"/>
        <pt x="1302" y="1287" on="0"/>
      </contour>
    </TTGlyph>
    <TTGlyph name="OE" xMin="376" yMin="0" xMax="2245" yMax="1421">
      <contour>
        <pt x="1414" y="1271" on="1"/>
        <pt x="1357" y="1271" on="1"/>
        <pt x="1232" y="1271" on="0"/>
        <pt x="1167" y="1261" on="1"/>
        <pt x="959" y="1230" on="0"/>
        <pt x="653" y="933" on="0"/>
        <pt x="586" y="701" on="1"/>
        <pt x="556" y="597" on="0"/>
        <pt x="556" y="509" on="1"/>
        <pt x="556" y="294" on="0"/>
        <pt x="722" y="199" on="1"/>
        <pt x="775" y="168" on="0"/>
        <pt x="886" y="150" on="0"/>
        <pt x="967" y="150" on="1"/>
        <pt x="1093" y="150" on="1"/>
      </contour>
      <contour>
        <pt x="742" y="1224" on="1"/>
        <pt x="809" y="1278" on="0"/>
        <pt x="964" y="1355" on="0"/>
        <pt x="1097" y="1395" on="0"/>
        <pt x="1267" y="1416" on="0"/>
        <pt x="1384" y="1421" on="0"/>
        <pt x="1469" y="1421" on="1"/>
        <pt x="2245" y="1421" on="1"/>
        <pt x="2202" y="1271" on="1"/>
        <pt x="1584" y="1271" on="1"/>
        <pt x="1451" y="807" on="1"/>
        <pt x="2014" y="807" on="1"/>
        <pt x="1971" y="657" on="1"/>
        <pt x="1408" y="657" on="1"/>
        <pt x="1263" y="150" on="1"/>
        <pt x="1881" y="150" on="1"/>
        <pt x="1838" y="0" on="1"/>
        <pt x="973" y="0" on="1"/>
        <pt x="851" y="0" on="0"/>
        <pt x="669" y="23" on="0"/>
        <pt x="596" y="58" on="1"/>
        <pt x="376" y="165" on="0"/>
        <pt x="376" y="443" on="1"/>
        <pt x="376" y="561" on="0"/>
        <pt x="417" y="703" on="1"/>
        <pt x="514" y="1041" on="0"/>
      </contour>
    </TTGlyph>
    <TTGlyph name="Oacute" xMin="380" yMin="-15" xMax="1796" yMax="1930">
      <contour>
        <pt x="1296" y="1436" on="1"/>
        <pt x="1526" y="1436" on="0"/>
        <pt x="1796" y="1186" on="0"/>
        <pt x="1796" y="966" on="1"/>
        <pt x="1796" y="854" on="0"/>
        <pt x="1759" y="727" on="1"/>
        <pt x="1664" y="397" on="0"/>
        <pt x="1168" y="-15" on="0"/>
        <pt x="873" y="-15" on="1"/>
        <pt x="769" y="-15" on="0"/>
        <pt x="592" y="44" on="0"/>
        <pt x="457" y="159" on="0"/>
        <pt x="380" y="342" on="0"/>
        <pt x="380" y="458" on="1"/>
        <pt x="380" y="573" on="0"/>
        <pt x="418" y="707" on="1"/>
        <pt x="513" y="1037" on="0"/>
        <pt x="1004" y="1436" on="0"/>
      </contour>
      <contour>
        <pt x="1579" y="709" on="1"/>
        <pt x="1611" y="822" on="0"/>
        <pt x="1611" y="917" on="1"/>
        <pt x="1611" y="1010" on="0"/>
        <pt x="1550" y="1156" on="0"/>
        <pt x="1445" y="1243" on="0"/>
        <pt x="1315" y="1287" on="0"/>
        <pt x="1241" y="1287" on="1"/>
        <pt x="1171" y="1287" on="0"/>
        <pt x="1024" y="1246" on="0"/>
        <pt x="873" y="1157" on="0"/>
        <pt x="742" y="1029" on="0"/>
        <pt x="631" y="841" on="0"/>
        <pt x="599" y="728" on="1"/>
        <pt x="566" y="611" on="0"/>
        <pt x="566" y="514" on="1"/>
        <pt x="566" y="337" on="0"/>
        <pt x="762" y="134" on="0"/>
        <pt x="928" y="134" on="1"/>
        <pt x="999" y="134" on="0"/>
        <pt x="1148" y="176" on="0"/>
        <pt x="1300" y="267" on="0"/>
        <pt x="1433" y="399" on="0"/>
        <pt x="1546" y="593" on="0"/>
      </contour>
      <contour>
        <pt x="1660" y="1930" on="1"/>
        <pt x="1695" y="1807" on="1"/>
        <pt x="1098" y="1511" on="1"/>
        <pt x="1068" y="1620" on="1"/>
      </contour>
    </TTGlyph>
    <TTGlyph name="Obreve" xMin="380" yMin="-15" xMax="1824" yMax="1882">
      <contour>
        <pt x="1044" y="1816" on="1"/>
        <pt x="1186" y="1882" on="1"/>
        <pt x="1193" y="1848" on="0"/>
        <pt x="1219" y="1788" on="0"/>
        <pt x="1264" y="1730" on="0"/>
        <pt x="1338" y="1695" on="0"/>
        <pt x="1384" y="1695" on="1"/>
        <pt x="1465" y="1695" on="0"/>
        <pt x="1651" y="1804" on="0"/>
        <pt x="1733" y="1882" on="1"/>
        <pt x="1824" y="1805" on="1"/>
        <pt x="1714" y="1699" on="0"/>
        <pt x="1447" y="1557" on="0"/>
        <pt x="1328" y="1557" on="1"/>
        <pt x="1260" y="1557" on="0"/>
        <pt x="1152" y="1602" on="0"/>
        <pt x="1085" y="1677" on="0"/>
        <pt x="1048" y="1767" on="0"/>
      </contour>
      <contour>
        <pt x="1579" y="709" on="1"/>
        <pt x="1611" y="822" on="0"/>
        <pt x="1611" y="918" on="1"/>
        <pt x="1611" y="1099" on="0"/>
        <pt x="1398" y="1287" on="0"/>
        <pt x="1241" y="1287" on="1"/>
        <pt x="1171" y="1287" on="0"/>
        <pt x="1024" y="1246" on="0"/>
        <pt x="873" y="1157" on="0"/>
        <pt x="742" y="1029" on="0"/>
        <pt x="631" y="841" on="0"/>
        <pt x="599" y="728" on="1"/>
        <pt x="566" y="611" on="0"/>
        <pt x="566" y="514" on="1"/>
        <pt x="566" y="337" on="0"/>
        <pt x="762" y="134" on="0"/>
        <pt x="928" y="134" on="1"/>
        <pt x="999" y="134" on="0"/>
        <pt x="1148" y="176" on="0"/>
        <pt x="1300" y="267" on="0"/>
        <pt x="1433" y="399" on="0"/>
        <pt x="1546" y="593" on="0"/>
      </contour>
      <contour>
        <pt x="1296" y="1436" on="1"/>
        <pt x="1526" y="1436" on="0"/>
        <pt x="1796" y="1186" on="0"/>
        <pt x="1796" y="966" on="1"/>
        <pt x="1796" y="854" on="0"/>
        <pt x="1759" y="727" on="1"/>
        <pt x="1664" y="397" on="0"/>
        <pt x="1168" y="-15" on="0"/>
        <pt x="873" y="-15" on="1"/>
        <pt x="769" y="-15" on="0"/>
        <pt x="592" y="44" on="0"/>
        <pt x="457" y="159" on="0"/>
        <pt x="380" y="342" on="0"/>
        <pt x="380" y="458" on="1"/>
        <pt x="380" y="573" on="0"/>
        <pt x="418" y="707" on="1"/>
        <pt x="513" y="1037" on="0"/>
        <pt x="1004" y="1436" on="0"/>
      </contour>
    </TTGlyph>
    <TTGlyph name="Ocircumflex" xMin="380" yMin="-15" xMax="1796" yMax="1924">
      <contour>
        <pt x="1296" y="1436" on="1"/>
        <pt x="1526" y="1436" on="0"/>
        <pt x="1796" y="1186" on="0"/>
        <pt x="1796" y="966" on="1"/>
        <pt x="1796" y="854" on="0"/>
        <pt x="1759" y="727" on="1"/>
        <pt x="1664" y="397" on="0"/>
        <pt x="1168" y="-15" on="0"/>
        <pt x="873" y="-15" on="1"/>
        <pt x="769" y="-15" on="0"/>
        <pt x="592" y="44" on="0"/>
        <pt x="457" y="159" on="0"/>
        <pt x="380" y="342" on="0"/>
        <pt x="380" y="458" on="1"/>
        <pt x="380" y="573" on="0"/>
        <pt x="418" y="707" on="1"/>
        <pt x="513" y="1037" on="0"/>
        <pt x="1004" y="1436" on="0"/>
      </contour>
      <contour>
        <pt x="1579" y="709" on="1"/>
        <pt x="1611" y="822" on="0"/>
        <pt x="1611" y="917" on="1"/>
        <pt x="1611" y="1010" on="0"/>
        <pt x="1550" y="1156" on="0"/>
        <pt x="1445" y="1243" on="0"/>
        <pt x="1315" y="1287" on="0"/>
        <pt x="1241" y="1287" on="1"/>
        <pt x="1171" y="1287" on="0"/>
        <pt x="1024" y="1246" on="0"/>
        <pt x="873" y="1157" on="0"/>
        <pt x="742" y="1029" on="0"/>
        <pt x="631" y="841" on="0"/>
        <pt x="599" y="728" on="1"/>
        <pt x="566" y="611" on="0"/>
        <pt x="566" y="514" on="1"/>
        <pt x="566" y="337" on="0"/>
        <pt x="762" y="134" on="0"/>
        <pt x="928" y="134" on="1"/>
        <pt x="999" y="134" on="0"/>
        <pt x="1148" y="176" on="0"/>
        <pt x="1300" y="267" on="0"/>
        <pt x="1433" y="399" on="0"/>
        <pt x="1546" y="593" on="0"/>
      </contour>
      <contour>
        <pt x="1464" y="1924" on="1"/>
        <pt x="1638" y="1638" on="1"/>
        <pt x="1519" y="1550" on="1"/>
        <pt x="1400" y="1746" on="1"/>
        <pt x="1163" y="1551" on="1"/>
        <pt x="1097" y="1629" on="1"/>
      </contour>
    </TTGlyph>
    <TTGlyph name="Odieresis" xMin="380" yMin="-15" xMax="1796" yMax="1898">
      <contour>
        <pt x="1296" y="1436" on="1"/>
        <pt x="1526" y="1436" on="0"/>
        <pt x="1796" y="1186" on="0"/>
        <pt x="1796" y="966" on="1"/>
        <pt x="1796" y="854" on="0"/>
        <pt x="1759" y="727" on="1"/>
        <pt x="1664" y="397" on="0"/>
        <pt x="1168" y="-15" on="0"/>
        <pt x="873" y="-15" on="1"/>
        <pt x="769" y="-15" on="0"/>
        <pt x="592" y="44" on="0"/>
        <pt x="457" y="159" on="0"/>
        <pt x="380" y="342" on="0"/>
        <pt x="380" y="458" on="1"/>
        <pt x="380" y="573" on="0"/>
        <pt x="418" y="707" on="1"/>
        <pt x="513" y="1037" on="0"/>
        <pt x="1004" y="1436" on="0"/>
      </contour>
      <contour>
        <pt x="1579" y="709" on="1"/>
        <pt x="1611" y="822" on="0"/>
        <pt x="1611" y="917" on="1"/>
        <pt x="1611" y="1010" on="0"/>
        <pt x="1550" y="1156" on="0"/>
        <pt x="1445" y="1243" on="0"/>
        <pt x="1315" y="1287" on="0"/>
        <pt x="1241" y="1287" on="1"/>
        <pt x="1171" y="1287" on="0"/>
        <pt x="1024" y="1246" on="0"/>
        <pt x="873" y="1157" on="0"/>
        <pt x="742" y="1029" on="0"/>
        <pt x="631" y="841" on="0"/>
        <pt x="599" y="728" on="1"/>
        <pt x="566" y="611" on="0"/>
        <pt x="566" y="514" on="1"/>
        <pt x="566" y="337" on="0"/>
        <pt x="762" y="134" on="0"/>
        <pt x="928" y="134" on="1"/>
        <pt x="999" y="134" on="0"/>
        <pt x="1148" y="176" on="0"/>
        <pt x="1300" y="267" on="0"/>
        <pt x="1433" y="399" on="0"/>
        <pt x="1546" y="593" on="0"/>
      </contour>
      <contour>
        <pt x="1120" y="1898" on="1"/>
        <pt x="1305" y="1898" on="1"/>
        <pt x="1252" y="1713" on="1"/>
        <pt x="1067" y="1713" on="1"/>
      </contour>
      <contour>
        <pt x="1569" y="1898" on="1"/>
        <pt x="1754" y="1898" on="1"/>
        <pt x="1701" y="1713" on="1"/>
        <pt x="1516" y="1713" on="1"/>
      </contour>
    </TTGlyph>
    <TTGlyph name="Ograve" xMin="380" yMin="-15" xMax="1796" yMax="1932">
      <contour>
        <pt x="1296" y="1436" on="1"/>
        <pt x="1526" y="1436" on="0"/>
        <pt x="1796" y="1186" on="0"/>
        <pt x="1796" y="966" on="1"/>
        <pt x="1796" y="854" on="0"/>
        <pt x="1759" y="727" on="1"/>
        <pt x="1664" y="397" on="0"/>
        <pt x="1168" y="-15" on="0"/>
        <pt x="873" y="-15" on="1"/>
        <pt x="769" y="-15" on="0"/>
        <pt x="592" y="44" on="0"/>
        <pt x="457" y="159" on="0"/>
        <pt x="380" y="342" on="0"/>
        <pt x="380" y="458" on="1"/>
        <pt x="380" y="573" on="0"/>
        <pt x="418" y="707" on="1"/>
        <pt x="513" y="1037" on="0"/>
        <pt x="1004" y="1436" on="0"/>
      </contour>
      <contour>
        <pt x="1579" y="709" on="1"/>
        <pt x="1611" y="822" on="0"/>
        <pt x="1611" y="917" on="1"/>
        <pt x="1611" y="1010" on="0"/>
        <pt x="1550" y="1156" on="0"/>
        <pt x="1445" y="1243" on="0"/>
        <pt x="1315" y="1287" on="0"/>
        <pt x="1241" y="1287" on="1"/>
        <pt x="1171" y="1287" on="0"/>
        <pt x="1024" y="1246" on="0"/>
        <pt x="873" y="1157" on="0"/>
        <pt x="742" y="1029" on="0"/>
        <pt x="631" y="841" on="0"/>
        <pt x="599" y="728" on="1"/>
        <pt x="566" y="611" on="0"/>
        <pt x="566" y="514" on="1"/>
        <pt x="566" y="337" on="0"/>
        <pt x="762" y="134" on="0"/>
        <pt x="928" y="134" on="1"/>
        <pt x="999" y="134" on="0"/>
        <pt x="1148" y="176" on="0"/>
        <pt x="1300" y="267" on="0"/>
        <pt x="1433" y="399" on="0"/>
        <pt x="1546" y="593" on="0"/>
      </contour>
      <contour>
        <pt x="1291" y="1932" on="1"/>
        <pt x="1706" y="1622" on="1"/>
        <pt x="1612" y="1514" on="1"/>
        <pt x="1185" y="1809" on="1"/>
      </contour>
    </TTGlyph>
    <TTGlyph name="Ohungarumlaut" xMin="380" yMin="-15" xMax="2064" yMax="1994">
      <contour>
        <pt x="2016" y="1994" on="1"/>
        <pt x="2064" y="1878" on="1"/>
        <pt x="1482" y="1539" on="1"/>
        <pt x="1440" y="1641" on="1"/>
      </contour>
      <contour>
        <pt x="1496" y="1994" on="1"/>
        <pt x="1544" y="1878" on="1"/>
        <pt x="962" y="1539" on="1"/>
        <pt x="920" y="1641" on="1"/>
      </contour>
      <contour>
        <pt x="1579" y="709" on="1"/>
        <pt x="1611" y="822" on="0"/>
        <pt x="1611" y="918" on="1"/>
        <pt x="1611" y="1099" on="0"/>
        <pt x="1398" y="1287" on="0"/>
        <pt x="1241" y="1287" on="1"/>
        <pt x="1171" y="1287" on="0"/>
        <pt x="1024" y="1246" on="0"/>
        <pt x="873" y="1157" on="0"/>
        <pt x="742" y="1029" on="0"/>
        <pt x="631" y="841" on="0"/>
        <pt x="599" y="728" on="1"/>
        <pt x="566" y="611" on="0"/>
        <pt x="566" y="514" on="1"/>
        <pt x="566" y="337" on="0"/>
        <pt x="762" y="134" on="0"/>
        <pt x="928" y="134" on="1"/>
        <pt x="999" y="134" on="0"/>
        <pt x="1148" y="176" on="0"/>
        <pt x="1300" y="267" on="0"/>
        <pt x="1433" y="399" on="0"/>
        <pt x="1546" y="593" on="0"/>
      </contour>
      <contour>
        <pt x="1296" y="1436" on="1"/>
        <pt x="1526" y="1436" on="0"/>
        <pt x="1796" y="1186" on="0"/>
        <pt x="1796" y="966" on="1"/>
        <pt x="1796" y="854" on="0"/>
        <pt x="1759" y="727" on="1"/>
        <pt x="1664" y="397" on="0"/>
        <pt x="1168" y="-15" on="0"/>
        <pt x="873" y="-15" on="1"/>
        <pt x="769" y="-15" on="0"/>
        <pt x="592" y="44" on="0"/>
        <pt x="457" y="159" on="0"/>
        <pt x="380" y="342" on="0"/>
        <pt x="380" y="458" on="1"/>
        <pt x="380" y="573" on="0"/>
        <pt x="418" y="707" on="1"/>
        <pt x="513" y="1037" on="0"/>
        <pt x="1004" y="1436" on="0"/>
      </contour>
    </TTGlyph>
    <TTGlyph name="Omacron" xMin="380" yMin="-15" xMax="1796" yMax="1697">
      <contour>
        <pt x="1579" y="709" on="1"/>
        <pt x="1611" y="822" on="0"/>
        <pt x="1611" y="918" on="1"/>
        <pt x="1611" y="1099" on="0"/>
        <pt x="1398" y="1287" on="0"/>
        <pt x="1241" y="1287" on="1"/>
        <pt x="1171" y="1287" on="0"/>
        <pt x="1024" y="1246" on="0"/>
        <pt x="873" y="1157" on="0"/>
        <pt x="742" y="1029" on="0"/>
        <pt x="631" y="841" on="0"/>
        <pt x="599" y="728" on="1"/>
        <pt x="566" y="611" on="0"/>
        <pt x="566" y="514" on="1"/>
        <pt x="566" y="337" on="0"/>
        <pt x="762" y="134" on="0"/>
        <pt x="928" y="134" on="1"/>
        <pt x="999" y="134" on="0"/>
        <pt x="1148" y="176" on="0"/>
        <pt x="1300" y="267" on="0"/>
        <pt x="1433" y="399" on="0"/>
        <pt x="1546" y="593" on="0"/>
      </contour>
      <contour>
        <pt x="1296" y="1436" on="1"/>
        <pt x="1526" y="1436" on="0"/>
        <pt x="1796" y="1186" on="0"/>
        <pt x="1796" y="966" on="1"/>
        <pt x="1796" y="854" on="0"/>
        <pt x="1759" y="727" on="1"/>
        <pt x="1664" y="397" on="0"/>
        <pt x="1168" y="-15" on="0"/>
        <pt x="873" y="-15" on="1"/>
        <pt x="769" y="-15" on="0"/>
        <pt x="592" y="44" on="0"/>
        <pt x="457" y="159" on="0"/>
        <pt x="380" y="342" on="0"/>
        <pt x="380" y="458" on="1"/>
        <pt x="380" y="573" on="0"/>
        <pt x="418" y="707" on="1"/>
        <pt x="513" y="1037" on="0"/>
        <pt x="1004" y="1436" on="0"/>
      </contour>
      <contour>
        <pt x="1019" y="1697" on="1"/>
        <pt x="1759" y="1697" on="1"/>
        <pt x="1722" y="1568" on="1"/>
        <pt x="982" y="1568" on="1"/>
      </contour>
    </TTGlyph>
    <TTGlyph name="Oslash" xMin="174" yMin="-15" xMax="2004" yMax="1436">
      <contour>
        <pt x="1296" y="1436" on="1"/>
        <pt x="1433" y="1436" on="0"/>
        <pt x="1661" y="1335" on="0"/>
        <pt x="1726" y="1233" on="1"/>
        <pt x="1960" y="1409" on="1"/>
        <pt x="2004" y="1344" on="1"/>
        <pt x="1761" y="1162" on="1"/>
        <pt x="1795" y="1073" on="0"/>
        <pt x="1795" y="966" on="1"/>
        <pt x="1795" y="850" on="0"/>
        <pt x="1759" y="727" on="1"/>
        <pt x="1664" y="397" on="0"/>
        <pt x="1168" y="-15" on="0"/>
        <pt x="873" y="-15" on="1"/>
        <pt x="813" y="-15" on="0"/>
        <pt x="703" y="5" on="0"/>
        <pt x="626" y="33" on="0"/>
        <pt x="554" y="78" on="0"/>
        <pt x="514" y="109" on="0"/>
        <pt x="472" y="156" on="0"/>
        <pt x="463" y="169" on="0"/>
        <pt x="454" y="182" on="1"/>
        <pt x="216" y="5" on="1"/>
        <pt x="174" y="70" on="1"/>
        <pt x="417" y="252" on="1"/>
        <pt x="380" y="341" on="0"/>
        <pt x="380" y="457" on="1"/>
        <pt x="380" y="576" on="0"/>
        <pt x="418" y="707" on="1"/>
        <pt x="513" y="1037" on="0"/>
        <pt x="1004" y="1436" on="0"/>
      </contour>
      <contour>
        <pt x="1566" y="1114" on="1"/>
        <pt x="1520" y="1198" on="0"/>
        <pt x="1351" y="1287" on="0"/>
        <pt x="1244" y="1287" on="1"/>
        <pt x="1153" y="1287" on="0"/>
        <pt x="965" y="1219" on="0"/>
        <pt x="787" y="1088" on="0"/>
        <pt x="639" y="867" on="0"/>
        <pt x="599" y="728" on="1"/>
        <pt x="566" y="616" on="0"/>
        <pt x="566" y="513" on="1"/>
        <pt x="566" y="438" on="0"/>
        <pt x="584" y="377" on="1"/>
      </contour>
      <contour>
        <pt x="928" y="134" on="1"/>
        <pt x="999" y="134" on="0"/>
        <pt x="1148" y="176" on="0"/>
        <pt x="1300" y="267" on="0"/>
        <pt x="1433" y="399" on="0"/>
        <pt x="1546" y="593" on="0"/>
        <pt x="1579" y="709" on="1"/>
        <pt x="1612" y="826" on="0"/>
        <pt x="1612" y="919" on="1"/>
        <pt x="1612" y="981" on="0"/>
        <pt x="1597" y="1038" on="1"/>
        <pt x="615" y="302" on="1"/>
        <pt x="661" y="220" on="0"/>
        <pt x="824" y="134" on="0"/>
      </contour>
    </TTGlyph>
    <TTGlyph name="Otilde" xMin="380" yMin="-15" xMax="1811" yMax="1878">
      <contour>
        <pt x="1708" y="1878" on="1"/>
        <pt x="1811" y="1861" on="1"/>
        <pt x="1807" y="1853" on="0"/>
        <pt x="1780" y="1796" on="0"/>
        <pt x="1769" y="1773" on="0"/>
        <pt x="1741" y="1720" on="0"/>
        <pt x="1724" y="1695" on="0"/>
        <pt x="1692" y="1651" on="0"/>
        <pt x="1667" y="1629" on="0"/>
        <pt x="1630" y="1599" on="0"/>
        <pt x="1594" y="1585" on="0"/>
        <pt x="1550" y="1574" on="0"/>
        <pt x="1526" y="1574" on="1"/>
        <pt x="1482" y="1574" on="0"/>
        <pt x="1410" y="1611" on="0"/>
        <pt x="1364" y="1664" on="0"/>
        <pt x="1325" y="1717" on="0"/>
        <pt x="1283" y="1754" on="0"/>
        <pt x="1260" y="1754" on="1"/>
        <pt x="1244" y="1754" on="0"/>
        <pt x="1217" y="1744" on="0"/>
        <pt x="1191" y="1719" on="0"/>
        <pt x="1173" y="1699" on="0"/>
        <pt x="1149" y="1656" on="0"/>
        <pt x="1137" y="1634" on="0"/>
        <pt x="1112" y="1581" on="0"/>
        <pt x="1108" y="1572" on="1"/>
        <pt x="1005" y="1589" on="1"/>
        <pt x="1009" y="1598" on="0"/>
        <pt x="1036" y="1653" on="0"/>
        <pt x="1047" y="1678" on="0"/>
        <pt x="1075" y="1729" on="0"/>
        <pt x="1092" y="1755" on="0"/>
        <pt x="1123" y="1799" on="0"/>
        <pt x="1149" y="1821" on="0"/>
        <pt x="1185" y="1851" on="0"/>
        <pt x="1221" y="1865" on="0"/>
        <pt x="1265" y="1876" on="0"/>
        <pt x="1289" y="1876" on="1"/>
        <pt x="1333" y="1876" on="0"/>
        <pt x="1405" y="1839" on="0"/>
        <pt x="1451" y="1786" on="0"/>
        <pt x="1490" y="1733" on="0"/>
        <pt x="1532" y="1696" on="0"/>
        <pt x="1555" y="1696" on="1"/>
        <pt x="1571" y="1696" on="0"/>
        <pt x="1598" y="1706" on="0"/>
        <pt x="1625" y="1732" on="0"/>
        <pt x="1643" y="1750" on="0"/>
        <pt x="1668" y="1795" on="0"/>
        <pt x="1678" y="1815" on="0"/>
        <pt x="1705" y="1871" on="0"/>
      </contour>
      <contour>
        <pt x="1579" y="709" on="1"/>
        <pt x="1611" y="822" on="0"/>
        <pt x="1611" y="918" on="1"/>
        <pt x="1611" y="1099" on="0"/>
        <pt x="1398" y="1287" on="0"/>
        <pt x="1241" y="1287" on="1"/>
        <pt x="1171" y="1287" on="0"/>
        <pt x="1024" y="1246" on="0"/>
        <pt x="873" y="1157" on="0"/>
        <pt x="742" y="1029" on="0"/>
        <pt x="631" y="841" on="0"/>
        <pt x="599" y="728" on="1"/>
        <pt x="566" y="611" on="0"/>
        <pt x="566" y="514" on="1"/>
        <pt x="566" y="337" on="0"/>
        <pt x="762" y="134" on="0"/>
        <pt x="928" y="134" on="1"/>
        <pt x="999" y="134" on="0"/>
        <pt x="1148" y="176" on="0"/>
        <pt x="1300" y="267" on="0"/>
        <pt x="1433" y="399" on="0"/>
        <pt x="1546" y="593" on="0"/>
      </contour>
      <contour>
        <pt x="1296" y="1436" on="1"/>
        <pt x="1526" y="1436" on="0"/>
        <pt x="1796" y="1186" on="0"/>
        <pt x="1796" y="966" on="1"/>
        <pt x="1796" y="854" on="0"/>
        <pt x="1759" y="727" on="1"/>
        <pt x="1664" y="397" on="0"/>
        <pt x="1168" y="-15" on="0"/>
        <pt x="873" y="-15" on="1"/>
        <pt x="769" y="-15" on="0"/>
        <pt x="592" y="44" on="0"/>
        <pt x="457" y="159" on="0"/>
        <pt x="380" y="342" on="0"/>
        <pt x="380" y="458" on="1"/>
        <pt x="380" y="573" on="0"/>
        <pt x="418" y="707" on="1"/>
        <pt x="513" y="1037" on="0"/>
        <pt x="1004" y="1436" on="0"/>
      </contour>
    </TTGlyph>
    <TTGlyph name="P" xMin="290" yMin="0" xMax="1552" yMax="1421">
      <contour>
        <pt x="697" y="1421" on="1"/>
        <pt x="1166" y="1421" on="1"/>
        <pt x="1203" y="1421" on="0"/>
        <pt x="1251" y="1420" on="0"/>
        <pt x="1340" y="1410" on="0"/>
        <pt x="1401" y="1393" on="0"/>
        <pt x="1475" y="1356" on="0"/>
        <pt x="1520" y="1306" on="0"/>
        <pt x="1552" y="1227" on="0"/>
        <pt x="1552" y="1177" on="1"/>
        <pt x="1552" y="1114" on="0"/>
        <pt x="1531" y="1043" on="1"/>
        <pt x="1511" y="974" on="0"/>
        <pt x="1454" y="859" on="0"/>
        <pt x="1389" y="772" on="0"/>
        <pt x="1305" y="703" on="0"/>
        <pt x="1224" y="657" on="0"/>
        <pt x="1124" y="622" on="0"/>
        <pt x="1037" y="603" on="0"/>
        <pt x="929" y="592" on="0"/>
        <pt x="845" y="589" on="0"/>
        <pt x="793" y="589" on="1"/>
        <pt x="726" y="589" on="0"/>
        <pt x="631" y="596" on="1"/>
        <pt x="460" y="0" on="1"/>
        <pt x="290" y="0" on="1"/>
      </contour>
      <contour>
        <pt x="674" y="746" on="1"/>
        <pt x="768" y="738" on="0"/>
        <pt x="854" y="738" on="1"/>
        <pt x="903" y="738" on="0"/>
        <pt x="970" y="740" on="0"/>
        <pt x="1068" y="752" on="0"/>
        <pt x="1139" y="773" on="0"/>
        <pt x="1222" y="815" on="0"/>
        <pt x="1281" y="872" on="0"/>
        <pt x="1335" y="959" on="0"/>
        <pt x="1351" y="1015" on="1"/>
        <pt x="1365" y="1063" on="0"/>
        <pt x="1365" y="1104" on="1"/>
        <pt x="1365" y="1149" on="0"/>
        <pt x="1327" y="1213" on="0"/>
        <pt x="1273" y="1247" on="0"/>
        <pt x="1187" y="1267" on="0"/>
        <pt x="1119" y="1271" on="0"/>
        <pt x="1072" y="1271" on="1"/>
        <pt x="824" y="1271" on="1"/>
      </contour>
    </TTGlyph>
    <TTGlyph name="Q" xMin="379" yMin="-56" xMax="1793" yMax="1436">
      <contour>
        <pt x="1298" y="1436" on="1"/>
        <pt x="1427" y="1436" on="0"/>
        <pt x="1622" y="1361" on="0"/>
        <pt x="1737" y="1228" on="0"/>
        <pt x="1793" y="1059" on="0"/>
        <pt x="1793" y="958" on="1"/>
        <pt x="1793" y="767" on="0"/>
        <pt x="1611" y="358" on="0"/>
        <pt x="1464" y="220" on="1"/>
        <pt x="1594" y="41" on="1"/>
        <pt x="1474" y="-56" on="1"/>
        <pt x="1338" y="121" on="1"/>
        <pt x="1127" y="-15" on="0"/>
        <pt x="884" y="-15" on="1"/>
        <pt x="654" y="-15" on="0"/>
        <pt x="379" y="234" on="0"/>
        <pt x="379" y="459" on="1"/>
        <pt x="379" y="573" on="0"/>
        <pt x="417" y="705" on="1"/>
        <pt x="480" y="925" on="0"/>
        <pt x="751" y="1260" on="0"/>
        <pt x="1106" y="1436" on="0"/>
      </contour>
      <contour>
        <pt x="1241" y="1287" on="1"/>
        <pt x="1153" y="1287" on="0"/>
        <pt x="968" y="1221" on="0"/>
        <pt x="789" y="1090" on="0"/>
        <pt x="639" y="867" on="0"/>
        <pt x="598" y="724" on="1"/>
        <pt x="565" y="607" on="0"/>
        <pt x="565" y="512" on="1"/>
        <pt x="565" y="331" on="0"/>
        <pt x="776" y="134" on="0"/>
        <pt x="946" y="134" on="1"/>
        <pt x="1109" y="134" on="0"/>
        <pt x="1256" y="227" on="1"/>
        <pt x="1027" y="525" on="1"/>
        <pt x="1163" y="633" on="1"/>
        <pt x="1382" y="332" on="1"/>
        <pt x="1510" y="469" on="0"/>
        <pt x="1572" y="685" on="1"/>
        <pt x="1609" y="814" on="0"/>
        <pt x="1609" y="920" on="1"/>
        <pt x="1609" y="1001" on="0"/>
        <pt x="1564" y="1130" on="0"/>
        <pt x="1492" y="1211" on="0"/>
        <pt x="1393" y="1265" on="0"/>
        <pt x="1294" y="1287" on="0"/>
      </contour>
    </TTGlyph>
    <TTGlyph name="R" xMin="290" yMin="0" xMax="1548" yMax="1421">
      <contour>
        <pt x="1524" y="1031" on="1"/>
        <pt x="1504" y="960" on="0"/>
        <pt x="1433" y="832" on="0"/>
        <pt x="1327" y="716" on="0"/>
        <pt x="1176" y="631" on="0"/>
        <pt x="1085" y="611" on="1"/>
        <pt x="1311" y="0" on="1"/>
        <pt x="1121" y="0" on="1"/>
        <pt x="906" y="592" on="1"/>
        <pt x="631" y="592" on="1"/>
        <pt x="461" y="0" on="1"/>
        <pt x="290" y="0" on="1"/>
        <pt x="697" y="1421" on="1"/>
        <pt x="1219" y="1421" on="1"/>
        <pt x="1263" y="1421" on="0"/>
        <pt x="1332" y="1415" on="0"/>
        <pt x="1432" y="1388" on="0"/>
        <pt x="1499" y="1340" on="0"/>
        <pt x="1548" y="1245" on="0"/>
        <pt x="1548" y="1180" on="1"/>
        <pt x="1548" y="1113" on="0"/>
      </contour>
      <contour>
        <pt x="674" y="742" on="1"/>
        <pt x="919" y="742" on="1"/>
        <pt x="960" y="742" on="0"/>
        <pt x="1027" y="747" on="0"/>
        <pt x="1120" y="764" on="0"/>
        <pt x="1196" y="801" on="0"/>
        <pt x="1272" y="858" on="0"/>
        <pt x="1330" y="951" on="0"/>
        <pt x="1348" y="1012" on="1"/>
        <pt x="1362" y="1058" on="0"/>
        <pt x="1362" y="1100" on="1"/>
        <pt x="1362" y="1272" on="0"/>
        <pt x="1112" y="1272" on="1"/>
        <pt x="826" y="1272" on="1"/>
      </contour>
    </TTGlyph>
    <TTGlyph name="Racute" xMin="290" yMin="0" xMax="1545" yMax="1976">
      <contour>
        <pt x="1524" y="1031" on="1"/>
        <pt x="1504" y="960" on="0"/>
        <pt x="1433" y="832" on="0"/>
        <pt x="1327" y="716" on="0"/>
        <pt x="1176" y="631" on="0"/>
        <pt x="1085" y="611" on="1"/>
        <pt x="1311" y="0" on="1"/>
        <pt x="1121" y="0" on="1"/>
        <pt x="906" y="593" on="1"/>
        <pt x="895" y="593" on="0"/>
        <pt x="852" y="592" on="0"/>
        <pt x="841" y="592" on="1"/>
        <pt x="631" y="592" on="1"/>
        <pt x="461" y="0" on="1"/>
        <pt x="290" y="0" on="1"/>
        <pt x="697" y="1421" on="1"/>
        <pt x="1219" y="1421" on="1"/>
        <pt x="1268" y="1421" on="0"/>
        <pt x="1336" y="1415" on="0"/>
        <pt x="1419" y="1396" on="0"/>
        <pt x="1483" y="1351" on="0"/>
        <pt x="1506" y="1316" on="1"/>
        <pt x="1545" y="1258" on="0"/>
        <pt x="1545" y="1169" on="1"/>
        <pt x="1545" y="1106" on="0"/>
      </contour>
      <contour>
        <pt x="674" y="742" on="1"/>
        <pt x="919" y="742" on="1"/>
        <pt x="1045" y="742" on="0"/>
        <pt x="1223" y="801" on="0"/>
        <pt x="1290" y="892" on="1"/>
        <pt x="1321" y="934" on="0"/>
        <pt x="1360" y="1043" on="0"/>
        <pt x="1360" y="1094" on="1"/>
        <pt x="1360" y="1231" on="0"/>
        <pt x="1222" y="1262" on="1"/>
        <pt x="1179" y="1272" on="0"/>
        <pt x="1085" y="1272" on="1"/>
        <pt x="826" y="1272" on="1"/>
      </contour>
      <contour>
        <pt x="1501" y="1976" on="1"/>
        <pt x="1535" y="1853" on="1"/>
        <pt x="939" y="1558" on="1"/>
        <pt x="908" y="1666" on="1"/>
      </contour>
    </TTGlyph>
    <TTGlyph name="Rcaron" xMin="290" yMin="0" xMax="1545" yMax="1932">
      <contour>
        <pt x="1524" y="1031" on="1"/>
        <pt x="1504" y="960" on="0"/>
        <pt x="1433" y="832" on="0"/>
        <pt x="1327" y="716" on="0"/>
        <pt x="1176" y="631" on="0"/>
        <pt x="1085" y="611" on="1"/>
        <pt x="1311" y="0" on="1"/>
        <pt x="1121" y="0" on="1"/>
        <pt x="906" y="593" on="1"/>
        <pt x="895" y="593" on="0"/>
        <pt x="852" y="592" on="0"/>
        <pt x="841" y="592" on="1"/>
        <pt x="631" y="592" on="1"/>
        <pt x="461" y="0" on="1"/>
        <pt x="290" y="0" on="1"/>
        <pt x="697" y="1421" on="1"/>
        <pt x="1219" y="1421" on="1"/>
        <pt x="1268" y="1421" on="0"/>
        <pt x="1336" y="1415" on="0"/>
        <pt x="1419" y="1396" on="0"/>
        <pt x="1483" y="1351" on="0"/>
        <pt x="1506" y="1316" on="1"/>
        <pt x="1545" y="1258" on="0"/>
        <pt x="1545" y="1169" on="1"/>
        <pt x="1545" y="1106" on="0"/>
      </contour>
      <contour>
        <pt x="674" y="742" on="1"/>
        <pt x="919" y="742" on="1"/>
        <pt x="1045" y="742" on="0"/>
        <pt x="1223" y="801" on="0"/>
        <pt x="1290" y="892" on="1"/>
        <pt x="1321" y="934" on="0"/>
        <pt x="1360" y="1043" on="0"/>
        <pt x="1360" y="1094" on="1"/>
        <pt x="1360" y="1231" on="0"/>
        <pt x="1222" y="1262" on="1"/>
        <pt x="1179" y="1272" on="0"/>
        <pt x="1085" y="1272" on="1"/>
        <pt x="826" y="1272" on="1"/>
      </contour>
      <contour>
        <pt x="1146" y="1558" on="1"/>
        <pt x="972" y="1844" on="1"/>
        <pt x="1090" y="1932" on="1"/>
        <pt x="1210" y="1736" on="1"/>
        <pt x="1447" y="1931" on="1"/>
        <pt x="1512" y="1853" on="1"/>
      </contour>
    </TTGlyph>
    <TTGlyph name="Rcommaaccent" xMin="159" yMin="-512" xMax="1545" yMax="1421">
      <contour>
        <pt x="429" y="-122" on="1"/>
        <pt x="609" y="-122" on="1"/>
        <pt x="339" y="-512" on="1"/>
        <pt x="159" y="-512" on="1"/>
      </contour>
      <contour>
        <pt x="674" y="742" on="1"/>
        <pt x="919" y="742" on="1"/>
        <pt x="1045" y="742" on="0"/>
        <pt x="1223" y="801" on="0"/>
        <pt x="1290" y="892" on="1"/>
        <pt x="1321" y="934" on="0"/>
        <pt x="1360" y="1043" on="0"/>
        <pt x="1360" y="1094" on="1"/>
        <pt x="1360" y="1231" on="0"/>
        <pt x="1222" y="1262" on="1"/>
        <pt x="1179" y="1272" on="0"/>
        <pt x="1085" y="1272" on="1"/>
        <pt x="826" y="1272" on="1"/>
      </contour>
      <contour>
        <pt x="1524" y="1031" on="1"/>
        <pt x="1504" y="960" on="0"/>
        <pt x="1433" y="832" on="0"/>
        <pt x="1327" y="716" on="0"/>
        <pt x="1176" y="631" on="0"/>
        <pt x="1085" y="611" on="1"/>
        <pt x="1311" y="0" on="1"/>
        <pt x="1121" y="0" on="1"/>
        <pt x="906" y="593" on="1"/>
        <pt x="895" y="593" on="0"/>
        <pt x="852" y="592" on="0"/>
        <pt x="841" y="592" on="1"/>
        <pt x="631" y="592" on="1"/>
        <pt x="461" y="0" on="1"/>
        <pt x="290" y="0" on="1"/>
        <pt x="697" y="1421" on="1"/>
        <pt x="1219" y="1421" on="1"/>
        <pt x="1268" y="1421" on="0"/>
        <pt x="1336" y="1415" on="0"/>
        <pt x="1419" y="1396" on="0"/>
        <pt x="1483" y="1351" on="0"/>
        <pt x="1506" y="1316" on="1"/>
        <pt x="1545" y="1258" on="0"/>
        <pt x="1545" y="1169" on="1"/>
        <pt x="1545" y="1106" on="0"/>
      </contour>
    </TTGlyph>
    <TTGlyph name="S" xMin="262" yMin="-20" xMax="1569" yMax="1434">
      <contour>
        <pt x="1232" y="1434" on="1"/>
        <pt x="1396" y="1434" on="0"/>
        <pt x="1569" y="1377" on="1"/>
        <pt x="1469" y="1222" on="1"/>
        <pt x="1305" y="1274" on="0"/>
        <pt x="1172" y="1274" on="1"/>
        <pt x="1024" y="1274" on="0"/>
        <pt x="783" y="1148" on="0"/>
        <pt x="755" y="1050" on="1"/>
        <pt x="748" y="1028" on="0"/>
        <pt x="748" y="1004" on="1"/>
        <pt x="748" y="957" on="0"/>
        <pt x="814" y="883" on="0"/>
        <pt x="921" y="833" on="0"/>
        <pt x="1049" y="786" on="0"/>
        <pt x="1177" y="731" on="0"/>
        <pt x="1284" y="664" on="0"/>
        <pt x="1350" y="560" on="0"/>
        <pt x="1350" y="493" on="1"/>
        <pt x="1350" y="450" on="0"/>
        <pt x="1335" y="397" on="1"/>
        <pt x="1319" y="340" on="0"/>
        <pt x="1250" y="227" on="0"/>
        <pt x="1134" y="116" on="0"/>
        <pt x="986" y="32" on="0"/>
        <pt x="782" y="-20" on="0"/>
        <pt x="550" y="-20" on="0"/>
        <pt x="370" y="28" on="0"/>
        <pt x="262" y="76" on="1"/>
        <pt x="367" y="241" on="1"/>
        <pt x="591" y="148" on="0"/>
        <pt x="735" y="148" on="1"/>
        <pt x="887" y="148" on="0"/>
        <pt x="1114" y="270" on="0"/>
        <pt x="1143" y="372" on="1"/>
        <pt x="1151" y="397" on="0"/>
        <pt x="1151" y="425" on="1"/>
        <pt x="1151" y="475" on="0"/>
        <pt x="1084" y="553" on="0"/>
        <pt x="978" y="604" on="0"/>
        <pt x="850" y="650" on="0"/>
        <pt x="721" y="701" on="0"/>
        <pt x="615" y="764" on="0"/>
        <pt x="548" y="865" on="0"/>
        <pt x="548" y="930" on="1"/>
        <pt x="548" y="974" on="0"/>
        <pt x="562" y="1022" on="1"/>
        <pt x="611" y="1193" on="0"/>
        <pt x="986" y="1434" on="0"/>
      </contour>
    </TTGlyph>
    <TTGlyph name="Sacute" xMin="262" yMin="-20" xMax="1569" yMax="1976">
      <contour>
        <pt x="1501" y="1976" on="1"/>
        <pt x="1535" y="1853" on="1"/>
        <pt x="939" y="1558" on="1"/>
        <pt x="908" y="1666" on="1"/>
      </contour>
      <contour>
        <pt x="1232" y="1434" on="1"/>
        <pt x="1396" y="1434" on="0"/>
        <pt x="1569" y="1377" on="1"/>
        <pt x="1469" y="1222" on="1"/>
        <pt x="1305" y="1274" on="0"/>
        <pt x="1172" y="1274" on="1"/>
        <pt x="1024" y="1274" on="0"/>
        <pt x="783" y="1148" on="0"/>
        <pt x="755" y="1050" on="1"/>
        <pt x="748" y="1028" on="0"/>
        <pt x="748" y="1004" on="1"/>
        <pt x="748" y="957" on="0"/>
        <pt x="814" y="883" on="0"/>
        <pt x="921" y="833" on="0"/>
        <pt x="1049" y="786" on="0"/>
        <pt x="1177" y="731" on="0"/>
        <pt x="1284" y="664" on="0"/>
        <pt x="1350" y="560" on="0"/>
        <pt x="1350" y="493" on="1"/>
        <pt x="1350" y="450" on="0"/>
        <pt x="1335" y="397" on="1"/>
        <pt x="1319" y="340" on="0"/>
        <pt x="1250" y="227" on="0"/>
        <pt x="1134" y="116" on="0"/>
        <pt x="986" y="32" on="0"/>
        <pt x="782" y="-20" on="0"/>
        <pt x="550" y="-20" on="0"/>
        <pt x="370" y="28" on="0"/>
        <pt x="262" y="76" on="1"/>
        <pt x="367" y="241" on="1"/>
        <pt x="591" y="148" on="0"/>
        <pt x="735" y="148" on="1"/>
        <pt x="887" y="148" on="0"/>
        <pt x="1114" y="270" on="0"/>
        <pt x="1143" y="372" on="1"/>
        <pt x="1151" y="397" on="0"/>
        <pt x="1151" y="425" on="1"/>
        <pt x="1151" y="475" on="0"/>
        <pt x="1084" y="553" on="0"/>
        <pt x="978" y="604" on="0"/>
        <pt x="850" y="650" on="0"/>
        <pt x="721" y="701" on="0"/>
        <pt x="615" y="764" on="0"/>
        <pt x="548" y="865" on="0"/>
        <pt x="548" y="930" on="1"/>
        <pt x="548" y="974" on="0"/>
        <pt x="562" y="1022" on="1"/>
        <pt x="611" y="1193" on="0"/>
        <pt x="986" y="1434" on="0"/>
      </contour>
    </TTGlyph>
    <TTGlyph name="Scaron" xMin="262" yMin="-20" xMax="1569" yMax="1932">
      <contour>
        <pt x="1186" y="1558" on="1"/>
        <pt x="1012" y="1844" on="1"/>
        <pt x="1130" y="1932" on="1"/>
        <pt x="1250" y="1736" on="1"/>
        <pt x="1487" y="1931" on="1"/>
        <pt x="1552" y="1853" on="1"/>
      </contour>
      <contour>
        <pt x="1232" y="1434" on="1"/>
        <pt x="1396" y="1434" on="0"/>
        <pt x="1569" y="1377" on="1"/>
        <pt x="1469" y="1222" on="1"/>
        <pt x="1305" y="1274" on="0"/>
        <pt x="1172" y="1274" on="1"/>
        <pt x="1024" y="1274" on="0"/>
        <pt x="783" y="1148" on="0"/>
        <pt x="755" y="1050" on="1"/>
        <pt x="748" y="1028" on="0"/>
        <pt x="748" y="1004" on="1"/>
        <pt x="748" y="957" on="0"/>
        <pt x="814" y="883" on="0"/>
        <pt x="921" y="833" on="0"/>
        <pt x="1049" y="786" on="0"/>
        <pt x="1177" y="731" on="0"/>
        <pt x="1284" y="664" on="0"/>
        <pt x="1350" y="560" on="0"/>
        <pt x="1350" y="493" on="1"/>
        <pt x="1350" y="450" on="0"/>
        <pt x="1335" y="397" on="1"/>
        <pt x="1319" y="340" on="0"/>
        <pt x="1250" y="227" on="0"/>
        <pt x="1134" y="116" on="0"/>
        <pt x="986" y="32" on="0"/>
        <pt x="782" y="-20" on="0"/>
        <pt x="550" y="-20" on="0"/>
        <pt x="370" y="28" on="0"/>
        <pt x="262" y="76" on="1"/>
        <pt x="367" y="241" on="1"/>
        <pt x="591" y="148" on="0"/>
        <pt x="735" y="148" on="1"/>
        <pt x="887" y="148" on="0"/>
        <pt x="1114" y="270" on="0"/>
        <pt x="1143" y="372" on="1"/>
        <pt x="1151" y="397" on="0"/>
        <pt x="1151" y="425" on="1"/>
        <pt x="1151" y="475" on="0"/>
        <pt x="1084" y="553" on="0"/>
        <pt x="978" y="604" on="0"/>
        <pt x="850" y="650" on="0"/>
        <pt x="721" y="701" on="0"/>
        <pt x="615" y="764" on="0"/>
        <pt x="548" y="865" on="0"/>
        <pt x="548" y="930" on="1"/>
        <pt x="548" y="974" on="0"/>
        <pt x="562" y="1022" on="1"/>
        <pt x="611" y="1193" on="0"/>
        <pt x="986" y="1434" on="0"/>
      </contour>
    </TTGlyph>
    <TTGlyph name="Scedilla" xMin="262" yMin="-506" xMax="1569" yMax="1434">
      <contour>
        <pt x="856" y="-316" on="1"/>
        <pt x="834" y="-393" on="0"/>
        <pt x="684" y="-506" on="0"/>
        <pt x="590" y="-506" on="1"/>
        <pt x="553" y="-506" on="0"/>
        <pt x="483" y="-490" on="0"/>
        <pt x="368" y="-453" on="1"/>
        <pt x="428" y="-349" on="1"/>
        <pt x="578" y="-399" on="0"/>
        <pt x="628" y="-399" on="1"/>
        <pt x="671" y="-399" on="0"/>
        <pt x="732" y="-357" on="0"/>
        <pt x="740" y="-328" on="1"/>
        <pt x="743" y="-316" on="0"/>
        <pt x="743" y="-307" on="1"/>
        <pt x="743" y="-299" on="0"/>
        <pt x="739" y="-285" on="0"/>
        <pt x="727" y="-272" on="0"/>
        <pt x="715" y="-262" on="0"/>
        <pt x="691" y="-251" on="0"/>
        <pt x="671" y="-243" on="0"/>
        <pt x="636" y="-231" on="0"/>
        <pt x="608" y="-222" on="0"/>
        <pt x="560" y="-207" on="0"/>
        <pt x="542" y="-201" on="1"/>
        <pt x="643" y="-20" on="1"/>
        <pt x="536" y="-20" on="0"/>
        <pt x="370" y="28" on="0"/>
        <pt x="262" y="76" on="1"/>
        <pt x="367" y="241" on="1"/>
        <pt x="591" y="148" on="0"/>
        <pt x="735" y="148" on="1"/>
        <pt x="887" y="148" on="0"/>
        <pt x="1114" y="270" on="0"/>
        <pt x="1143" y="372" on="1"/>
        <pt x="1151" y="397" on="0"/>
        <pt x="1151" y="425" on="1"/>
        <pt x="1151" y="475" on="0"/>
        <pt x="1084" y="553" on="0"/>
        <pt x="978" y="604" on="0"/>
        <pt x="850" y="650" on="0"/>
        <pt x="721" y="701" on="0"/>
        <pt x="615" y="764" on="0"/>
        <pt x="548" y="865" on="0"/>
        <pt x="548" y="930" on="1"/>
        <pt x="548" y="974" on="0"/>
        <pt x="562" y="1022" on="1"/>
        <pt x="611" y="1193" on="0"/>
        <pt x="986" y="1434" on="0"/>
        <pt x="1232" y="1434" on="1"/>
        <pt x="1396" y="1434" on="0"/>
        <pt x="1569" y="1377" on="1"/>
        <pt x="1469" y="1222" on="1"/>
        <pt x="1305" y="1274" on="0"/>
        <pt x="1172" y="1274" on="1"/>
        <pt x="1024" y="1274" on="0"/>
        <pt x="783" y="1148" on="0"/>
        <pt x="755" y="1050" on="1"/>
        <pt x="748" y="1028" on="0"/>
        <pt x="748" y="1004" on="1"/>
        <pt x="748" y="957" on="0"/>
        <pt x="814" y="883" on="0"/>
        <pt x="921" y="833" on="0"/>
        <pt x="1049" y="786" on="0"/>
        <pt x="1177" y="731" on="0"/>
        <pt x="1284" y="664" on="0"/>
        <pt x="1350" y="560" on="0"/>
        <pt x="1350" y="493" on="1"/>
        <pt x="1350" y="450" on="0"/>
        <pt x="1335" y="397" on="1"/>
        <pt x="1317" y="333" on="0"/>
        <pt x="1233" y="207" on="0"/>
        <pt x="1104" y="90" on="0"/>
        <pt x="909" y="3" on="0"/>
        <pt x="795" y="-12" on="1"/>
        <pt x="728" y="-135" on="1"/>
        <pt x="736" y="-138" on="1"/>
        <pt x="745" y="-140" on="0"/>
        <pt x="758" y="-144" on="0"/>
        <pt x="782" y="-153" on="0"/>
        <pt x="800" y="-164" on="0"/>
        <pt x="823" y="-179" on="0"/>
        <pt x="840" y="-198" on="0"/>
        <pt x="855" y="-221" on="0"/>
        <pt x="863" y="-251" on="0"/>
        <pt x="863" y="-268" on="1"/>
        <pt x="863" y="-292" on="0"/>
      </contour>
    </TTGlyph>
    <TTGlyph name="Scircumflex" xMin="262" yMin="-20" xMax="1569" yMax="1932">
      <contour>
        <pt x="1232" y="1434" on="1"/>
        <pt x="1396" y="1434" on="0"/>
        <pt x="1569" y="1377" on="1"/>
        <pt x="1469" y="1222" on="1"/>
        <pt x="1305" y="1274" on="0"/>
        <pt x="1172" y="1274" on="1"/>
        <pt x="1024" y="1274" on="0"/>
        <pt x="783" y="1148" on="0"/>
        <pt x="755" y="1050" on="1"/>
        <pt x="748" y="1028" on="0"/>
        <pt x="748" y="1004" on="1"/>
        <pt x="748" y="957" on="0"/>
        <pt x="814" y="883" on="0"/>
        <pt x="921" y="833" on="0"/>
        <pt x="1049" y="786" on="0"/>
        <pt x="1177" y="731" on="0"/>
        <pt x="1284" y="664" on="0"/>
        <pt x="1350" y="560" on="0"/>
        <pt x="1350" y="493" on="1"/>
        <pt x="1350" y="450" on="0"/>
        <pt x="1335" y="397" on="1"/>
        <pt x="1319" y="340" on="0"/>
        <pt x="1250" y="227" on="0"/>
        <pt x="1134" y="116" on="0"/>
        <pt x="986" y="32" on="0"/>
        <pt x="782" y="-20" on="0"/>
        <pt x="550" y="-20" on="0"/>
        <pt x="370" y="28" on="0"/>
        <pt x="262" y="76" on="1"/>
        <pt x="367" y="241" on="1"/>
        <pt x="591" y="148" on="0"/>
        <pt x="735" y="148" on="1"/>
        <pt x="887" y="148" on="0"/>
        <pt x="1114" y="270" on="0"/>
        <pt x="1143" y="372" on="1"/>
        <pt x="1151" y="397" on="0"/>
        <pt x="1151" y="425" on="1"/>
        <pt x="1151" y="475" on="0"/>
        <pt x="1084" y="553" on="0"/>
        <pt x="978" y="604" on="0"/>
        <pt x="850" y="650" on="0"/>
        <pt x="721" y="701" on="0"/>
        <pt x="615" y="764" on="0"/>
        <pt x="548" y="865" on="0"/>
        <pt x="548" y="930" on="1"/>
        <pt x="548" y="974" on="0"/>
        <pt x="562" y="1022" on="1"/>
        <pt x="611" y="1193" on="0"/>
        <pt x="986" y="1434" on="0"/>
      </contour>
      <contour>
        <pt x="1269" y="1932" on="1"/>
        <pt x="1443" y="1646" on="1"/>
        <pt x="1325" y="1558" on="1"/>
        <pt x="1205" y="1754" on="1"/>
        <pt x="968" y="1559" on="1"/>
        <pt x="902" y="1637" on="1"/>
      </contour>
    </TTGlyph>
    <TTGlyph name="T" xMin="449" yMin="0" xMax="1612" yMax="1421">
      <contour>
        <pt x="492" y="1421" on="1"/>
        <pt x="1612" y="1421" on="1"/>
        <pt x="1569" y="1271" on="1"/>
        <pt x="1094" y="1271" on="1"/>
        <pt x="730" y="0" on="1"/>
        <pt x="560" y="0" on="1"/>
        <pt x="924" y="1271" on="1"/>
        <pt x="449" y="1271" on="1"/>
      </contour>
    </TTGlyph>
    <TTGlyph name="Tbar" xMin="427" yMin="0" xMax="1612" yMax="1421">
      <contour>
        <pt x="492" y="1421" on="1"/>
        <pt x="1612" y="1421" on="1"/>
        <pt x="1569" y="1271" on="1"/>
        <pt x="1094" y="1271" on="1"/>
        <pt x="946" y="753" on="1"/>
        <pt x="1303" y="753" on="1"/>
        <pt x="1260" y="603" on="1"/>
        <pt x="903" y="603" on="1"/>
        <pt x="730" y="0" on="1"/>
        <pt x="560" y="0" on="1"/>
        <pt x="733" y="603" on="1"/>
        <pt x="427" y="603" on="1"/>
        <pt x="470" y="753" on="1"/>
        <pt x="776" y="753" on="1"/>
        <pt x="924" y="1271" on="1"/>
        <pt x="449" y="1271" on="1"/>
      </contour>
    </TTGlyph>
    <TTGlyph name="Tcaron" xMin="449" yMin="0" xMax="1612" yMax="1932">
      <contour>
        <pt x="1105" y="1558" on="1"/>
        <pt x="931" y="1844" on="1"/>
        <pt x="1049" y="1932" on="1"/>
        <pt x="1169" y="1736" on="1"/>
        <pt x="1406" y="1931" on="1"/>
        <pt x="1471" y="1853" on="1"/>
      </contour>
      <contour>
        <pt x="492" y="1421" on="1"/>
        <pt x="1612" y="1421" on="1"/>
        <pt x="1569" y="1271" on="1"/>
        <pt x="1094" y="1271" on="1"/>
        <pt x="730" y="0" on="1"/>
        <pt x="560" y="0" on="1"/>
        <pt x="924" y="1271" on="1"/>
        <pt x="449" y="1271" on="1"/>
      </contour>
    </TTGlyph>
    <TTGlyph name="Tcommaaccent" xMin="270" yMin="-506" xMax="1612" yMax="1421">
      <contour>
        <pt x="533" y="-398" on="1"/>
        <pt x="584" y="-398" on="0"/>
        <pt x="637" y="-351" on="0"/>
        <pt x="645" y="-325" on="1"/>
        <pt x="647" y="-315" on="0"/>
        <pt x="647" y="-311" on="1"/>
        <pt x="647" y="-295" on="0"/>
        <pt x="627" y="-269" on="0"/>
        <pt x="576" y="-244" on="0"/>
        <pt x="543" y="-232" on="0"/>
        <pt x="459" y="-206" on="0"/>
        <pt x="445" y="-201" on="1"/>
        <pt x="459" y="-177" on="0"/>
        <pt x="510" y="-86" on="0"/>
        <pt x="521" y="-67" on="0"/>
        <pt x="552" y="-8" on="0"/>
        <pt x="558" y="10" on="0"/>
        <pt x="579" y="66" on="0"/>
        <pt x="592" y="110" on="0"/>
        <pt x="603" y="150" on="1"/>
        <pt x="924" y="1271" on="1"/>
        <pt x="449" y="1271" on="1"/>
        <pt x="492" y="1421" on="1"/>
        <pt x="1612" y="1421" on="1"/>
        <pt x="1569" y="1271" on="1"/>
        <pt x="1094" y="1271" on="1"/>
        <pt x="776" y="160" on="1"/>
        <pt x="745" y="54" on="0"/>
        <pt x="697" y="-63" on="0"/>
        <pt x="652" y="-138" on="1"/>
        <pt x="767" y="-176" on="0"/>
        <pt x="767" y="-264" on="1"/>
        <pt x="767" y="-291" on="0"/>
        <pt x="759" y="-316" on="1"/>
        <pt x="738" y="-390" on="0"/>
        <pt x="588" y="-506" on="0"/>
        <pt x="491" y="-506" on="1"/>
        <pt x="474" y="-506" on="0"/>
        <pt x="438" y="-502" on="0"/>
        <pt x="412" y="-497" on="0"/>
        <pt x="368" y="-485" on="0"/>
        <pt x="343" y="-477" on="0"/>
        <pt x="285" y="-458" on="0"/>
        <pt x="270" y="-453" on="1"/>
        <pt x="331" y="-349" on="1"/>
        <pt x="480" y="-398" on="0"/>
      </contour>
    </TTGlyph>
    <TTGlyph name="Thorn" xMin="290" yMin="0" xMax="1482" yMax="1421">
      <contour>
        <pt x="971" y="1008" on="1"/>
        <pt x="855" y="1008" on="0"/>
        <pt x="746" y="998" on="1"/>
        <pt x="598" y="483" on="1"/>
        <pt x="706" y="474" on="0"/>
        <pt x="791" y="474" on="1"/>
        <pt x="819" y="474" on="1"/>
        <pt x="858" y="474" on="0"/>
        <pt x="912" y="476" on="0"/>
        <pt x="1002" y="488" on="0"/>
        <pt x="1068" y="508" on="0"/>
        <pt x="1149" y="550" on="0"/>
        <pt x="1208" y="607" on="0"/>
        <pt x="1263" y="696" on="0"/>
        <pt x="1279" y="752" on="1"/>
        <pt x="1292" y="797" on="0"/>
        <pt x="1292" y="834" on="1"/>
        <pt x="1292" y="880" on="0"/>
        <pt x="1251" y="946" on="0"/>
        <pt x="1191" y="982" on="0"/>
        <pt x="1098" y="1003" on="0"/>
        <pt x="1021" y="1008" on="0"/>
      </contour>
      <contour>
        <pt x="697" y="1421" on="1"/>
        <pt x="867" y="1421" on="1"/>
        <pt x="789" y="1147" on="1"/>
        <pt x="923" y="1160" on="0"/>
        <pt x="1062" y="1160" on="1"/>
        <pt x="1156" y="1160" on="0"/>
        <pt x="1301" y="1137" on="0"/>
        <pt x="1419" y="1083" on="0"/>
        <pt x="1482" y="984" on="0"/>
        <pt x="1482" y="913" on="1"/>
        <pt x="1482" y="858" on="0"/>
        <pt x="1463" y="791" on="1"/>
        <pt x="1449" y="742" on="0"/>
        <pt x="1406" y="646" on="0"/>
        <pt x="1336" y="539" on="0"/>
        <pt x="1249" y="451" on="0"/>
        <pt x="1126" y="377" on="0"/>
        <pt x="1055" y="358" on="1"/>
        <pt x="936" y="326" on="0"/>
        <pt x="717" y="326" on="1"/>
        <pt x="636" y="326" on="0"/>
        <pt x="555" y="332" on="1"/>
        <pt x="460" y="0" on="1"/>
        <pt x="290" y="0" on="1"/>
      </contour>
    </TTGlyph>
    <TTGlyph name="U" xMin="393" yMin="-20" xMax="1777" yMax="1421">
      <contour>
        <pt x="697" y="1421" on="1"/>
        <pt x="867" y="1421" on="1"/>
        <pt x="603" y="500" on="1"/>
        <pt x="576" y="406" on="0"/>
        <pt x="576" y="350" on="1"/>
        <pt x="576" y="288" on="0"/>
        <pt x="605" y="240" on="1"/>
        <pt x="674" y="127" on="0"/>
        <pt x="867" y="127" on="1"/>
        <pt x="1008" y="127" on="0"/>
        <pt x="1234" y="250" on="0"/>
        <pt x="1293" y="362" on="1"/>
        <pt x="1321" y="414" on="0"/>
        <pt x="1345" y="500" on="1"/>
        <pt x="1609" y="1421" on="1"/>
        <pt x="1777" y="1421" on="1"/>
        <pt x="1511" y="485" on="1"/>
        <pt x="1498" y="439" on="0"/>
        <pt x="1474" y="370" on="0"/>
        <pt x="1419" y="258" on="0"/>
        <pt x="1355" y="175" on="0"/>
        <pt x="1247" y="81" on="0"/>
        <pt x="1119" y="20" on="0"/>
        <pt x="934" y="-20" on="0"/>
        <pt x="825" y="-20" on="1"/>
        <pt x="745" y="-20" on="0"/>
        <pt x="614" y="3" on="0"/>
        <pt x="526" y="39" on="0"/>
        <pt x="459" y="91" on="0"/>
        <pt x="422" y="143" on="0"/>
        <pt x="400" y="206" on="0"/>
        <pt x="393" y="254" on="0"/>
        <pt x="393" y="280" on="1"/>
        <pt x="393" y="300" on="1"/>
        <pt x="395" y="368" on="0"/>
        <pt x="430" y="487" on="1"/>
      </contour>
    </TTGlyph>
    <TTGlyph name="Uacute" xMin="392" yMin="-20" xMax="1777" yMax="1930">
      <contour>
        <pt x="697" y="1421" on="1"/>
        <pt x="867" y="1421" on="1"/>
        <pt x="603" y="500" on="1"/>
        <pt x="577" y="405" on="0"/>
        <pt x="577" y="348" on="1"/>
        <pt x="577" y="127" on="0"/>
        <pt x="866" y="127" on="1"/>
        <pt x="973" y="127" on="0"/>
        <pt x="1140" y="186" on="0"/>
        <pt x="1250" y="294" on="0"/>
        <pt x="1320" y="420" on="0"/>
        <pt x="1343" y="500" on="1"/>
        <pt x="1607" y="1421" on="1"/>
        <pt x="1777" y="1421" on="1"/>
        <pt x="1508" y="483" on="1"/>
        <pt x="1498" y="447" on="0"/>
        <pt x="1482" y="399" on="0"/>
        <pt x="1447" y="313" on="0"/>
        <pt x="1410" y="250" on="0"/>
        <pt x="1347" y="167" on="0"/>
        <pt x="1277" y="107" on="0"/>
        <pt x="1174" y="44" on="0"/>
        <pt x="1058" y="5" on="0"/>
        <pt x="904" y="-20" on="0"/>
        <pt x="817" y="-20" on="1"/>
        <pt x="392" y="-20" on="0"/>
        <pt x="392" y="280" on="1"/>
        <pt x="392" y="358" on="0"/>
        <pt x="428" y="483" on="1"/>
      </contour>
      <contour>
        <pt x="1617" y="1930" on="1"/>
        <pt x="1652" y="1807" on="1"/>
        <pt x="1055" y="1511" on="1"/>
        <pt x="1025" y="1620" on="1"/>
      </contour>
    </TTGlyph>
    <TTGlyph name="Ubreve" xMin="392" yMin="-20" xMax="1777" yMax="1882">
      <contour>
        <pt x="897" y="1816" on="1"/>
        <pt x="1039" y="1882" on="1"/>
        <pt x="1046" y="1848" on="0"/>
        <pt x="1072" y="1788" on="0"/>
        <pt x="1117" y="1730" on="0"/>
        <pt x="1191" y="1695" on="0"/>
        <pt x="1237" y="1695" on="1"/>
        <pt x="1318" y="1695" on="0"/>
        <pt x="1504" y="1804" on="0"/>
        <pt x="1586" y="1882" on="1"/>
        <pt x="1677" y="1805" on="1"/>
        <pt x="1567" y="1699" on="0"/>
        <pt x="1300" y="1557" on="0"/>
        <pt x="1181" y="1557" on="1"/>
        <pt x="1113" y="1557" on="0"/>
        <pt x="1005" y="1602" on="0"/>
        <pt x="938" y="1677" on="0"/>
        <pt x="901" y="1767" on="0"/>
      </contour>
      <contour>
        <pt x="697" y="1421" on="1"/>
        <pt x="867" y="1421" on="1"/>
        <pt x="603" y="500" on="1"/>
        <pt x="575" y="403" on="0"/>
        <pt x="575" y="349" on="1"/>
        <pt x="575" y="287" on="0"/>
        <pt x="604" y="240" on="1"/>
        <pt x="673" y="127" on="0"/>
        <pt x="866" y="127" on="1"/>
        <pt x="1007" y="127" on="0"/>
        <pt x="1233" y="250" on="0"/>
        <pt x="1292" y="362" on="1"/>
        <pt x="1318" y="410" on="0"/>
        <pt x="1343" y="500" on="1"/>
        <pt x="1607" y="1421" on="1"/>
        <pt x="1777" y="1421" on="1"/>
        <pt x="1548" y="620" on="1"/>
        <pt x="1543" y="604" on="0"/>
        <pt x="1533" y="566" on="1"/>
        <pt x="1489" y="393" on="0"/>
        <pt x="1439" y="300" on="1"/>
        <pt x="1267" y="-20" on="0"/>
        <pt x="824" y="-20" on="1"/>
        <pt x="744" y="-20" on="0"/>
        <pt x="613" y="3" on="0"/>
        <pt x="525" y="39" on="0"/>
        <pt x="458" y="91" on="0"/>
        <pt x="421" y="143" on="0"/>
        <pt x="399" y="206" on="0"/>
        <pt x="392" y="254" on="0"/>
        <pt x="392" y="280" on="1"/>
        <pt x="392" y="300" on="1"/>
        <pt x="393" y="337" on="0"/>
        <pt x="410" y="423" on="0"/>
        <pt x="425" y="479" on="0"/>
        <pt x="461" y="594" on="0"/>
        <pt x="468" y="620" on="1"/>
      </contour>
    </TTGlyph>
    <TTGlyph name="Ucircumflex" xMin="392" yMin="-20" xMax="1777" yMax="1924">
      <contour>
        <pt x="697" y="1421" on="1"/>
        <pt x="867" y="1421" on="1"/>
        <pt x="603" y="500" on="1"/>
        <pt x="577" y="405" on="0"/>
        <pt x="577" y="348" on="1"/>
        <pt x="577" y="127" on="0"/>
        <pt x="866" y="127" on="1"/>
        <pt x="973" y="127" on="0"/>
        <pt x="1140" y="186" on="0"/>
        <pt x="1250" y="294" on="0"/>
        <pt x="1320" y="420" on="0"/>
        <pt x="1343" y="500" on="1"/>
        <pt x="1607" y="1421" on="1"/>
        <pt x="1777" y="1421" on="1"/>
        <pt x="1508" y="483" on="1"/>
        <pt x="1498" y="447" on="0"/>
        <pt x="1482" y="399" on="0"/>
        <pt x="1447" y="313" on="0"/>
        <pt x="1410" y="250" on="0"/>
        <pt x="1347" y="167" on="0"/>
        <pt x="1277" y="107" on="0"/>
        <pt x="1174" y="44" on="0"/>
        <pt x="1058" y="5" on="0"/>
        <pt x="904" y="-20" on="0"/>
        <pt x="817" y="-20" on="1"/>
        <pt x="392" y="-20" on="0"/>
        <pt x="392" y="280" on="1"/>
        <pt x="392" y="358" on="0"/>
        <pt x="428" y="483" on="1"/>
      </contour>
      <contour>
        <pt x="1396" y="1924" on="1"/>
        <pt x="1570" y="1638" on="1"/>
        <pt x="1450" y="1550" on="1"/>
        <pt x="1332" y="1746" on="1"/>
        <pt x="1095" y="1551" on="1"/>
        <pt x="1029" y="1629" on="1"/>
      </contour>
    </TTGlyph>
    <TTGlyph name="Udieresis" xMin="392" yMin="-20" xMax="1777" yMax="1898">
      <contour>
        <pt x="697" y="1421" on="1"/>
        <pt x="867" y="1421" on="1"/>
        <pt x="603" y="500" on="1"/>
        <pt x="577" y="405" on="0"/>
        <pt x="577" y="348" on="1"/>
        <pt x="577" y="127" on="0"/>
        <pt x="866" y="127" on="1"/>
        <pt x="973" y="127" on="0"/>
        <pt x="1140" y="186" on="0"/>
        <pt x="1250" y="294" on="0"/>
        <pt x="1320" y="420" on="0"/>
        <pt x="1343" y="500" on="1"/>
        <pt x="1607" y="1421" on="1"/>
        <pt x="1777" y="1421" on="1"/>
        <pt x="1508" y="483" on="1"/>
        <pt x="1498" y="447" on="0"/>
        <pt x="1482" y="399" on="0"/>
        <pt x="1447" y="313" on="0"/>
        <pt x="1410" y="250" on="0"/>
        <pt x="1347" y="167" on="0"/>
        <pt x="1277" y="107" on="0"/>
        <pt x="1174" y="44" on="0"/>
        <pt x="1058" y="5" on="0"/>
        <pt x="904" y="-20" on="0"/>
        <pt x="817" y="-20" on="1"/>
        <pt x="392" y="-20" on="0"/>
        <pt x="392" y="280" on="1"/>
        <pt x="392" y="358" on="0"/>
        <pt x="428" y="483" on="1"/>
      </contour>
      <contour>
        <pt x="1057" y="1898" on="1"/>
        <pt x="1242" y="1898" on="1"/>
        <pt x="1189" y="1713" on="1"/>
        <pt x="1004" y="1713" on="1"/>
      </contour>
      <contour>
        <pt x="1506" y="1898" on="1"/>
        <pt x="1691" y="1898" on="1"/>
        <pt x="1638" y="1713" on="1"/>
        <pt x="1453" y="1713" on="1"/>
      </contour>
    </TTGlyph>
    <TTGlyph name="Ugrave" xMin="392" yMin="-20" xMax="1777" yMax="1927">
      <contour>
        <pt x="697" y="1421" on="1"/>
        <pt x="867" y="1421" on="1"/>
        <pt x="603" y="500" on="1"/>
        <pt x="577" y="405" on="0"/>
        <pt x="577" y="348" on="1"/>
        <pt x="577" y="127" on="0"/>
        <pt x="866" y="127" on="1"/>
        <pt x="973" y="127" on="0"/>
        <pt x="1140" y="186" on="0"/>
        <pt x="1250" y="294" on="0"/>
        <pt x="1320" y="420" on="0"/>
        <pt x="1343" y="500" on="1"/>
        <pt x="1607" y="1421" on="1"/>
        <pt x="1777" y="1421" on="1"/>
        <pt x="1508" y="483" on="1"/>
        <pt x="1498" y="447" on="0"/>
        <pt x="1482" y="399" on="0"/>
        <pt x="1447" y="313" on="0"/>
        <pt x="1410" y="250" on="0"/>
        <pt x="1347" y="167" on="0"/>
        <pt x="1277" y="107" on="0"/>
        <pt x="1174" y="44" on="0"/>
        <pt x="1058" y="5" on="0"/>
        <pt x="904" y="-20" on="0"/>
        <pt x="817" y="-20" on="1"/>
        <pt x="392" y="-20" on="0"/>
        <pt x="392" y="280" on="1"/>
        <pt x="392" y="358" on="0"/>
        <pt x="428" y="483" on="1"/>
      </contour>
      <contour>
        <pt x="1177" y="1927" on="1"/>
        <pt x="1592" y="1617" on="1"/>
        <pt x="1498" y="1511" on="1"/>
        <pt x="1070" y="1804" on="1"/>
      </contour>
    </TTGlyph>
    <TTGlyph name="Uhungarumlaut" xMin="392" yMin="-20" xMax="2004" yMax="1984">
      <contour>
        <pt x="697" y="1421" on="1"/>
        <pt x="867" y="1421" on="1"/>
        <pt x="603" y="500" on="1"/>
        <pt x="575" y="403" on="0"/>
        <pt x="575" y="349" on="1"/>
        <pt x="575" y="287" on="0"/>
        <pt x="604" y="240" on="1"/>
        <pt x="673" y="127" on="0"/>
        <pt x="866" y="127" on="1"/>
        <pt x="1007" y="127" on="0"/>
        <pt x="1233" y="250" on="0"/>
        <pt x="1292" y="362" on="1"/>
        <pt x="1318" y="410" on="0"/>
        <pt x="1343" y="500" on="1"/>
        <pt x="1607" y="1421" on="1"/>
        <pt x="1777" y="1421" on="1"/>
        <pt x="1548" y="620" on="1"/>
        <pt x="1543" y="604" on="0"/>
        <pt x="1533" y="566" on="1"/>
        <pt x="1489" y="393" on="0"/>
        <pt x="1439" y="300" on="1"/>
        <pt x="1267" y="-20" on="0"/>
        <pt x="824" y="-20" on="1"/>
        <pt x="744" y="-20" on="0"/>
        <pt x="613" y="3" on="0"/>
        <pt x="525" y="39" on="0"/>
        <pt x="458" y="91" on="0"/>
        <pt x="421" y="143" on="0"/>
        <pt x="399" y="206" on="0"/>
        <pt x="392" y="254" on="0"/>
        <pt x="392" y="280" on="1"/>
        <pt x="392" y="300" on="1"/>
        <pt x="393" y="337" on="0"/>
        <pt x="410" y="423" on="0"/>
        <pt x="425" y="479" on="0"/>
        <pt x="461" y="594" on="0"/>
        <pt x="468" y="620" on="1"/>
      </contour>
      <contour>
        <pt x="1437" y="1984" on="1"/>
        <pt x="1484" y="1868" on="1"/>
        <pt x="902" y="1529" on="1"/>
        <pt x="861" y="1631" on="1"/>
      </contour>
      <contour>
        <pt x="1957" y="1984" on="1"/>
        <pt x="2004" y="1868" on="1"/>
        <pt x="1422" y="1529" on="1"/>
        <pt x="1381" y="1631" on="1"/>
      </contour>
    </TTGlyph>
    <TTGlyph name="Umacron" xMin="392" yMin="-20" xMax="1777" yMax="1697">
      <contour>
        <pt x="697" y="1421" on="1"/>
        <pt x="867" y="1421" on="1"/>
        <pt x="603" y="500" on="1"/>
        <pt x="575" y="403" on="0"/>
        <pt x="575" y="349" on="1"/>
        <pt x="575" y="287" on="0"/>
        <pt x="604" y="240" on="1"/>
        <pt x="673" y="127" on="0"/>
        <pt x="866" y="127" on="1"/>
        <pt x="1007" y="127" on="0"/>
        <pt x="1233" y="250" on="0"/>
        <pt x="1292" y="362" on="1"/>
        <pt x="1318" y="410" on="0"/>
        <pt x="1343" y="500" on="1"/>
        <pt x="1607" y="1421" on="1"/>
        <pt x="1777" y="1421" on="1"/>
        <pt x="1548" y="620" on="1"/>
        <pt x="1543" y="604" on="0"/>
        <pt x="1533" y="566" on="1"/>
        <pt x="1489" y="393" on="0"/>
        <pt x="1439" y="300" on="1"/>
        <pt x="1267" y="-20" on="0"/>
        <pt x="824" y="-20" on="1"/>
        <pt x="744" y="-20" on="0"/>
        <pt x="613" y="3" on="0"/>
        <pt x="525" y="39" on="0"/>
        <pt x="458" y="91" on="0"/>
        <pt x="421" y="143" on="0"/>
        <pt x="399" y="206" on="0"/>
        <pt x="392" y="254" on="0"/>
        <pt x="392" y="280" on="1"/>
        <pt x="392" y="300" on="1"/>
        <pt x="394" y="348" on="0"/>
        <pt x="420" y="462" on="0"/>
        <pt x="467" y="617" on="0"/>
        <pt x="468" y="620" on="1"/>
      </contour>
      <contour>
        <pt x="882" y="1697" on="1"/>
        <pt x="1712" y="1697" on="1"/>
        <pt x="1675" y="1568" on="1"/>
        <pt x="845" y="1568" on="1"/>
      </contour>
    </TTGlyph>
    <TTGlyph name="Uogonek" xMin="393" yMin="-545" xMax="1777" yMax="1421">
      <contour>
        <pt x="427" y="485" on="1"/>
        <pt x="434" y="508" on="0"/>
        <pt x="462" y="597" on="0"/>
        <pt x="468" y="620" on="1"/>
        <pt x="697" y="1421" on="1"/>
        <pt x="867" y="1421" on="1"/>
        <pt x="603" y="500" on="1"/>
        <pt x="575" y="403" on="0"/>
        <pt x="575" y="349" on="1"/>
        <pt x="575" y="287" on="0"/>
        <pt x="604" y="240" on="1"/>
        <pt x="673" y="127" on="0"/>
        <pt x="866" y="127" on="1"/>
        <pt x="1007" y="127" on="0"/>
        <pt x="1233" y="250" on="0"/>
        <pt x="1292" y="362" on="1"/>
        <pt x="1318" y="410" on="0"/>
        <pt x="1343" y="500" on="1"/>
        <pt x="1607" y="1421" on="1"/>
        <pt x="1777" y="1421" on="1"/>
        <pt x="1513" y="494" on="1"/>
        <pt x="1486" y="400" on="0"/>
        <pt x="1422" y="261" on="0"/>
        <pt x="1355" y="168" on="0"/>
        <pt x="1255" y="92" on="0"/>
        <pt x="1160" y="43" on="0"/>
        <pt x="1085" y="12" on="1"/>
        <pt x="994" y="-26" on="0"/>
        <pt x="850" y="-119" on="0"/>
        <pt x="767" y="-206" on="0"/>
        <pt x="723" y="-275" on="0"/>
        <pt x="715" y="-302" on="1"/>
        <pt x="710" y="-318" on="0"/>
        <pt x="710" y="-338" on="1"/>
        <pt x="710" y="-373" on="0"/>
        <pt x="753" y="-412" on="0"/>
        <pt x="792" y="-412" on="1"/>
        <pt x="861" y="-412" on="0"/>
        <pt x="970" y="-351" on="1"/>
        <pt x="993" y="-443" on="1"/>
        <pt x="832" y="-545" on="0"/>
        <pt x="702" y="-545" on="1"/>
        <pt x="627" y="-545" on="0"/>
        <pt x="551" y="-471" on="0"/>
        <pt x="551" y="-408" on="1"/>
        <pt x="551" y="-319" on="0"/>
        <pt x="693" y="-101" on="0"/>
        <pt x="815" y="-20" on="1"/>
        <pt x="393" y="-20" on="0"/>
        <pt x="393" y="286" on="1"/>
        <pt x="393" y="369" on="0"/>
      </contour>
    </TTGlyph>
    <TTGlyph name="Uring" xMin="392" yMin="-20" xMax="1777" yMax="2007">
      <contour>
        <pt x="1385" y="2007" on="1"/>
        <pt x="1458" y="2007" on="0"/>
        <pt x="1550" y="1916" on="0"/>
        <pt x="1550" y="1845" on="1"/>
        <pt x="1550" y="1816" on="0"/>
        <pt x="1541" y="1783" on="1"/>
        <pt x="1514" y="1690" on="0"/>
        <pt x="1347" y="1558" on="0"/>
        <pt x="1257" y="1558" on="1"/>
        <pt x="1184" y="1558" on="0"/>
        <pt x="1092" y="1649" on="0"/>
        <pt x="1092" y="1720" on="1"/>
        <pt x="1092" y="1750" on="0"/>
        <pt x="1101" y="1783" on="1"/>
        <pt x="1128" y="1876" on="0"/>
        <pt x="1295" y="2007" on="0"/>
      </contour>
      <contour>
        <pt x="1359" y="1916" on="1"/>
        <pt x="1304" y="1916" on="0"/>
        <pt x="1206" y="1837" on="0"/>
        <pt x="1191" y="1783" on="1"/>
        <pt x="1185" y="1764" on="0"/>
        <pt x="1185" y="1745" on="1"/>
        <pt x="1185" y="1704" on="0"/>
        <pt x="1237" y="1649" on="0"/>
        <pt x="1283" y="1649" on="1"/>
        <pt x="1337" y="1649" on="0"/>
        <pt x="1434" y="1730" on="0"/>
        <pt x="1449" y="1783" on="1"/>
        <pt x="1454" y="1799" on="0"/>
        <pt x="1454" y="1820" on="1"/>
        <pt x="1454" y="1861" on="0"/>
        <pt x="1403" y="1916" on="0"/>
      </contour>
      <contour>
        <pt x="697" y="1421" on="1"/>
        <pt x="867" y="1421" on="1"/>
        <pt x="603" y="500" on="1"/>
        <pt x="575" y="403" on="0"/>
        <pt x="575" y="349" on="1"/>
        <pt x="575" y="287" on="0"/>
        <pt x="604" y="240" on="1"/>
        <pt x="673" y="127" on="0"/>
        <pt x="866" y="127" on="1"/>
        <pt x="1007" y="127" on="0"/>
        <pt x="1233" y="250" on="0"/>
        <pt x="1292" y="362" on="1"/>
        <pt x="1318" y="410" on="0"/>
        <pt x="1343" y="500" on="1"/>
        <pt x="1607" y="1421" on="1"/>
        <pt x="1777" y="1421" on="1"/>
        <pt x="1548" y="620" on="1"/>
        <pt x="1543" y="604" on="0"/>
        <pt x="1533" y="566" on="1"/>
        <pt x="1489" y="393" on="0"/>
        <pt x="1439" y="300" on="1"/>
        <pt x="1267" y="-20" on="0"/>
        <pt x="824" y="-20" on="1"/>
        <pt x="744" y="-20" on="0"/>
        <pt x="613" y="3" on="0"/>
        <pt x="525" y="39" on="0"/>
        <pt x="458" y="91" on="0"/>
        <pt x="421" y="143" on="0"/>
        <pt x="399" y="206" on="0"/>
        <pt x="392" y="254" on="0"/>
        <pt x="392" y="280" on="1"/>
        <pt x="392" y="300" on="1"/>
        <pt x="393" y="337" on="0"/>
        <pt x="410" y="423" on="0"/>
        <pt x="425" y="479" on="0"/>
        <pt x="461" y="594" on="0"/>
        <pt x="468" y="620" on="1"/>
      </contour>
    </TTGlyph>
    <TTGlyph name="Utilde" xMin="392" yMin="-20" xMax="1777" yMax="1864">
      <contour>
        <pt x="697" y="1421" on="1"/>
        <pt x="867" y="1421" on="1"/>
        <pt x="603" y="500" on="1"/>
        <pt x="575" y="403" on="0"/>
        <pt x="575" y="349" on="1"/>
        <pt x="575" y="287" on="0"/>
        <pt x="604" y="240" on="1"/>
        <pt x="673" y="127" on="0"/>
        <pt x="866" y="127" on="1"/>
        <pt x="1007" y="127" on="0"/>
        <pt x="1233" y="250" on="0"/>
        <pt x="1292" y="362" on="1"/>
        <pt x="1318" y="410" on="0"/>
        <pt x="1343" y="500" on="1"/>
        <pt x="1607" y="1421" on="1"/>
        <pt x="1777" y="1421" on="1"/>
        <pt x="1548" y="620" on="1"/>
        <pt x="1543" y="604" on="0"/>
        <pt x="1533" y="566" on="1"/>
        <pt x="1489" y="393" on="0"/>
        <pt x="1439" y="300" on="1"/>
        <pt x="1267" y="-20" on="0"/>
        <pt x="824" y="-20" on="1"/>
        <pt x="744" y="-20" on="0"/>
        <pt x="613" y="3" on="0"/>
        <pt x="525" y="39" on="0"/>
        <pt x="458" y="91" on="0"/>
        <pt x="421" y="143" on="0"/>
        <pt x="399" y="206" on="0"/>
        <pt x="392" y="254" on="0"/>
        <pt x="392" y="280" on="1"/>
        <pt x="392" y="300" on="1"/>
        <pt x="394" y="348" on="0"/>
        <pt x="420" y="462" on="0"/>
        <pt x="467" y="617" on="0"/>
        <pt x="468" y="620" on="1"/>
      </contour>
      <contour>
        <pt x="1452" y="1682" on="1"/>
        <pt x="1469" y="1682" on="0"/>
        <pt x="1504" y="1697" on="0"/>
        <pt x="1531" y="1716" on="0"/>
        <pt x="1570" y="1759" on="0"/>
        <pt x="1592" y="1786" on="0"/>
        <pt x="1641" y="1849" on="0"/>
        <pt x="1653" y="1864" on="1"/>
        <pt x="1745" y="1817" on="1"/>
        <pt x="1740" y="1810" on="0"/>
        <pt x="1695" y="1751" on="0"/>
        <pt x="1677" y="1730" on="0"/>
        <pt x="1634" y="1677" on="0"/>
        <pt x="1608" y="1653" on="0"/>
        <pt x="1565" y="1612" on="0"/>
        <pt x="1530" y="1592" on="0"/>
        <pt x="1485" y="1569" on="0"/>
        <pt x="1440" y="1560" on="0"/>
        <pt x="1417" y="1560" on="1"/>
        <pt x="1373" y="1560" on="0"/>
        <pt x="1303" y="1597" on="0"/>
        <pt x="1258" y="1650" on="0"/>
        <pt x="1219" y="1703" on="0"/>
        <pt x="1174" y="1740" on="0"/>
        <pt x="1149" y="1740" on="1"/>
        <pt x="1134" y="1740" on="0"/>
        <pt x="1106" y="1731" on="0"/>
        <pt x="1076" y="1709" on="0"/>
        <pt x="1054" y="1690" on="0"/>
        <pt x="1020" y="1650" on="0"/>
        <pt x="1000" y="1625" on="0"/>
        <pt x="959" y="1572" on="0"/>
        <pt x="948" y="1558" on="1"/>
        <pt x="856" y="1605" on="1"/>
        <pt x="861" y="1612" on="0"/>
        <pt x="906" y="1671" on="0"/>
        <pt x="924" y="1692" on="0"/>
        <pt x="967" y="1745" on="0"/>
        <pt x="993" y="1769" on="0"/>
        <pt x="1036" y="1810" on="0"/>
        <pt x="1071" y="1830" on="0"/>
        <pt x="1116" y="1853" on="0"/>
        <pt x="1161" y="1862" on="0"/>
        <pt x="1184" y="1862" on="1"/>
        <pt x="1228" y="1862" on="0"/>
        <pt x="1298" y="1825" on="0"/>
        <pt x="1343" y="1772" on="0"/>
        <pt x="1382" y="1719" on="0"/>
        <pt x="1427" y="1682" on="0"/>
      </contour>
    </TTGlyph>
    <TTGlyph name="V" xMin="547" yMin="0" xMax="1748" yMax="1421">
      <contour>
        <pt x="547" y="1421" on="1"/>
        <pt x="749" y="1421" on="1"/>
        <pt x="800" y="180" on="1"/>
        <pt x="1561" y="1421" on="1"/>
        <pt x="1748" y="1421" on="1"/>
        <pt x="846" y="0" on="1"/>
        <pt x="635" y="0" on="1"/>
      </contour>
    </TTGlyph>
    <TTGlyph name="W" xMin="547" yMin="0" xMax="2512" yMax="1421">
      <contour>
        <pt x="547" y="1421" on="1"/>
        <pt x="727" y="1421" on="1"/>
        <pt x="742" y="227" on="1"/>
        <pt x="1444" y="1421" on="1"/>
        <pt x="1615" y="1421" on="1"/>
        <pt x="1643" y="227" on="1"/>
        <pt x="2332" y="1421" on="1"/>
        <pt x="2512" y="1421" on="1"/>
        <pt x="1667" y="0" on="1"/>
        <pt x="1486" y="0" on="1"/>
        <pt x="1453" y="1187" on="1"/>
        <pt x="764" y="0" on="1"/>
        <pt x="583" y="0" on="1"/>
      </contour>
    </TTGlyph>
    <TTGlyph name="Wacute" xMin="547" yMin="0" xMax="2502" yMax="1928">
      <contour>
        <pt x="547" y="1421" on="1"/>
        <pt x="729" y="1421" on="1"/>
        <pt x="744" y="227" on="1"/>
        <pt x="1446" y="1421" on="1"/>
        <pt x="1617" y="1421" on="1"/>
        <pt x="1645" y="227" on="1"/>
        <pt x="2334" y="1421" on="1"/>
        <pt x="2502" y="1421" on="1"/>
        <pt x="1669" y="0" on="1"/>
        <pt x="1488" y="0" on="1"/>
        <pt x="1455" y="1187" on="1"/>
        <pt x="766" y="0" on="1"/>
        <pt x="585" y="0" on="1"/>
      </contour>
      <contour>
        <pt x="1873" y="1928" on="1"/>
        <pt x="1908" y="1805" on="1"/>
        <pt x="1311" y="1511" on="1"/>
        <pt x="1280" y="1618" on="1"/>
      </contour>
    </TTGlyph>
    <TTGlyph name="Wcircumflex" xMin="547" yMin="0" xMax="2502" yMax="1936">
      <contour>
        <pt x="547" y="1421" on="1"/>
        <pt x="729" y="1421" on="1"/>
        <pt x="744" y="227" on="1"/>
        <pt x="1446" y="1421" on="1"/>
        <pt x="1617" y="1421" on="1"/>
        <pt x="1645" y="227" on="1"/>
        <pt x="2334" y="1421" on="1"/>
        <pt x="2502" y="1421" on="1"/>
        <pt x="1669" y="0" on="1"/>
        <pt x="1488" y="0" on="1"/>
        <pt x="1455" y="1187" on="1"/>
        <pt x="766" y="0" on="1"/>
        <pt x="585" y="0" on="1"/>
      </contour>
      <contour>
        <pt x="1685" y="1936" on="1"/>
        <pt x="1859" y="1650" on="1"/>
        <pt x="1742" y="1562" on="1"/>
        <pt x="1622" y="1758" on="1"/>
        <pt x="1384" y="1563" on="1"/>
        <pt x="1319" y="1641" on="1"/>
      </contour>
    </TTGlyph>
    <TTGlyph name="Wdieresis" xMin="547" yMin="0" xMax="2502" yMax="1898">
      <contour>
        <pt x="547" y="1421" on="1"/>
        <pt x="729" y="1421" on="1"/>
        <pt x="744" y="227" on="1"/>
        <pt x="1446" y="1421" on="1"/>
        <pt x="1617" y="1421" on="1"/>
        <pt x="1645" y="227" on="1"/>
        <pt x="2334" y="1421" on="1"/>
        <pt x="2502" y="1421" on="1"/>
        <pt x="1669" y="0" on="1"/>
        <pt x="1488" y="0" on="1"/>
        <pt x="1455" y="1187" on="1"/>
        <pt x="766" y="0" on="1"/>
        <pt x="585" y="0" on="1"/>
      </contour>
      <contour>
        <pt x="1344" y="1898" on="1"/>
        <pt x="1529" y="1898" on="1"/>
        <pt x="1476" y="1713" on="1"/>
        <pt x="1291" y="1713" on="1"/>
      </contour>
      <contour>
        <pt x="1794" y="1898" on="1"/>
        <pt x="1979" y="1898" on="1"/>
        <pt x="1926" y="1713" on="1"/>
        <pt x="1741" y="1713" on="1"/>
      </contour>
    </TTGlyph>
    <TTGlyph name="Wgrave" xMin="547" yMin="0" xMax="2502" yMax="1928">
      <contour>
        <pt x="547" y="1421" on="1"/>
        <pt x="729" y="1421" on="1"/>
        <pt x="744" y="227" on="1"/>
        <pt x="1446" y="1421" on="1"/>
        <pt x="1617" y="1421" on="1"/>
        <pt x="1645" y="227" on="1"/>
        <pt x="2334" y="1421" on="1"/>
        <pt x="2502" y="1421" on="1"/>
        <pt x="1669" y="0" on="1"/>
        <pt x="1488" y="0" on="1"/>
        <pt x="1455" y="1187" on="1"/>
        <pt x="766" y="0" on="1"/>
        <pt x="585" y="0" on="1"/>
      </contour>
      <contour>
        <pt x="1519" y="1928" on="1"/>
        <pt x="1934" y="1618" on="1"/>
        <pt x="1841" y="1511" on="1"/>
        <pt x="1414" y="1805" on="1"/>
      </contour>
    </TTGlyph>
    <TTGlyph name="X" xMin="110" yMin="0" xMax="1690" yMax="1421">
      <contour>
        <pt x="1494" y="1421" on="1"/>
        <pt x="1690" y="1421" on="1"/>
        <pt x="1047" y="746" on="1"/>
        <pt x="1338" y="0" on="1"/>
        <pt x="1118" y="0" on="1"/>
        <pt x="891" y="599" on="1"/>
        <pt x="320" y="0" on="1"/>
        <pt x="110" y="0" on="1"/>
        <pt x="836" y="742" on="1"/>
        <pt x="577" y="1421" on="1"/>
        <pt x="783" y="1421" on="1"/>
        <pt x="992" y="886" on="1"/>
      </contour>
    </TTGlyph>
    <TTGlyph name="Y" xMin="507" yMin="0" xMax="1630" yMax="1421">
      <contour>
        <pt x="507" y="1421" on="1"/>
        <pt x="708" y="1421" on="1"/>
        <pt x="902" y="834" on="1"/>
        <pt x="1440" y="1421" on="1"/>
        <pt x="1630" y="1421" on="1"/>
        <pt x="932" y="673" on="1"/>
        <pt x="739" y="0" on="1"/>
        <pt x="569" y="0" on="1"/>
        <pt x="762" y="673" on="1"/>
      </contour>
    </TTGlyph>
    <TTGlyph name="Yacute" xMin="507" yMin="0" xMax="1630" yMax="1930">
      <contour>
        <pt x="507" y="1421" on="1"/>
        <pt x="708" y="1421" on="1"/>
        <pt x="902" y="834" on="1"/>
        <pt x="1440" y="1421" on="1"/>
        <pt x="1630" y="1421" on="1"/>
        <pt x="932" y="673" on="1"/>
        <pt x="739" y="0" on="1"/>
        <pt x="569" y="0" on="1"/>
        <pt x="762" y="673" on="1"/>
      </contour>
      <contour>
        <pt x="1424" y="1930" on="1"/>
        <pt x="1459" y="1807" on="1"/>
        <pt x="862" y="1511" on="1"/>
        <pt x="832" y="1620" on="1"/>
      </contour>
    </TTGlyph>
    <TTGlyph name="Ycircumflex" xMin="507" yMin="0" xMax="1630" yMax="1932">
      <contour>
        <pt x="507" y="1421" on="1"/>
        <pt x="708" y="1421" on="1"/>
        <pt x="902" y="834" on="1"/>
        <pt x="1440" y="1421" on="1"/>
        <pt x="1630" y="1421" on="1"/>
        <pt x="932" y="673" on="1"/>
        <pt x="739" y="0" on="1"/>
        <pt x="569" y="0" on="1"/>
        <pt x="762" y="673" on="1"/>
      </contour>
      <contour>
        <pt x="1232" y="1932" on="1"/>
        <pt x="1406" y="1646" on="1"/>
        <pt x="1289" y="1558" on="1"/>
        <pt x="1169" y="1754" on="1"/>
        <pt x="931" y="1559" on="1"/>
        <pt x="865" y="1637" on="1"/>
      </contour>
    </TTGlyph>
    <TTGlyph name="Ydieresis" xMin="507" yMin="0" xMax="1630" yMax="1898">
      <contour>
        <pt x="507" y="1421" on="1"/>
        <pt x="708" y="1421" on="1"/>
        <pt x="902" y="834" on="1"/>
        <pt x="1440" y="1421" on="1"/>
        <pt x="1630" y="1421" on="1"/>
        <pt x="932" y="673" on="1"/>
        <pt x="739" y="0" on="1"/>
        <pt x="569" y="0" on="1"/>
        <pt x="762" y="673" on="1"/>
      </contour>
      <contour>
        <pt x="1337" y="1898" on="1"/>
        <pt x="1522" y="1898" on="1"/>
        <pt x="1469" y="1713" on="1"/>
        <pt x="1284" y="1713" on="1"/>
      </contour>
      <contour>
        <pt x="887" y="1898" on="1"/>
        <pt x="1072" y="1898" on="1"/>
        <pt x="1019" y="1713" on="1"/>
        <pt x="834" y="1713" on="1"/>
      </contour>
    </TTGlyph>
    <TTGlyph name="Ygrave" xMin="507" yMin="0" xMax="1630" yMax="1928">
      <contour>
        <pt x="507" y="1421" on="1"/>
        <pt x="708" y="1421" on="1"/>
        <pt x="902" y="834" on="1"/>
        <pt x="1440" y="1421" on="1"/>
        <pt x="1630" y="1421" on="1"/>
        <pt x="932" y="673" on="1"/>
        <pt x="739" y="0" on="1"/>
        <pt x="569" y="0" on="1"/>
        <pt x="762" y="673" on="1"/>
      </contour>
      <contour>
        <pt x="1013" y="1928" on="1"/>
        <pt x="1428" y="1618" on="1"/>
        <pt x="1335" y="1511" on="1"/>
        <pt x="908" y="1805" on="1"/>
      </contour>
    </TTGlyph>
    <TTGlyph name="Z" xMin="155" yMin="0" xMax="1678" yMax="1421">
      <contour>
        <pt x="592" y="1421" on="1"/>
        <pt x="1678" y="1421" on="1"/>
        <pt x="1647" y="1312" on="1"/>
        <pt x="424" y="150" on="1"/>
        <pt x="1341" y="150" on="1"/>
        <pt x="1298" y="0" on="1"/>
        <pt x="155" y="0" on="1"/>
        <pt x="187" y="111" on="1"/>
        <pt x="1392" y="1271" on="1"/>
        <pt x="549" y="1271" on="1"/>
      </contour>
    </TTGlyph>
    <TTGlyph name="Zacute" xMin="155" yMin="0" xMax="1678" yMax="1976">
      <contour>
        <pt x="592" y="1421" on="1"/>
        <pt x="1678" y="1421" on="1"/>
        <pt x="1647" y="1312" on="1"/>
        <pt x="424" y="150" on="1"/>
        <pt x="1341" y="150" on="1"/>
        <pt x="1298" y="0" on="1"/>
        <pt x="155" y="0" on="1"/>
        <pt x="187" y="111" on="1"/>
        <pt x="1392" y="1271" on="1"/>
        <pt x="549" y="1271" on="1"/>
      </contour>
      <contour>
        <pt x="1528" y="1976" on="1"/>
        <pt x="1562" y="1853" on="1"/>
        <pt x="966" y="1558" on="1"/>
        <pt x="935" y="1666" on="1"/>
      </contour>
    </TTGlyph>
    <TTGlyph name="Zcaron" xMin="155" yMin="0" xMax="1678" yMax="1932">
      <contour>
        <pt x="592" y="1421" on="1"/>
        <pt x="1678" y="1421" on="1"/>
        <pt x="1647" y="1312" on="1"/>
        <pt x="424" y="150" on="1"/>
        <pt x="1341" y="150" on="1"/>
        <pt x="1298" y="0" on="1"/>
        <pt x="155" y="0" on="1"/>
        <pt x="187" y="111" on="1"/>
        <pt x="1392" y="1271" on="1"/>
        <pt x="549" y="1271" on="1"/>
      </contour>
      <contour>
        <pt x="1164" y="1558" on="1"/>
        <pt x="990" y="1844" on="1"/>
        <pt x="1108" y="1932" on="1"/>
        <pt x="1228" y="1736" on="1"/>
        <pt x="1465" y="1931" on="1"/>
        <pt x="1530" y="1853" on="1"/>
      </contour>
    </TTGlyph>
    <TTGlyph name="Zdotaccent" xMin="155" yMin="0" xMax="1678" yMax="1829">
      <contour>
        <pt x="592" y="1421" on="1"/>
        <pt x="1678" y="1421" on="1"/>
        <pt x="1647" y="1312" on="1"/>
        <pt x="424" y="150" on="1"/>
        <pt x="1341" y="150" on="1"/>
        <pt x="1298" y="0" on="1"/>
        <pt x="155" y="0" on="1"/>
        <pt x="187" y="111" on="1"/>
        <pt x="1392" y="1271" on="1"/>
        <pt x="549" y="1271" on="1"/>
      </contour>
      <contour>
        <pt x="1130" y="1829" on="1"/>
        <pt x="1340" y="1829" on="1"/>
        <pt x="1280" y="1619" on="1"/>
        <pt x="1070" y="1619" on="1"/>
      </contour>
    </TTGlyph>
    <TTGlyph name="a" xMin="184" yMin="-20" xMax="1081" yMax="982">
      <contour>
        <pt x="781" y="982" on="1"/>
        <pt x="941" y="982" on="0"/>
        <pt x="1081" y="874" on="0"/>
        <pt x="1081" y="775" on="1"/>
        <pt x="1081" y="720" on="0"/>
        <pt x="1060" y="644" on="1"/>
        <pt x="875" y="0" on="1"/>
        <pt x="759" y="0" on="1"/>
        <pt x="747" y="90" on="1"/>
        <pt x="597" y="-20" on="0"/>
        <pt x="442" y="-20" on="1"/>
        <pt x="325" y="-20" on="0"/>
        <pt x="184" y="103" on="0"/>
        <pt x="184" y="194" on="1"/>
        <pt x="184" y="224" on="0"/>
        <pt x="193" y="256" on="1"/>
        <pt x="213" y="327" on="0"/>
        <pt x="308" y="432" on="0"/>
        <pt x="431" y="496" on="0"/>
        <pt x="599" y="534" on="0"/>
        <pt x="765" y="548" on="0"/>
        <pt x="867" y="548" on="1"/>
        <pt x="889" y="623" on="1"/>
        <pt x="905" y="677" on="0"/>
        <pt x="905" y="716" on="1"/>
        <pt x="905" y="846" on="0"/>
        <pt x="715" y="846" on="1"/>
        <pt x="619" y="846" on="0"/>
        <pt x="444" y="803" on="1"/>
        <pt x="447" y="921" on="1"/>
        <pt x="626" y="982" on="0"/>
      </contour>
      <contour>
        <pt x="832" y="424" on="1"/>
        <pt x="772" y="424" on="1"/>
        <pt x="716" y="424" on="0"/>
        <pt x="633" y="420" on="0"/>
        <pt x="518" y="402" on="0"/>
        <pt x="439" y="370" on="0"/>
        <pt x="371" y="307" on="0"/>
        <pt x="359" y="264" on="1"/>
        <pt x="355" y="251" on="0"/>
        <pt x="355" y="234" on="1"/>
        <pt x="355" y="182" on="0"/>
        <pt x="450" y="109" on="0"/>
        <pt x="524" y="109" on="1"/>
        <pt x="650" y="109" on="0"/>
        <pt x="769" y="206" on="1"/>
      </contour>
    </TTGlyph>
    <TTGlyph name="aacute" xMin="184" yMin="-20" xMax="1165" yMax="1549">
      <contour>
        <pt x="1107" y="1549" on="1"/>
        <pt x="1165" y="1435" on="1"/>
        <pt x="703" y="1106" on="1"/>
        <pt x="655" y="1210" on="1"/>
      </contour>
      <contour>
        <pt x="832" y="424" on="1"/>
        <pt x="772" y="424" on="1"/>
        <pt x="716" y="424" on="0"/>
        <pt x="633" y="420" on="0"/>
        <pt x="519" y="402" on="0"/>
        <pt x="440" y="370" on="0"/>
        <pt x="372" y="307" on="0"/>
        <pt x="360" y="264" on="1"/>
        <pt x="356" y="251" on="0"/>
        <pt x="356" y="234" on="1"/>
        <pt x="356" y="182" on="0"/>
        <pt x="450" y="109" on="0"/>
        <pt x="524" y="109" on="1"/>
        <pt x="650" y="109" on="0"/>
        <pt x="769" y="206" on="1"/>
      </contour>
      <contour>
        <pt x="780" y="981" on="1"/>
        <pt x="941" y="981" on="0"/>
        <pt x="1080" y="874" on="0"/>
        <pt x="1080" y="775" on="1"/>
        <pt x="1080" y="715" on="0"/>
        <pt x="1058" y="640" on="1"/>
        <pt x="875" y="0" on="1"/>
        <pt x="759" y="0" on="1"/>
        <pt x="747" y="90" on="1"/>
        <pt x="597" y="-20" on="0"/>
        <pt x="442" y="-20" on="1"/>
        <pt x="325" y="-20" on="0"/>
        <pt x="184" y="103" on="0"/>
        <pt x="184" y="194" on="1"/>
        <pt x="184" y="224" on="0"/>
        <pt x="193" y="256" on="1"/>
        <pt x="213" y="327" on="0"/>
        <pt x="308" y="432" on="0"/>
        <pt x="431" y="495" on="0"/>
        <pt x="599" y="534" on="0"/>
        <pt x="765" y="547" on="0"/>
        <pt x="867" y="547" on="1"/>
        <pt x="889" y="623" on="1"/>
        <pt x="905" y="677" on="0"/>
        <pt x="905" y="716" on="1"/>
        <pt x="905" y="846" on="0"/>
        <pt x="715" y="846" on="1"/>
        <pt x="619" y="846" on="0"/>
        <pt x="444" y="803" on="1"/>
        <pt x="447" y="921" on="1"/>
        <pt x="623" y="981" on="0"/>
      </contour>
    </TTGlyph>
    <TTGlyph name="abreve" xMin="184" yMin="-20" xMax="1331" yMax="1448">
      <contour>
        <pt x="564" y="1377" on="1"/>
        <pt x="707" y="1448" on="1"/>
        <pt x="712" y="1412" on="0"/>
        <pt x="737" y="1346" on="0"/>
        <pt x="780" y="1283" on="0"/>
        <pt x="851" y="1246" on="0"/>
        <pt x="896" y="1246" on="1"/>
        <pt x="976" y="1246" on="0"/>
        <pt x="1160" y="1363" on="0"/>
        <pt x="1243" y="1448" on="1"/>
        <pt x="1331" y="1365" on="1"/>
        <pt x="1221" y="1255" on="0"/>
        <pt x="957" y="1108" on="0"/>
        <pt x="840" y="1108" on="1"/>
        <pt x="711" y="1108" on="0"/>
        <pt x="571" y="1267" on="0"/>
      </contour>
      <contour>
        <pt x="832" y="424" on="1"/>
        <pt x="772" y="424" on="1"/>
        <pt x="716" y="424" on="0"/>
        <pt x="633" y="420" on="0"/>
        <pt x="519" y="402" on="0"/>
        <pt x="440" y="370" on="0"/>
        <pt x="372" y="307" on="0"/>
        <pt x="360" y="264" on="1"/>
        <pt x="356" y="251" on="0"/>
        <pt x="356" y="234" on="1"/>
        <pt x="356" y="182" on="0"/>
        <pt x="450" y="109" on="0"/>
        <pt x="524" y="109" on="1"/>
        <pt x="650" y="109" on="0"/>
        <pt x="769" y="206" on="1"/>
      </contour>
      <contour>
        <pt x="780" y="981" on="1"/>
        <pt x="941" y="981" on="0"/>
        <pt x="1080" y="874" on="0"/>
        <pt x="1080" y="775" on="1"/>
        <pt x="1080" y="715" on="0"/>
        <pt x="1058" y="640" on="1"/>
        <pt x="875" y="0" on="1"/>
        <pt x="759" y="0" on="1"/>
        <pt x="747" y="90" on="1"/>
        <pt x="597" y="-20" on="0"/>
        <pt x="442" y="-20" on="1"/>
        <pt x="325" y="-20" on="0"/>
        <pt x="184" y="103" on="0"/>
        <pt x="184" y="194" on="1"/>
        <pt x="184" y="224" on="0"/>
        <pt x="193" y="256" on="1"/>
        <pt x="213" y="327" on="0"/>
        <pt x="308" y="432" on="0"/>
        <pt x="431" y="495" on="0"/>
        <pt x="599" y="534" on="0"/>
        <pt x="765" y="547" on="0"/>
        <pt x="867" y="547" on="1"/>
        <pt x="889" y="623" on="1"/>
        <pt x="905" y="677" on="0"/>
        <pt x="905" y="716" on="1"/>
        <pt x="905" y="846" on="0"/>
        <pt x="715" y="846" on="1"/>
        <pt x="619" y="846" on="0"/>
        <pt x="444" y="803" on="1"/>
        <pt x="447" y="921" on="1"/>
        <pt x="623" y="981" on="0"/>
      </contour>
    </TTGlyph>
    <TTGlyph name="acircumflex" xMin="184" yMin="-20" xMax="1127" yMax="1490">
      <contour>
        <pt x="962" y="1490" on="1"/>
        <pt x="1127" y="1189" on="1"/>
        <pt x="1008" y="1097" on="1"/>
        <pt x="896" y="1303" on="1"/>
        <pt x="660" y="1098" on="1"/>
        <pt x="597" y="1180" on="1"/>
      </contour>
      <contour>
        <pt x="832" y="424" on="1"/>
        <pt x="772" y="424" on="1"/>
        <pt x="716" y="424" on="0"/>
        <pt x="633" y="420" on="0"/>
        <pt x="519" y="402" on="0"/>
        <pt x="440" y="370" on="0"/>
        <pt x="372" y="307" on="0"/>
        <pt x="360" y="264" on="1"/>
        <pt x="356" y="251" on="0"/>
        <pt x="356" y="234" on="1"/>
        <pt x="356" y="182" on="0"/>
        <pt x="450" y="109" on="0"/>
        <pt x="524" y="109" on="1"/>
        <pt x="650" y="109" on="0"/>
        <pt x="769" y="206" on="1"/>
      </contour>
      <contour>
        <pt x="780" y="981" on="1"/>
        <pt x="941" y="981" on="0"/>
        <pt x="1080" y="874" on="0"/>
        <pt x="1080" y="775" on="1"/>
        <pt x="1080" y="715" on="0"/>
        <pt x="1058" y="640" on="1"/>
        <pt x="875" y="0" on="1"/>
        <pt x="759" y="0" on="1"/>
        <pt x="747" y="90" on="1"/>
        <pt x="597" y="-20" on="0"/>
        <pt x="442" y="-20" on="1"/>
        <pt x="325" y="-20" on="0"/>
        <pt x="184" y="103" on="0"/>
        <pt x="184" y="194" on="1"/>
        <pt x="184" y="224" on="0"/>
        <pt x="193" y="256" on="1"/>
        <pt x="213" y="327" on="0"/>
        <pt x="308" y="432" on="0"/>
        <pt x="431" y="495" on="0"/>
        <pt x="599" y="534" on="0"/>
        <pt x="765" y="547" on="0"/>
        <pt x="867" y="547" on="1"/>
        <pt x="889" y="623" on="1"/>
        <pt x="905" y="677" on="0"/>
        <pt x="905" y="716" on="1"/>
        <pt x="905" y="846" on="0"/>
        <pt x="715" y="846" on="1"/>
        <pt x="619" y="846" on="0"/>
        <pt x="444" y="803" on="1"/>
        <pt x="447" y="921" on="1"/>
        <pt x="623" y="981" on="0"/>
      </contour>
    </TTGlyph>
    <TTGlyph name="acute" xMin="640" yMin="1167" xMax="1267" yMax="1585">
      <contour>
        <pt x="1232" y="1585" on="1"/>
        <pt x="1267" y="1462" on="1"/>
        <pt x="671" y="1167" on="1"/>
        <pt x="640" y="1275" on="1"/>
      </contour>
    </TTGlyph>
    <TTGlyph name="adieresis" xMin="184" yMin="-20" xMax="1291" yMax="1421">
      <contour>
        <pt x="1106" y="1421" on="1"/>
        <pt x="1291" y="1421" on="1"/>
        <pt x="1237" y="1235" on="1"/>
        <pt x="1052" y="1235" on="1"/>
      </contour>
      <contour>
        <pt x="663" y="1421" on="1"/>
        <pt x="848" y="1421" on="1"/>
        <pt x="795" y="1235" on="1"/>
        <pt x="610" y="1235" on="1"/>
      </contour>
      <contour>
        <pt x="836" y="424" on="1"/>
        <pt x="776" y="424" on="1"/>
        <pt x="720" y="424" on="0"/>
        <pt x="636" y="420" on="0"/>
        <pt x="520" y="402" on="0"/>
        <pt x="441" y="370" on="0"/>
        <pt x="372" y="307" on="0"/>
        <pt x="360" y="264" on="1"/>
        <pt x="356" y="251" on="0"/>
        <pt x="356" y="234" on="1"/>
        <pt x="356" y="182" on="0"/>
        <pt x="451" y="109" on="0"/>
        <pt x="526" y="109" on="1"/>
        <pt x="653" y="109" on="0"/>
        <pt x="773" y="206" on="1"/>
      </contour>
      <contour>
        <pt x="782" y="981" on="1"/>
        <pt x="944" y="981" on="0"/>
        <pt x="1085" y="873" on="0"/>
        <pt x="1085" y="774" on="1"/>
        <pt x="1085" y="715" on="0"/>
        <pt x="1063" y="640" on="1"/>
        <pt x="879" y="0" on="1"/>
        <pt x="763" y="0" on="1"/>
        <pt x="751" y="90" on="1"/>
        <pt x="601" y="-20" on="0"/>
        <pt x="445" y="-20" on="1"/>
        <pt x="327" y="-20" on="0"/>
        <pt x="184" y="104" on="0"/>
        <pt x="184" y="195" on="1"/>
        <pt x="184" y="224" on="0"/>
        <pt x="193" y="256" on="1"/>
        <pt x="213" y="327" on="0"/>
        <pt x="308" y="432" on="0"/>
        <pt x="432" y="495" on="0"/>
        <pt x="602" y="534" on="0"/>
        <pt x="768" y="547" on="0"/>
        <pt x="871" y="547" on="1"/>
        <pt x="893" y="623" on="1"/>
        <pt x="909" y="677" on="0"/>
        <pt x="909" y="715" on="1"/>
        <pt x="909" y="846" on="0"/>
        <pt x="717" y="846" on="1"/>
        <pt x="619" y="846" on="0"/>
        <pt x="444" y="803" on="1"/>
        <pt x="447" y="921" on="1"/>
        <pt x="624" y="981" on="0"/>
      </contour>
    </TTGlyph>
    <TTGlyph name="ae" xMin="185" yMin="-20" xMax="1691" yMax="981">
      <contour>
        <pt x="360" y="268" on="1"/>
        <pt x="356" y="255" on="0"/>
        <pt x="356" y="238" on="1"/>
        <pt x="356" y="184" on="0"/>
        <pt x="457" y="111" on="0"/>
        <pt x="529" y="111" on="1"/>
        <pt x="654" y="111" on="0"/>
        <pt x="768" y="203" on="1"/>
        <pt x="831" y="423" on="1"/>
        <pt x="660" y="423" on="0"/>
        <pt x="454" y="382" on="0"/>
        <pt x="375" y="319" on="0"/>
      </contour>
      <contour>
        <pt x="1383" y="839" on="1"/>
        <pt x="1265" y="839" on="0"/>
        <pt x="1075" y="667" on="0"/>
        <pt x="1040" y="547" on="1"/>
        <pt x="1516" y="547" on="1"/>
        <pt x="1537" y="621" on="0"/>
        <pt x="1537" y="677" on="1"/>
        <pt x="1537" y="839" on="0"/>
      </contour>
      <contour>
        <pt x="447" y="919" on="1"/>
        <pt x="628" y="981" on="0"/>
        <pt x="794" y="981" on="1"/>
        <pt x="910" y="981" on="0"/>
        <pt x="1040" y="890" on="0"/>
        <pt x="1054" y="809" on="1"/>
        <pt x="1140" y="887" on="0"/>
        <pt x="1350" y="981" on="0"/>
        <pt x="1452" y="981" on="1"/>
        <pt x="1691" y="981" on="0"/>
        <pt x="1691" y="727" on="1"/>
        <pt x="1691" y="611" on="0"/>
        <pt x="1638" y="423" on="1"/>
        <pt x="996" y="423" on="1"/>
        <pt x="984" y="381" on="0"/>
        <pt x="984" y="343" on="1"/>
        <pt x="984" y="241" on="0"/>
        <pt x="1136" y="112" on="0"/>
        <pt x="1263" y="112" on="1"/>
        <pt x="1338" y="112" on="0"/>
        <pt x="1475" y="147" on="1"/>
        <pt x="1470" y="36" on="1"/>
        <pt x="1305" y="-20" on="0"/>
        <pt x="1163" y="-20" on="1"/>
        <pt x="1056" y="-20" on="0"/>
        <pt x="885" y="54" on="0"/>
        <pt x="844" y="130" on="1"/>
        <pt x="687" y="-20" on="0"/>
        <pt x="459" y="-20" on="1"/>
        <pt x="342" y="-20" on="0"/>
        <pt x="185" y="102" on="0"/>
        <pt x="185" y="197" on="1"/>
        <pt x="185" y="227" on="0"/>
        <pt x="194" y="260" on="1"/>
        <pt x="225" y="370" on="0"/>
        <pt x="450" y="523" on="0"/>
        <pt x="628" y="540" on="1"/>
        <pt x="717" y="549" on="0"/>
        <pt x="867" y="549" on="1"/>
        <pt x="882" y="598" on="1"/>
        <pt x="896" y="645" on="0"/>
        <pt x="896" y="690" on="1"/>
        <pt x="896" y="845" on="0"/>
        <pt x="713" y="845" on="1"/>
        <pt x="620" y="845" on="0"/>
        <pt x="454" y="803" on="1"/>
      </contour>
    </TTGlyph>
    <TTGlyph name="afii00208" xMin="169" yMin="589" xMax="1809" yMax="728">
      <contour>
        <pt x="209" y="728" on="1"/>
        <pt x="1809" y="728" on="1"/>
        <pt x="1769" y="589" on="1"/>
        <pt x="169" y="589" on="1"/>
      </contour>
    </TTGlyph>
    <TTGlyph name="agrave" xMin="184" yMin="-20" xMax="1139" yMax="1539">
      <contour>
        <pt x="780" y="981" on="1"/>
        <pt x="941" y="981" on="0"/>
        <pt x="1080" y="874" on="0"/>
        <pt x="1080" y="775" on="1"/>
        <pt x="1080" y="715" on="0"/>
        <pt x="1058" y="640" on="1"/>
        <pt x="875" y="0" on="1"/>
        <pt x="759" y="0" on="1"/>
        <pt x="747" y="90" on="1"/>
        <pt x="597" y="-20" on="0"/>
        <pt x="442" y="-20" on="1"/>
        <pt x="325" y="-20" on="0"/>
        <pt x="184" y="103" on="0"/>
        <pt x="184" y="194" on="1"/>
        <pt x="184" y="224" on="0"/>
        <pt x="193" y="256" on="1"/>
        <pt x="213" y="327" on="0"/>
        <pt x="308" y="432" on="0"/>
        <pt x="431" y="495" on="0"/>
        <pt x="599" y="534" on="0"/>
        <pt x="765" y="547" on="0"/>
        <pt x="867" y="547" on="1"/>
        <pt x="889" y="623" on="1"/>
        <pt x="905" y="677" on="0"/>
        <pt x="905" y="716" on="1"/>
        <pt x="905" y="846" on="0"/>
        <pt x="715" y="846" on="1"/>
        <pt x="619" y="846" on="0"/>
        <pt x="444" y="803" on="1"/>
        <pt x="447" y="921" on="1"/>
        <pt x="623" y="981" on="0"/>
      </contour>
      <contour>
        <pt x="832" y="424" on="1"/>
        <pt x="772" y="424" on="1"/>
        <pt x="716" y="424" on="0"/>
        <pt x="633" y="420" on="0"/>
        <pt x="519" y="402" on="0"/>
        <pt x="440" y="370" on="0"/>
        <pt x="372" y="307" on="0"/>
        <pt x="360" y="264" on="1"/>
        <pt x="356" y="251" on="0"/>
        <pt x="356" y="234" on="1"/>
        <pt x="356" y="182" on="0"/>
        <pt x="450" y="109" on="0"/>
        <pt x="524" y="109" on="1"/>
        <pt x="650" y="109" on="0"/>
        <pt x="769" y="206" on="1"/>
      </contour>
      <contour>
        <pt x="879" y="1539" on="1"/>
        <pt x="1139" y="1200" on="1"/>
        <pt x="1029" y="1095" on="1"/>
        <pt x="757" y="1425" on="1"/>
      </contour>
    </TTGlyph>
    <TTGlyph name="amacron" xMin="184" yMin="-20" xMax="1165" yMax="1333">
      <contour>
        <pt x="644" y="1333" on="1"/>
        <pt x="1165" y="1333" on="1"/>
        <pt x="1128" y="1204" on="1"/>
        <pt x="607" y="1204" on="1"/>
      </contour>
      <contour>
        <pt x="832" y="424" on="1"/>
        <pt x="772" y="424" on="1"/>
        <pt x="716" y="424" on="0"/>
        <pt x="633" y="420" on="0"/>
        <pt x="518" y="402" on="0"/>
        <pt x="439" y="370" on="0"/>
        <pt x="371" y="307" on="0"/>
        <pt x="359" y="264" on="1"/>
        <pt x="355" y="251" on="0"/>
        <pt x="355" y="234" on="1"/>
        <pt x="355" y="182" on="0"/>
        <pt x="450" y="109" on="0"/>
        <pt x="524" y="109" on="1"/>
        <pt x="650" y="109" on="0"/>
        <pt x="769" y="206" on="1"/>
      </contour>
      <contour>
        <pt x="781" y="982" on="1"/>
        <pt x="1080" y="982" on="0"/>
        <pt x="1080" y="775" on="1"/>
        <pt x="1080" y="717" on="0"/>
        <pt x="1058" y="640" on="1"/>
        <pt x="875" y="0" on="1"/>
        <pt x="759" y="0" on="1"/>
        <pt x="747" y="90" on="1"/>
        <pt x="597" y="-20" on="0"/>
        <pt x="442" y="-20" on="1"/>
        <pt x="325" y="-20" on="0"/>
        <pt x="184" y="103" on="0"/>
        <pt x="184" y="194" on="1"/>
        <pt x="184" y="224" on="0"/>
        <pt x="193" y="256" on="1"/>
        <pt x="213" y="327" on="0"/>
        <pt x="308" y="432" on="0"/>
        <pt x="431" y="496" on="0"/>
        <pt x="599" y="534" on="0"/>
        <pt x="765" y="548" on="0"/>
        <pt x="867" y="548" on="1"/>
        <pt x="889" y="623" on="1"/>
        <pt x="905" y="677" on="0"/>
        <pt x="905" y="716" on="1"/>
        <pt x="905" y="846" on="0"/>
        <pt x="715" y="846" on="1"/>
        <pt x="619" y="846" on="0"/>
        <pt x="444" y="803" on="1"/>
        <pt x="447" y="921" on="1"/>
        <pt x="626" y="982" on="0"/>
      </contour>
    </TTGlyph>
    <TTGlyph name="ampersand" xMin="246" yMin="-47" xMax="1681" yMax="1440">
      <contour>
        <pt x="1120" y="1440" on="1"/>
        <pt x="1247" y="1440" on="0"/>
        <pt x="1387" y="1331" on="0"/>
        <pt x="1387" y="1242" on="1"/>
        <pt x="1387" y="1208" on="0"/>
        <pt x="1377" y="1175" on="1"/>
        <pt x="1368" y="1143" on="0"/>
        <pt x="1331" y="1079" on="0"/>
        <pt x="1294" y="1028" on="0"/>
        <pt x="1227" y="966" on="0"/>
        <pt x="1183" y="928" on="0"/>
        <pt x="1098" y="868" on="0"/>
        <pt x="1057" y="842" on="0"/>
        <pt x="963" y="781" on="0"/>
        <pt x="949" y="772" on="1"/>
        <pt x="1191" y="401" on="1"/>
        <pt x="1615" y="754" on="1"/>
        <pt x="1681" y="660" on="1"/>
        <pt x="1256" y="301" on="1"/>
        <pt x="1453" y="0" on="1"/>
        <pt x="1250" y="0" on="1"/>
        <pt x="1114" y="201" on="1"/>
        <pt x="1062" y="161" on="0"/>
        <pt x="991" y="110" on="0"/>
        <pt x="862" y="33" on="0"/>
        <pt x="750" y="-13" on="0"/>
        <pt x="598" y="-47" on="0"/>
        <pt x="523" y="-47" on="1"/>
        <pt x="389" y="-47" on="0"/>
        <pt x="246" y="77" on="0"/>
        <pt x="246" y="181" on="1"/>
        <pt x="246" y="230" on="0"/>
        <pt x="261" y="282" on="1"/>
        <pt x="272" y="320" on="0"/>
        <pt x="307" y="394" on="0"/>
        <pt x="344" y="455" on="0"/>
        <pt x="401" y="521" on="0"/>
        <pt x="442" y="566" on="0"/>
        <pt x="512" y="624" on="0"/>
        <pt x="550" y="655" on="0"/>
        <pt x="625" y="706" on="0"/>
        <pt x="651" y="723" on="0"/>
        <pt x="721" y="768" on="0"/>
        <pt x="725" y="770" on="1"/>
        <pt x="723" y="774" on="0"/>
        <pt x="697" y="811" on="0"/>
        <pt x="690" y="822" on="0"/>
        <pt x="667" y="858" on="0"/>
        <pt x="658" y="873" on="0"/>
        <pt x="640" y="907" on="0"/>
        <pt x="632" y="928" on="0"/>
        <pt x="620" y="962" on="0"/>
        <pt x="615" y="988" on="0"/>
        <pt x="611" y="1021" on="0"/>
        <pt x="611" y="1037" on="1"/>
        <pt x="611" y="1078" on="0"/>
        <pt x="624" y="1123" on="1"/>
        <pt x="664" y="1263" on="0"/>
        <pt x="949" y="1440" on="0"/>
      </contour>
      <contour>
        <pt x="1062" y="1297" on="1"/>
        <pt x="972" y="1297" on="0"/>
        <pt x="809" y="1188" on="0"/>
        <pt x="788" y="1114" on="1"/>
        <pt x="782" y="1092" on="0"/>
        <pt x="782" y="1071" on="1"/>
        <pt x="782" y="1046" on="0"/>
        <pt x="802" y="993" on="0"/>
        <pt x="825" y="958" on="0"/>
        <pt x="873" y="890" on="0"/>
        <pt x="885" y="871" on="1"/>
        <pt x="905" y="884" on="0"/>
        <pt x="991" y="938" on="0"/>
        <pt x="1023" y="958" on="0"/>
        <pt x="1088" y="1002" on="0"/>
        <pt x="1114" y="1023" on="0"/>
        <pt x="1157" y="1061" on="0"/>
        <pt x="1176" y="1088" on="0"/>
        <pt x="1197" y="1124" on="0"/>
        <pt x="1202" y="1143" on="1"/>
        <pt x="1207" y="1159" on="0"/>
        <pt x="1207" y="1180" on="1"/>
        <pt x="1207" y="1230" on="0"/>
        <pt x="1130" y="1297" on="0"/>
      </contour>
      <contour>
        <pt x="793" y="671" on="1"/>
        <pt x="645" y="575" on="0"/>
        <pt x="595" y="535" on="1"/>
        <pt x="472" y="435" on="0"/>
        <pt x="441" y="327" on="1"/>
        <pt x="432" y="296" on="0"/>
        <pt x="432" y="266" on="1"/>
        <pt x="432" y="193" on="0"/>
        <pt x="535" y="100" on="0"/>
        <pt x="622" y="100" on="1"/>
        <pt x="669" y="100" on="0"/>
        <pt x="773" y="130" on="0"/>
        <pt x="852" y="166" on="0"/>
        <pt x="955" y="231" on="0"/>
        <pt x="1004" y="267" on="0"/>
        <pt x="1046" y="299" on="1"/>
      </contour>
    </TTGlyph>
    <TTGlyph name="aogonek" xMin="184" yMin="-543" xMax="1081" yMax="969">
      <contour>
        <pt x="713" y="834" on="1"/>
        <pt x="616" y="834" on="0"/>
        <pt x="441" y="791" on="1"/>
        <pt x="444" y="909" on="1"/>
        <pt x="621" y="969" on="0"/>
        <pt x="779" y="969" on="1"/>
        <pt x="941" y="969" on="0"/>
        <pt x="1081" y="861" on="0"/>
        <pt x="1081" y="762" on="1"/>
        <pt x="1081" y="703" on="0"/>
        <pt x="1059" y="628" on="1"/>
        <pt x="866" y="-45" on="1"/>
        <pt x="849" y="-53" on="0"/>
        <pt x="771" y="-87" on="0"/>
        <pt x="736" y="-103" on="0"/>
        <pt x="669" y="-135" on="0"/>
        <pt x="635" y="-153" on="0"/>
        <pt x="580" y="-184" on="0"/>
        <pt x="551" y="-207" on="0"/>
        <pt x="512" y="-239" on="0"/>
        <pt x="490" y="-267" on="0"/>
        <pt x="470" y="-302" on="0"/>
        <pt x="460" y="-338" on="0"/>
        <pt x="460" y="-351" on="1"/>
        <pt x="460" y="-384" on="0"/>
        <pt x="503" y="-422" on="0"/>
        <pt x="541" y="-422" on="1"/>
        <pt x="601" y="-422" on="0"/>
        <pt x="718" y="-366" on="1"/>
        <pt x="742" y="-449" on="1"/>
        <pt x="572" y="-543" on="0"/>
        <pt x="456" y="-543" on="1"/>
        <pt x="385" y="-543" on="0"/>
        <pt x="303" y="-470" on="0"/>
        <pt x="303" y="-409" on="1"/>
        <pt x="303" y="-382" on="0"/>
        <pt x="312" y="-352" on="1"/>
        <pt x="324" y="-310" on="0"/>
        <pt x="380" y="-229" on="0"/>
        <pt x="439" y="-169" on="0"/>
        <pt x="536" y="-103" on="0"/>
        <pt x="594" y="-68" on="0"/>
        <pt x="698" y="-18" on="0"/>
        <pt x="723" y="-8" on="0"/>
        <pt x="761" y="8" on="1"/>
        <pt x="750" y="85" on="1"/>
        <pt x="572" y="-17" on="0"/>
        <pt x="432" y="-17" on="1"/>
        <pt x="322" y="-17" on="0"/>
        <pt x="184" y="104" on="0"/>
        <pt x="184" y="194" on="1"/>
        <pt x="184" y="224" on="0"/>
        <pt x="193" y="256" on="1"/>
        <pt x="204" y="293" on="0"/>
        <pt x="250" y="367" on="0"/>
        <pt x="328" y="443" on="0"/>
        <pt x="452" y="505" on="0"/>
        <pt x="529" y="521" on="1"/>
        <pt x="651" y="548" on="0"/>
        <pt x="871" y="548" on="1"/>
        <pt x="889" y="612" on="1"/>
        <pt x="905" y="666" on="0"/>
        <pt x="905" y="703" on="1"/>
        <pt x="905" y="834" on="0"/>
      </contour>
      <contour>
        <pt x="517" y="117" on="1"/>
        <pt x="638" y="117" on="0"/>
        <pt x="770" y="197" on="1"/>
        <pt x="835" y="424" on="1"/>
        <pt x="796" y="424" on="1"/>
        <pt x="647" y="424" on="0"/>
        <pt x="482" y="399" on="0"/>
        <pt x="422" y="352" on="1"/>
        <pt x="355" y="298" on="0"/>
        <pt x="355" y="233" on="1"/>
        <pt x="355" y="183" on="0"/>
        <pt x="441" y="117" on="0"/>
      </contour>
    </TTGlyph>
    <TTGlyph name="aring" xMin="184" yMin="-20" xMax="1154" yMax="1573">
      <contour>
        <pt x="969" y="1482" on="1"/>
        <pt x="915" y="1482" on="0"/>
        <pt x="818" y="1398" on="0"/>
        <pt x="801" y="1340" on="1"/>
        <pt x="795" y="1318" on="0"/>
        <pt x="795" y="1296" on="1"/>
        <pt x="795" y="1253" on="0"/>
        <pt x="843" y="1198" on="0"/>
        <pt x="887" y="1198" on="1"/>
        <pt x="940" y="1198" on="0"/>
        <pt x="1036" y="1284" on="0"/>
        <pt x="1052" y="1340" on="1"/>
        <pt x="1058" y="1362" on="0"/>
        <pt x="1058" y="1383" on="1"/>
        <pt x="1058" y="1426" on="0"/>
        <pt x="1010" y="1482" on="0"/>
      </contour>
      <contour>
        <pt x="994" y="1573" on="1"/>
        <pt x="1065" y="1573" on="0"/>
        <pt x="1154" y="1481" on="0"/>
        <pt x="1154" y="1408" on="1"/>
        <pt x="1154" y="1374" on="0"/>
        <pt x="1144" y="1340" on="1"/>
        <pt x="1116" y="1243" on="0"/>
        <pt x="950" y="1107" on="0"/>
        <pt x="861" y="1107" on="1"/>
        <pt x="790" y="1107" on="0"/>
        <pt x="701" y="1199" on="0"/>
        <pt x="701" y="1271" on="1"/>
        <pt x="701" y="1306" on="0"/>
        <pt x="711" y="1340" on="1"/>
        <pt x="739" y="1436" on="0"/>
        <pt x="905" y="1573" on="0"/>
      </contour>
      <contour>
        <pt x="835" y="424" on="1"/>
        <pt x="775" y="424" on="1"/>
        <pt x="719" y="424" on="0"/>
        <pt x="635" y="420" on="0"/>
        <pt x="520" y="402" on="0"/>
        <pt x="441" y="370" on="0"/>
        <pt x="372" y="307" on="0"/>
        <pt x="360" y="264" on="1"/>
        <pt x="356" y="251" on="0"/>
        <pt x="356" y="234" on="1"/>
        <pt x="356" y="182" on="0"/>
        <pt x="450" y="109" on="0"/>
        <pt x="525" y="109" on="1"/>
        <pt x="652" y="109" on="0"/>
        <pt x="772" y="206" on="1"/>
      </contour>
      <contour>
        <pt x="782" y="981" on="1"/>
        <pt x="943" y="981" on="0"/>
        <pt x="1084" y="873" on="0"/>
        <pt x="1084" y="774" on="1"/>
        <pt x="1084" y="715" on="0"/>
        <pt x="1062" y="640" on="1"/>
        <pt x="878" y="0" on="1"/>
        <pt x="762" y="0" on="1"/>
        <pt x="750" y="90" on="1"/>
        <pt x="600" y="-20" on="0"/>
        <pt x="444" y="-20" on="1"/>
        <pt x="326" y="-20" on="0"/>
        <pt x="184" y="103" on="0"/>
        <pt x="184" y="194" on="1"/>
        <pt x="184" y="224" on="0"/>
        <pt x="193" y="256" on="1"/>
        <pt x="213" y="327" on="0"/>
        <pt x="308" y="432" on="0"/>
        <pt x="431" y="495" on="0"/>
        <pt x="601" y="534" on="0"/>
        <pt x="767" y="547" on="0"/>
        <pt x="870" y="547" on="1"/>
        <pt x="892" y="623" on="1"/>
        <pt x="908" y="679" on="0"/>
        <pt x="908" y="716" on="1"/>
        <pt x="908" y="846" on="0"/>
        <pt x="717" y="846" on="1"/>
        <pt x="619" y="846" on="0"/>
        <pt x="444" y="803" on="1"/>
        <pt x="447" y="921" on="1"/>
        <pt x="624" y="981" on="0"/>
      </contour>
    </TTGlyph>
    <TTGlyph name="asciicircum" xMin="800" yMin="1167" xMax="1341" yMax="1541">
      <contour>
        <pt x="1167" y="1541" on="1"/>
        <pt x="1341" y="1255" on="1"/>
        <pt x="1223" y="1167" on="1"/>
        <pt x="1103" y="1363" on="1"/>
        <pt x="866" y="1167" on="1"/>
        <pt x="800" y="1246" on="1"/>
      </contour>
    </TTGlyph>
    <TTGlyph name="asciitilde" xMin="716" yMin="1239" xMax="1522" yMax="1545">
      <contour>
        <pt x="1266" y="1361" on="1"/>
        <pt x="1278" y="1361" on="0"/>
        <pt x="1301" y="1368" on="0"/>
        <pt x="1322" y="1383" on="0"/>
        <pt x="1339" y="1398" on="0"/>
        <pt x="1358" y="1425" on="0"/>
        <pt x="1370" y="1444" on="0"/>
        <pt x="1388" y="1480" on="0"/>
        <pt x="1397" y="1499" on="0"/>
        <pt x="1415" y="1537" on="0"/>
        <pt x="1419" y="1545" on="1"/>
        <pt x="1522" y="1528" on="1"/>
        <pt x="1518" y="1519" on="0"/>
        <pt x="1491" y="1464" on="0"/>
        <pt x="1479" y="1439" on="0"/>
        <pt x="1452" y="1387" on="0"/>
        <pt x="1434" y="1361" on="0"/>
        <pt x="1403" y="1317" on="0"/>
        <pt x="1378" y="1294" on="0"/>
        <pt x="1341" y="1264" on="0"/>
        <pt x="1305" y="1250" on="0"/>
        <pt x="1261" y="1239" on="0"/>
        <pt x="1237" y="1239" on="1"/>
        <pt x="1193" y="1239" on="0"/>
        <pt x="1121" y="1276" on="0"/>
        <pt x="1075" y="1330" on="0"/>
        <pt x="1036" y="1384" on="0"/>
        <pt x="994" y="1421" on="0"/>
        <pt x="971" y="1421" on="1"/>
        <pt x="959" y="1421" on="0"/>
        <pt x="936" y="1415" on="0"/>
        <pt x="915" y="1399" on="0"/>
        <pt x="898" y="1385" on="0"/>
        <pt x="879" y="1357" on="0"/>
        <pt x="868" y="1340" on="0"/>
        <pt x="849" y="1303" on="0"/>
        <pt x="841" y="1287" on="0"/>
        <pt x="823" y="1247" on="0"/>
        <pt x="820" y="1241" on="1"/>
        <pt x="716" y="1256" on="1"/>
        <pt x="720" y="1265" on="0"/>
        <pt x="747" y="1320" on="0"/>
        <pt x="758" y="1345" on="0"/>
        <pt x="786" y="1396" on="0"/>
        <pt x="803" y="1422" on="0"/>
        <pt x="834" y="1466" on="0"/>
        <pt x="860" y="1488" on="0"/>
        <pt x="896" y="1518" on="0"/>
        <pt x="932" y="1532" on="0"/>
        <pt x="976" y="1543" on="0"/>
        <pt x="1000" y="1543" on="1"/>
        <pt x="1044" y="1543" on="0"/>
        <pt x="1116" y="1506" on="0"/>
        <pt x="1162" y="1452" on="0"/>
        <pt x="1201" y="1398" on="0"/>
        <pt x="1243" y="1361" on="0"/>
      </contour>
    </TTGlyph>
    <TTGlyph name="asterisk" xMin="422" yMin="552" xMax="1340" yMax="1421">
      <contour>
        <pt x="920" y="1421" on="1"/>
        <pt x="1090" y="1421" on="1"/>
        <pt x="981" y="1102" on="1"/>
        <pt x="1297" y="1277" on="1"/>
        <pt x="1340" y="1129" on="1"/>
        <pt x="1015" y="988" on="1"/>
        <pt x="1258" y="843" on="1"/>
        <pt x="1130" y="695" on="1"/>
        <pt x="914" y="870" on="1"/>
        <pt x="841" y="552" on="1"/>
        <pt x="671" y="552" on="1"/>
        <pt x="780" y="870" on="1"/>
        <pt x="464" y="695" on="1"/>
        <pt x="422" y="843" on="1"/>
        <pt x="748" y="988" on="1"/>
        <pt x="504" y="1129" on="1"/>
        <pt x="631" y="1277" on="1"/>
        <pt x="847" y="1102" on="1"/>
      </contour>
    </TTGlyph>
    <TTGlyph name="at" xMin="250" yMin="-427" xMax="2176" yMax="1399">
      <contour>
        <pt x="1330" y="962" on="1"/>
        <pt x="1457" y="962" on="0"/>
        <pt x="1559" y="903" on="1"/>
        <pt x="1601" y="968" on="1"/>
        <pt x="1714" y="968" on="1"/>
        <pt x="1508" y="252" on="1"/>
        <pt x="1481" y="155" on="0"/>
        <pt x="1481" y="113" on="1"/>
        <pt x="1481" y="20" on="0"/>
        <pt x="1571" y="20" on="1"/>
        <pt x="1608" y="20" on="0"/>
        <pt x="1699" y="72" on="0"/>
        <pt x="1802" y="180" on="0"/>
        <pt x="1904" y="380" on="0"/>
        <pt x="1941" y="510" on="1"/>
        <pt x="1990" y="683" on="0"/>
        <pt x="1990" y="811" on="1"/>
        <pt x="1990" y="1238" on="0"/>
        <pt x="1455" y="1238" on="1"/>
        <pt x="1330" y="1238" on="0"/>
        <pt x="1103" y="1182" on="0"/>
        <pt x="924" y="1088" on="0"/>
        <pt x="767" y="957" on="0"/>
        <pt x="652" y="815" on="0"/>
        <pt x="557" y="654" on="0"/>
        <pt x="496" y="510" on="0"/>
        <pt x="475" y="438" on="1"/>
        <pt x="438" y="306" on="0"/>
        <pt x="438" y="195" on="1"/>
        <pt x="438" y="79" on="0"/>
        <pt x="515" y="-106" on="0"/>
        <pt x="651" y="-223" on="0"/>
        <pt x="830" y="-285" on="0"/>
        <pt x="935" y="-285" on="1"/>
        <pt x="1089" y="-285" on="0"/>
        <pt x="1246" y="-218" on="1"/>
        <pt x="1275" y="-337" on="1"/>
        <pt x="1074" y="-427" on="0"/>
        <pt x="870" y="-427" on="1"/>
        <pt x="819" y="-427" on="0"/>
        <pt x="716" y="-416" on="0"/>
        <pt x="590" y="-384" on="0"/>
        <pt x="480" y="-335" on="0"/>
        <pt x="373" y="-250" on="0"/>
        <pt x="297" y="-142" on="0"/>
        <pt x="250" y="14" on="0"/>
        <pt x="250" y="108" on="1"/>
        <pt x="250" y="238" on="0"/>
        <pt x="297" y="404" on="1"/>
        <pt x="326" y="506" on="0"/>
        <pt x="407" y="698" on="0"/>
        <pt x="527" y="900" on="0"/>
        <pt x="673" y="1073" on="0"/>
        <pt x="870" y="1227" on="0"/>
        <pt x="1095" y="1336" on="0"/>
        <pt x="1383" y="1399" on="0"/>
        <pt x="1543" y="1399" on="1"/>
        <pt x="2176" y="1399" on="0"/>
        <pt x="2176" y="896" on="1"/>
        <pt x="2176" y="739" on="0"/>
        <pt x="2115" y="530" on="1"/>
        <pt x="2070" y="374" on="0"/>
        <pt x="1939" y="133" on="0"/>
        <pt x="1810" y="-2" on="0"/>
        <pt x="1666" y="-88" on="0"/>
        <pt x="1560" y="-115" on="0"/>
        <pt x="1512" y="-115" on="1"/>
        <pt x="1424" y="-115" on="0"/>
        <pt x="1320" y="-21" on="0"/>
        <pt x="1315" y="56" on="1"/>
        <pt x="1163" y="-20" on="0"/>
        <pt x="1023" y="-20" on="1"/>
        <pt x="876" y="-20" on="0"/>
        <pt x="705" y="142" on="0"/>
        <pt x="705" y="286" on="1"/>
        <pt x="705" y="360" on="0"/>
        <pt x="731" y="452" on="1"/>
        <pt x="796" y="678" on="0"/>
        <pt x="1127" y="962" on="0"/>
      </contour>
      <contour>
        <pt x="1318" y="840" on="1"/>
        <pt x="1175" y="840" on="0"/>
        <pt x="939" y="647" on="0"/>
        <pt x="889" y="475" on="1"/>
        <pt x="868" y="402" on="0"/>
        <pt x="868" y="343" on="1"/>
        <pt x="868" y="230" on="0"/>
        <pt x="1002" y="109" on="0"/>
        <pt x="1113" y="109" on="1"/>
        <pt x="1216" y="109" on="0"/>
        <pt x="1327" y="161" on="1"/>
        <pt x="1509" y="794" on="1"/>
        <pt x="1419" y="840" on="0"/>
      </contour>
    </TTGlyph>
</ttFont>
